<svg preserveAspectRatio="none" width="100%" height="100%" overflow="visible" style="display: block;" viewBox="0 0 89.7688 104.092" fill="none" xmlns="http://www.w3.org/2000/svg">
<g id="Group">
<path id="Vector" d="M10.9633 44.3879C12.0253 42.0835 11.3509 40.1916 9.41312 38.8224C8.47628 38.1622 7.7683 37.1476 7.0054 36.2826C6.39202 35.5888 5.90681 34.7361 5.22325 34.0332C4.59157 33.3852 4.88757 32.4592 4.89978 31.6584C4.91503 30.6896 5.16527 29.7085 4.42068 28.8711C4.27725 28.7122 4.21012 28.4677 4.34133 28.2507C5.77254 25.8973 4.28335 23.9993 3.2519 22.1258C2.72398 21.1631 1.97633 20.2554 0.950987 19.6105C0.0568629 19.0451 -0.300176 16.8598 0.288787 15.9735C1.3538 14.375 2.12281 12.6849 2.42492 10.7747C2.49511 10.3285 2.61412 9.90365 2.43407 9.47577C2.29065 9.13957 2.09839 8.71169 2.28759 8.45496C3.13899 7.3119 2.84299 5.96713 3.08712 4.72015C3.23055 3.97442 3.25496 3.48235 2.4768 3.08809C1.90614 2.79774 1.16765 2.27511 1.6437 1.5416C2.05872 0.90283 2.35168 -0.0385143 3.46552 0.00121768C13.8837 0.377143 24.3081 0.306847 34.7293 0.248778C35.7638 0.242665 35.831 0.652213 35.8279 1.48353C35.8005 11.7863 35.8157 22.0922 35.7822 32.395C35.7822 33.3149 36.0263 33.9201 36.7434 34.5405C52.4837 48.1411 68.1964 61.7722 83.9214 75.3881C84.4433 75.8404 84.9071 76.2683 84.8278 77.0385C84.8095 77.2035 84.8491 77.4602 84.959 77.5397C86.6496 78.7439 87.2233 80.9016 88.8681 82.1242C90.0338 82.9921 90.0827 83.5637 88.9291 84.4653C87.8824 85.2844 87.504 86.5864 86.6587 87.5552C86.5306 87.7019 86.5855 88.084 86.6618 88.3193C87.3575 90.4526 86.9395 92.3017 85.2977 93.8512C85.0109 94.1202 84.84 94.5114 85.0536 94.8078C85.5632 95.5108 85.966 96.1771 85.67 97.1092C85.5876 97.366 85.9447 97.5218 86.2437 97.476C87.1378 97.3384 87.8092 97.6807 87.8611 98.5854C87.9068 99.3984 87.5101 100.193 86.8662 100.706C86.4756 101.018 85.8989 101.199 85.3923 101.244C78.1508 101.877 70.9917 103.148 63.7868 104.062C62.8286 104.185 62.6394 103.943 62.6486 103.063C62.673 100.45 61.6446 98.1514 60.3507 95.957C60.1768 95.6605 59.9174 95.3427 59.6183 95.2082C57.6928 94.3341 55.9778 93.2002 54.69 91.4826C54.2597 90.908 53.7287 91.1647 53.2618 91.4245C52.2212 92.0052 51.675 91.5376 51.382 90.5626C51.205 89.9697 51.0158 89.3645 50.9762 88.7533C50.9151 87.8058 50.5032 87.7875 49.7494 88.0595C47.8605 88.7411 45.2483 87.9953 43.8995 86.4488C43.2525 85.7061 42.5049 85.0918 41.6718 84.5723C41.0676 84.1963 40.4877 84.0802 39.792 84.3491C38.8246 84.722 37.8084 84.6456 37.0181 83.9824C36.1544 83.255 35.2695 83.2244 34.2899 83.5117C33.4233 83.7654 32.9716 83.4109 32.1996 82.8668C30.1153 81.3968 31.2291 79.4774 31.1315 77.8178C31.0705 76.7389 31.1101 76.0085 29.9505 75.7518C28.9984 75.5409 29.035 74.9113 29.3005 74.2267C29.566 73.539 29.5294 72.9552 28.7451 72.7535C27.8418 72.5212 27.3444 71.9191 26.908 71.1642C26.0689 69.7064 24.8665 68.5236 24.0914 66.9496C23.6428 66.0388 22.5625 64.9691 21.525 64.2509C19.9687 63.172 20.3715 61.3841 19.8344 59.9415C19.7642 59.752 19.9778 59.645 20.1548 59.5992C21.1374 59.3272 21.1924 58.5937 21.2107 57.7287C21.2381 56.4817 21.0306 55.8888 19.514 56.1425C17.6891 56.4451 15.6811 53.9481 15.8032 51.6833C15.8551 50.6962 15.9863 49.7487 15.4248 48.8501C15.2692 48.5995 15.1593 48.193 15.4706 48.0066C15.8063 47.808 16.1786 48.0188 16.4196 48.2908C16.8926 48.8196 17.3199 49.385 17.7807 49.926C18.0034 50.1888 18.1957 50.4914 18.6534 50.1919C19.1386 49.874 18.8701 49.5562 18.6961 49.2994C17.8875 48.1075 17.7471 46.5365 16.4929 45.5799C15.9802 45.1887 16.2762 44.7211 16.7614 44.4093C17.1246 44.1771 17.4267 43.8592 17.0879 43.4374C16.8041 43.0798 16.3372 42.9331 15.8948 42.9362C15.2753 42.9362 15.5804 43.4466 15.553 43.74C15.5042 44.2565 15.3333 44.7761 15.5804 45.3048C15.7086 45.5799 15.7757 45.9222 15.4767 46.1606C15.1349 46.4357 14.7931 46.2645 14.4971 46.0689C14.2805 45.9253 14.0943 45.7236 13.9204 45.5249C13.1697 44.6661 12.6417 43.3427 10.9633 44.4002V44.3879Z" fill="var(--fill-0, black)"/>
<path id="Vector_2" d="M40.8001 87.9526C39.9456 88.9612 38.7952 88.9062 37.6874 88.8848C37.1656 88.8756 37.1565 88.3469 37.2114 87.9557C37.2846 87.4392 37.6325 87.6928 37.895 87.7845C38.841 88.1116 39.7961 88.1513 40.8001 87.9526Z" fill="var(--fill-0, black)"/>
<path id="Vector_3" d="M52.0107 95.8347C50.5276 96.2014 50.1187 94.7711 49.1422 94.3707C49.075 94.3432 49.0171 94.1507 49.0445 94.059C49.0964 93.8695 49.307 93.7411 49.4473 93.842C50.3293 94.4685 51.8154 94.3279 52.0107 95.8347Z" fill="var(--fill-0, black)"/>
<path id="Vector_4" d="M34.2783 88.2368C35.2243 88.1207 36.2191 87.6469 36.8142 88.8603C35.5386 89.716 35.3006 89.661 34.2783 88.2368Z" fill="var(--fill-0, black)"/>
<path id="Vector_5" d="M49.4297 98.4082C50.0248 99.5298 50.4429 100.444 51.4591 101.049C49.9638 101.358 49.2222 100.407 49.4297 98.4082Z" fill="var(--fill-0, black)"/>
<path id="Vector_6" d="M42.2058 96.9287C41.2812 96.9562 40.6831 97.2405 40.3016 96.617C40.1857 96.4275 40.3047 96.1921 40.5458 96.1004C41.2415 95.8315 41.5131 96.3663 42.2028 96.9318L42.2058 96.9287Z" fill="var(--fill-0, black)"/>
</g>
</svg>
