<svg preserveAspectRatio="none" width="100%" height="100%" overflow="visible" style="display: block;" viewBox="0 0 189.549 72.3888" fill="none" xmlns="http://www.w3.org/2000/svg">
<g id="Group">
<path id="Vector" d="M182.249 1.16467L189.549 3.82671L188.499 6.71187C188.297 7.26506 188.02 7.69905 187.669 8.01385C187.318 8.32865 186.918 8.51814 186.47 8.58843C186.024 8.65873 185.557 8.60677 185.072 8.42951C184.587 8.25224 184.196 7.99246 183.903 7.64709C183.607 7.30173 183.43 6.89524 183.366 6.42151C183.302 5.95084 183.375 5.43433 183.58 4.87197L184.248 3.03513L185.484 3.48747L184.907 5.07674C184.8 5.3732 184.761 5.6391 184.794 5.87138C184.828 6.10366 184.919 6.29926 185.066 6.46431C185.215 6.62935 185.411 6.75466 185.649 6.84023C185.89 6.92887 186.122 6.95637 186.338 6.92886C186.555 6.8983 186.75 6.80356 186.921 6.64769C187.092 6.48876 187.232 6.25953 187.342 5.96002L187.721 4.91782L181.685 2.71727L182.246 1.17078L182.249 1.16467Z" fill="var(--fill-0, white)"/>
<path id="Vector_2" d="M180.143 15.3794L176.121 15.5659L176.914 13.9338L180.918 13.784L180.143 15.3794ZM178.8 10.0523L185.782 13.4601L184.44 16.2199C184.183 16.7486 183.869 17.1551 183.5 17.4363C183.131 17.7205 182.725 17.8764 182.288 17.907C181.849 17.9375 181.4 17.8397 180.94 17.6136C180.476 17.3874 180.125 17.094 179.89 16.7303C179.655 16.3666 179.539 15.954 179.548 15.4864C179.554 15.0218 179.688 14.5206 179.951 13.9827L180.851 12.1367L182.038 12.7143L181.257 14.3219C181.12 14.6031 181.043 14.8568 181.031 15.0829C181.019 15.3061 181.065 15.5047 181.175 15.6698C181.284 15.8379 181.455 15.9784 181.684 16.0885C181.916 16.2016 182.133 16.2505 182.337 16.2352C182.542 16.2199 182.731 16.1404 182.905 15.9937C183.079 15.847 183.234 15.63 183.375 15.3458L183.86 14.3494L178.083 11.5315L178.803 10.0523H178.8Z" fill="var(--fill-0, white)"/>
<path id="Vector_3" d="M173.893 26.7336C173.179 26.2782 172.654 25.7586 172.325 25.1688C171.995 24.5789 171.843 23.9677 171.876 23.335C171.907 22.7023 172.105 22.0972 172.471 21.5165C172.841 20.9327 173.304 20.4926 173.863 20.1962C174.421 19.8997 175.038 19.7775 175.709 19.8264C176.38 19.8753 177.073 20.1259 177.787 20.5782C178.501 21.0336 179.026 21.5532 179.359 22.14C179.691 22.7268 179.841 23.3381 179.81 23.9707C179.78 24.6034 179.582 25.2116 179.212 25.7953C178.846 26.376 178.382 26.8131 177.824 27.1126C177.265 27.4091 176.649 27.5344 175.978 27.4885C175.306 27.4427 174.611 27.189 173.893 26.7367V26.7336ZM174.784 25.3247C175.248 25.6181 175.682 25.7984 176.088 25.8626C176.493 25.9268 176.857 25.887 177.18 25.7403C177.503 25.5936 177.772 25.3522 177.983 25.019C178.193 24.6859 178.297 24.3375 178.291 23.9829C178.285 23.6284 178.166 23.28 177.934 22.9407C177.702 22.6015 177.357 22.2836 176.893 21.9902C176.429 21.6968 175.996 21.5165 175.59 21.4523C175.184 21.3881 174.821 21.4279 174.498 21.5746C174.174 21.7213 173.909 21.9597 173.695 22.2959C173.481 22.6321 173.378 22.9774 173.387 23.3319C173.393 23.6865 173.512 24.0349 173.744 24.3742C173.976 24.7134 174.321 25.0313 174.784 25.3247Z" fill="var(--fill-0, white)"/>
<path id="Vector_4" d="M171.4 36.358L170.368 37.6386L166.444 34.4631C166.004 34.1055 165.702 33.6898 165.541 33.213C165.379 32.7362 165.357 32.235 165.48 31.7093C165.602 31.1836 165.861 30.6702 166.264 30.172C166.67 29.6708 167.115 29.304 167.603 29.0779C168.092 28.8517 168.583 28.7661 169.084 28.8242C169.581 28.8822 170.051 29.0901 170.493 29.4477L174.415 32.6232L173.383 33.9038L169.569 30.8169C169.34 30.6305 169.093 30.5143 168.833 30.4715C168.574 30.4287 168.318 30.4562 168.064 30.5602C167.814 30.661 167.588 30.8352 167.39 31.0828C167.188 31.3304 167.066 31.5871 167.021 31.856C166.975 32.1219 166.999 32.3787 167.097 32.6262C167.195 32.8738 167.356 33.0877 167.588 33.2742L171.403 36.361L171.4 36.358Z" fill="var(--fill-0, white)"/>
<path id="Vector_5" d="M159.721 37.611L161.681 35.6733L167.14 41.2083L165.165 43.1612C164.61 43.7114 164.021 44.0751 163.405 44.2493C162.785 44.4265 162.166 44.4143 161.54 44.2157C160.918 44.017 160.323 43.6319 159.755 43.0573C159.187 42.4797 158.806 41.8776 158.614 41.248C158.421 40.6184 158.418 39.9949 158.604 39.3745C158.791 38.754 159.163 38.1642 159.724 37.611H159.721ZM161.5 37.831L160.759 38.5645C160.414 38.9068 160.182 39.2553 160.069 39.6129C159.953 39.9704 159.966 40.3372 160.103 40.7162C160.24 41.0952 160.512 41.4894 160.918 41.902C161.32 42.3116 161.711 42.5866 162.086 42.7272C162.462 42.8678 162.828 42.8831 163.185 42.7731C163.542 42.6631 163.893 42.4369 164.238 42.0946L164.982 41.358L161.5 37.828V37.831Z" fill="var(--fill-0, white)"/>
<path id="Vector_6" d="M154.137 42.7914L159.002 48.8551L157.72 49.8851L153.704 44.8758L151.107 46.9632L150.259 45.9058L154.134 42.7853L154.137 42.7914Z" fill="var(--fill-0, white)"/>
<path id="Vector_7" d="M152.742 53.7759L151.207 54.7936L147.883 52.9782L147.819 53.0209L148.189 56.7924L146.654 57.8102L146.245 52.049L144.728 49.7568L146.089 48.8552L147.606 51.1474L152.739 53.7759H152.742Z" fill="var(--fill-0, white)"/>
<path id="Vector_8" d="M133.282 62.1715C133.435 62.4374 133.651 62.6025 133.929 62.6636C134.21 62.7247 134.527 62.6728 134.887 62.5108C135.131 62.4007 135.324 62.2754 135.461 62.1287C135.598 61.9851 135.687 61.8323 135.72 61.6733C135.757 61.5144 135.739 61.3555 135.672 61.2057C135.62 61.0774 135.543 60.9765 135.44 60.9093C135.339 60.842 135.22 60.7962 135.086 60.7748C134.951 60.7534 134.805 60.7473 134.646 60.7595C134.488 60.7717 134.323 60.7931 134.155 60.8298L133.45 60.9643C133.111 61.0346 132.785 61.0682 132.473 61.0682C132.162 61.0682 131.875 61.0285 131.61 60.9429C131.344 60.8604 131.109 60.7259 130.902 60.5456C130.694 60.3652 130.523 60.1269 130.389 59.8304C130.197 59.3964 130.139 58.9685 130.215 58.5529C130.292 58.1372 130.496 57.749 130.826 57.3915C131.158 57.0339 131.61 56.7252 132.187 56.4654C132.76 56.2087 133.294 56.0711 133.798 56.0589C134.301 56.0436 134.747 56.1567 135.138 56.3951C135.528 56.6335 135.846 57.0064 136.084 57.5107L134.634 58.1617C134.512 57.9324 134.353 57.7643 134.161 57.6604C133.969 57.5565 133.752 57.5107 133.514 57.5229C133.273 57.5351 133.026 57.5993 132.766 57.7154C132.513 57.8285 132.309 57.9661 132.153 58.125C131.997 58.2839 131.9 58.452 131.854 58.6293C131.808 58.8065 131.827 58.9838 131.903 59.1519C131.973 59.3108 132.08 59.4239 132.223 59.4911C132.364 59.5584 132.544 59.5889 132.757 59.5859C132.971 59.5828 133.221 59.5523 133.505 59.5003L134.362 59.3475C135.025 59.2252 135.598 59.2405 136.084 59.3934C136.569 59.5462 136.926 59.8885 137.161 60.4111C137.356 60.839 137.408 61.2669 137.323 61.6917C137.234 62.1165 137.03 62.5108 136.703 62.8745C136.376 63.2382 135.955 63.5346 135.44 63.7669C134.915 64.0023 134.414 64.1214 133.938 64.1153C133.465 64.1123 133.044 63.9992 132.681 63.7761C132.318 63.553 132.037 63.2321 131.842 62.8134L133.279 62.1685L133.282 62.1715Z" fill="var(--fill-0, white)"/>
<path id="Vector_9" d="M126.013 59.1304L128.454 66.5176L123.486 68.1649L123.062 66.8782L126.471 65.7474L125.888 63.9869L122.733 65.0322L122.308 63.7455L125.464 62.7002L124.881 60.9367L121.457 62.0706L121.033 60.7839L126.016 59.1335L126.013 59.1304Z" fill="var(--fill-0, white)"/>
<path id="Vector_10" d="M113.939 66.1875L111.293 63.1464L113.063 62.7552L115.669 65.8054L113.939 66.1875ZM117.274 61.8261L118.95 69.4241L115.956 70.0843C115.382 70.2096 114.87 70.2157 114.421 70.1026C113.969 69.9895 113.597 69.7694 113.301 69.4424C113.005 69.1154 112.804 68.7028 112.691 68.2016C112.581 67.6973 112.593 67.2388 112.73 66.8293C112.868 66.4197 113.121 66.0713 113.49 65.7871C113.859 65.5029 114.335 65.2981 114.918 65.1697L116.923 64.7265L117.207 66.0163L115.462 66.4014C115.156 66.4686 114.909 66.5664 114.726 66.6948C114.543 66.8232 114.418 66.9821 114.357 67.1746C114.293 67.3641 114.29 67.5842 114.345 67.8348C114.4 68.0885 114.497 68.2871 114.635 68.44C114.772 68.5897 114.955 68.6906 115.178 68.7334C115.4 68.7792 115.669 68.767 115.977 68.6997L117.058 68.4614L115.672 62.1776L117.277 61.8231L117.274 61.8261Z" fill="var(--fill-0, white)"/>
<path id="Vector_11" d="M107.533 71.5666L105.018 65.8971L104.948 65.9063L103.728 71.9883L101.918 72.1901L103.728 64.1642L105.83 63.9319L109.349 71.371L107.536 71.5727L107.533 71.5666Z" fill="var(--fill-0, white)"/>
<path id="Vector_12" d="M96.0285 72.3795L95.8515 64.6012L97.4933 64.5645L97.6703 72.3428L96.0285 72.3795Z" fill="var(--fill-0, white)"/>
<path id="Vector_13" d="M84.8897 71.9792L85.378 64.2162L86.7939 64.3048L89.8577 69.4058H89.9157L90.2239 64.5218L91.8626 64.6257L91.3744 72.3887L89.9371 72.297L86.8977 67.2022H86.8305L86.5223 72.08L84.8897 71.9761V71.9792Z" fill="var(--fill-0, white)"/>
<path id="Vector_14" d="M75.4644 68.0243C75.4827 68.2169 75.5285 68.3911 75.5986 68.5469C75.6688 68.7059 75.7604 68.8464 75.8794 68.9687C75.9984 69.091 76.1388 69.1949 76.3005 69.2774C76.4653 69.3599 76.6514 69.421 76.859 69.4577C77.2496 69.528 77.6096 69.4913 77.9392 69.3507C78.2688 69.2101 78.5495 68.9687 78.7784 68.6264C79.0103 68.2841 79.1721 67.8501 79.2667 67.3152C79.3613 66.7804 79.3613 66.3128 79.2667 65.9093C79.1721 65.5059 78.9951 65.1819 78.7326 64.9313C78.4702 64.6807 78.1406 64.5218 77.7348 64.4484C77.3686 64.3842 77.0451 64.3934 76.7613 64.4759C76.4775 64.5584 76.2456 64.7082 76.0655 64.9252C75.8855 65.1392 75.7634 65.4112 75.7054 65.7382L75.385 65.6312L77.3564 65.9857L77.1367 67.2052L73.9386 66.6306L74.1125 65.6648C74.2346 64.9924 74.4787 64.4393 74.8479 64.0083C75.2172 63.5774 75.6749 63.2748 76.2212 63.1036C76.7644 62.9325 77.3594 62.905 78.0003 63.0211C78.7174 63.1495 79.3186 63.4215 79.8038 63.8372C80.289 64.2528 80.6308 64.7816 80.8291 65.4234C81.0275 66.0652 81.0519 66.7896 80.9085 67.5964C80.7986 68.2169 80.6094 68.7548 80.3409 69.2102C80.0723 69.6655 79.7458 70.0323 79.3582 70.3135C78.9707 70.5947 78.5465 70.7841 78.0796 70.8819C77.6158 70.9828 77.1305 70.9859 76.624 70.8942C76.1906 70.8178 75.8 70.6802 75.4491 70.4877C75.0982 70.2951 74.7991 70.0567 74.5489 69.7756C74.2986 69.4944 74.1125 69.1796 73.9843 68.8312C73.8562 68.4827 73.8012 68.116 73.8165 67.7248L75.4583 68.0182L75.4644 68.0243Z" fill="var(--fill-0, white)"/>
<path id="Vector_15" d="M57.9621 62.6208L59.5246 63.1893C59.4788 63.4032 59.4727 63.6019 59.5032 63.7944C59.5337 63.9839 59.5978 64.1612 59.6954 64.3232C59.7931 64.4851 59.9213 64.6288 60.0769 64.7541C60.2356 64.8794 60.4187 64.9803 60.6262 65.0567C61.0046 65.1942 61.3677 65.2217 61.7156 65.1361C62.0635 65.0506 62.3809 64.858 62.6647 64.5585C62.9485 64.259 63.1834 63.8556 63.3665 63.3482C63.5557 62.8256 63.6381 62.361 63.6107 61.9484C63.5832 61.5358 63.4642 61.1904 63.2475 60.9062C63.0309 60.622 62.741 60.4142 62.3717 60.2797C62.1642 60.2033 61.9628 60.1605 61.7675 60.1513C61.5691 60.1421 61.383 60.1635 61.209 60.2216C61.0321 60.2766 60.8703 60.3652 60.7238 60.4844C60.5774 60.6036 60.4492 60.7534 60.3454 60.9368L58.7861 60.3622C58.9478 60.0413 59.1645 59.754 59.4391 59.5034C59.7138 59.2497 60.0281 59.051 60.3851 58.9074C60.7422 58.7607 61.1328 58.6843 61.5569 58.6782C61.9811 58.6721 62.4266 58.7546 62.8935 58.9257C63.5435 59.1641 64.0715 59.5217 64.4773 60.0046C64.8832 60.4875 65.1304 61.0621 65.225 61.7284C65.3165 62.3946 65.2189 63.1251 64.932 63.9197C64.6421 64.7174 64.2454 65.3409 63.7449 65.7902C63.2445 66.2395 62.6799 66.5176 62.0605 66.6276C61.441 66.7377 60.8093 66.6704 60.1685 66.4381C59.7443 66.2853 59.375 66.0806 59.0546 65.8299C58.7342 65.5793 58.4779 65.289 58.2795 64.9589C58.0811 64.6288 57.953 64.2682 57.895 63.877C57.837 63.4827 57.8614 63.067 57.9652 62.6239L57.9621 62.6208Z" fill="var(--fill-0, white)"/>
<path id="Vector_16" d="M55.1582 55.8236L56.7329 56.609L50.8677 62.3732L48.9726 61.4288L50.0437 53.2685L51.6184 54.054L50.6846 60.2949L50.7395 60.3224L55.1582 55.8236ZM53.8918 58.6109L50.1719 56.7527L50.7456 55.6035L54.4655 57.4617L53.8918 58.6109Z" fill="var(--fill-0, white)"/>
<path id="Vector_17" d="M47.0015 51.4653L42.8299 58.0272L41.4445 57.1439L44.8898 51.7251L42.0792 49.9341L42.8055 48.791L46.9984 51.4653H47.0015Z" fill="var(--fill-0, white)"/>
<path id="Vector_18" d="M33.796 51.832L38.462 45.6124L39.7742 46.5996L35.1082 52.8192L33.796 51.832Z" fill="var(--fill-0, white)"/>
<path id="Vector_19" d="M35.317 43.1246L30.1781 48.9591L26.3209 45.5513L27.218 44.5335L29.8424 46.8533L31.0661 45.4627L28.6981 43.3691L29.5952 42.3514L31.9633 44.4449L34.0872 42.0366L35.3201 43.1246H35.317Z" fill="var(--fill-0, white)"/>
<path id="Vector_20" d="M21.1046 34.5089C21.7302 33.9343 22.3679 33.5675 23.024 33.4025C23.6771 33.2374 24.3057 33.2527 24.9069 33.4453C25.5081 33.6409 26.0421 33.9923 26.5029 34.4966C26.9698 35.007 27.2719 35.5694 27.4123 36.1868C27.5526 36.8041 27.5099 37.4307 27.2871 38.0695C27.0644 38.7052 26.6402 39.3103 26.0177 39.8818C25.3921 40.4534 24.7543 40.8232 24.1013 40.9913C23.4482 41.1594 22.8196 41.1441 22.2184 40.9485C21.6172 40.7559 21.0832 40.4014 20.6163 39.891C20.1525 39.3837 19.8504 38.8213 19.71 38.207C19.5696 37.5896 19.6093 36.96 19.832 36.3243C20.0548 35.6855 20.479 35.0804 21.1015 34.5089H21.1046ZM22.2306 35.7375C21.8248 36.1073 21.541 36.4832 21.3731 36.8561C21.2053 37.229 21.1503 37.5957 21.2053 37.9441C21.2602 38.2926 21.425 38.6165 21.6905 38.9099C21.959 39.2034 22.2642 39.3928 22.609 39.4815C22.9539 39.5671 23.317 39.5457 23.7076 39.4112C24.0982 39.2767 24.4919 39.023 24.8977 38.6532C25.3036 38.2834 25.5874 37.9075 25.7552 37.5346C25.9231 37.1587 25.978 36.795 25.9231 36.4466C25.8681 36.0951 25.7034 35.7742 25.4379 35.4808C25.1693 35.1874 24.8642 34.9979 24.5193 34.9092C24.1745 34.8206 23.8114 34.8451 23.4207 34.9795C23.0301 35.114 22.6365 35.3677 22.2306 35.7375Z" fill="var(--fill-0, white)"/>
<path id="Vector_21" d="M21.5894 28.9006L15.3152 33.4881L13.5087 31.0094C13.1638 30.5357 12.9502 30.0681 12.8739 29.6097C12.7976 29.1512 12.8495 28.7203 13.0265 28.3168C13.2035 27.9165 13.5026 27.5619 13.9145 27.2594C14.3326 26.9537 14.7537 26.7826 15.184 26.7428C15.6143 26.7031 16.0324 26.7979 16.4413 27.021C16.8502 27.2441 17.2286 27.5986 17.5795 28.0815L18.788 29.7411L17.723 30.5204L16.6701 29.0748C16.484 28.8211 16.2978 28.6347 16.1056 28.5186C15.9133 28.4024 15.718 28.3535 15.5197 28.3719C15.3213 28.3902 15.1169 28.4758 14.9124 28.6255C14.7049 28.7783 14.5584 28.9464 14.476 29.1359C14.3936 29.3254 14.3753 29.5271 14.4242 29.7533C14.473 29.9764 14.5889 30.2148 14.7751 30.4715L15.4281 31.367L20.6159 27.5711L21.5833 28.9006H21.5894ZM16.2612 27.5955L17.9793 23.9463L19.0474 25.4133L17.3049 29.029L16.2612 27.5955Z" fill="var(--fill-0, white)"/>
<path id="Vector_22" d="M6.10933 19.258L12.8412 15.3765L13.5492 16.6082L10.998 21.9842L11.0255 22.0331L15.2642 19.5911L16.082 21.0154L9.35015 24.8969L8.62996 23.6469L11.1933 18.2953L11.1598 18.2372L6.92411 20.6761L6.10933 19.258Z" fill="var(--fill-0, white)"/>
<path id="Vector_23" d="M3.36636 13.5732L10.4125 10.2968L11.1053 11.7883L4.05907 15.0646L3.36636 13.5732Z" fill="var(--fill-0, white)"/>
<path id="Vector_24" d="M8.33702 5.38521L8.93514 7.04172L0.71713 7.15481L0 5.16209L6.39924 0L6.99736 1.65651L2.02017 5.5258L2.04153 5.58387L8.34007 5.38521H8.33702ZM5.50207 6.5252L4.09222 2.61008L5.29761 2.17609L6.70746 6.09121L5.50207 6.5252Z" fill="var(--fill-0, white)"/>
</g>
</svg>
