<svg preserveAspectRatio="none" width="100%" height="100%" overflow="visible" style="display: block;" viewBox="0 0 200.002 88.9814" fill="none" xmlns="http://www.w3.org/2000/svg">
<g id="Group">
<path id="Vector" d="M8.74594 88.4648L0 86.9336L0.60422 83.4769C0.720182 82.8137 0.946002 82.2697 1.27863 81.8449C1.61125 81.42 2.02322 81.1266 2.51148 80.9555C2.99974 80.7874 3.53377 80.7537 4.11663 80.8546C4.69644 80.9555 5.18775 81.1725 5.58751 81.4995C5.98727 81.8296 6.27108 82.2513 6.43586 82.7709C6.60065 83.2874 6.62506 83.8834 6.50605 84.5558L6.12155 86.7594L4.63846 86.4996L4.97109 84.5955C5.03212 84.2379 5.02296 83.9354 4.94057 83.6786C4.85818 83.425 4.71475 83.2202 4.51639 83.0674C4.31499 82.9146 4.07086 82.8106 3.78401 82.7617C3.4941 82.7098 3.22861 82.7251 2.99059 82.8015C2.75256 82.8779 2.5542 83.0246 2.39247 83.2355C2.23073 83.4494 2.11782 83.7336 2.05679 84.0943L1.84013 85.3443L9.07246 86.6127L8.74899 88.4648H8.74594Z" fill="var(--fill-0, white)"/>
<path id="Vector_2" d="M10.8697 77.8136L2.36787 75.2554L3.37491 71.8966C3.56716 71.2547 3.84791 70.7382 4.21105 70.3501C4.57724 69.9619 5.00447 69.7113 5.49273 69.5982C5.98099 69.4851 6.50586 69.5126 7.06736 69.6807C7.63191 69.8519 8.0805 70.1178 8.41313 70.4846C8.74575 70.8513 8.95021 71.2975 9.0265 71.8232C9.10279 72.3489 9.04481 72.9388 8.84951 73.5928L8.1751 75.8423L6.73168 75.4083L7.32065 73.4492C7.4244 73.1069 7.46102 72.8073 7.43661 72.5506C7.4122 72.2939 7.32065 72.083 7.16501 71.9149C7.00938 71.7468 6.79272 71.6184 6.51502 71.5359C6.23122 71.4503 5.97794 71.4351 5.74906 71.4901C5.52019 71.5451 5.32184 71.6704 5.154 71.8691C4.98311 72.0677 4.84884 72.3397 4.74203 72.6851L4.37889 73.8984L11.4098 76.0165L10.8697 77.8166V77.8136ZM8.38261 72.0494L12.8868 71.0989L12.2917 73.0855L7.8028 73.9901L8.38566 72.0494H8.38261Z" fill="var(--fill-0, white)"/>
<path id="Vector_3" d="M13.5127 58.1249C14.3976 58.5191 15.0751 59.0234 15.545 59.6347C16.015 60.2459 16.2866 60.9122 16.3568 61.6335C16.4269 62.3548 16.3018 63.073 15.9845 63.7882C15.664 64.5095 15.2124 65.0841 14.6295 65.512C14.0467 65.9398 13.3723 66.1813 12.6033 66.2363C11.8343 66.2913 11.0103 66.1232 10.1284 65.729C9.24344 65.3347 8.56598 64.8304 8.09298 64.2222C7.61998 63.6109 7.34838 62.9477 7.2782 62.2295C7.20801 61.5113 7.33312 60.79 7.65354 60.0687C7.97091 59.3535 8.42255 58.7789 9.00541 58.351C9.58827 57.9231 10.2627 57.6786 11.0317 57.6206C11.8007 57.5625 12.6277 57.7306 13.5127 58.1279V58.1249ZM12.7375 59.867C12.1638 59.6102 11.6451 59.4819 11.1751 59.4758C10.7052 59.4696 10.3023 59.5766 9.96057 59.7967C9.61879 60.0167 9.35635 60.3315 9.17325 60.7472C8.9871 61.1628 8.92912 61.5693 8.9932 61.9697C9.05729 62.3701 9.24954 62.7429 9.56691 63.0883C9.88428 63.4337 10.3298 63.7362 10.9035 63.9899C11.4772 64.2466 11.996 64.375 12.4659 64.3811C12.9359 64.3872 13.3387 64.2803 13.6805 64.0602C14.0223 63.8402 14.2847 63.5254 14.4678 63.1097C14.654 62.694 14.7119 62.2876 14.6479 61.8872C14.5838 61.4868 14.3915 61.1139 14.0741 60.7686C13.7568 60.4232 13.3112 60.1206 12.7375 59.867Z" fill="var(--fill-0, white)"/>
<path id="Vector_4" d="M14.913 46.8012L15.8956 45.1997L20.8057 48.2255C21.358 48.5647 21.7578 48.9926 22.011 49.5122C22.2643 50.0317 22.3589 50.5941 22.3009 51.2084C22.243 51.8197 22.0202 52.4401 21.6357 53.0667C21.2512 53.6963 20.7965 54.173 20.2777 54.5031C19.7589 54.8332 19.2127 55.0013 18.639 55.0074C18.0653 55.0135 17.5008 54.8485 16.9515 54.5092L12.0414 51.4835L13.024 49.882L17.7968 52.8222C18.0836 52.9994 18.3796 53.0942 18.6817 53.1033C18.9838 53.1156 19.2707 53.0422 19.5392 52.8894C19.8108 52.7366 20.0397 52.5074 20.2289 52.1987C20.4181 51.8869 20.5219 51.5782 20.5341 51.2696C20.5463 50.9609 20.4822 50.6736 20.3357 50.4077C20.1892 50.1418 19.9726 49.9217 19.6857 49.7445L14.9099 46.8043L14.913 46.8012Z" fill="var(--fill-0, white)"/>
<path id="Vector_5" d="M28.0175 43.7511L26.04 46.2053L19.1312 40.6215L21.1239 38.1489C21.6854 37.4521 22.3048 36.9661 22.9853 36.6849C23.6659 36.4068 24.3738 36.3365 25.1062 36.4832C25.8386 36.6269 26.5649 36.9906 27.282 37.5713C28.0022 38.152 28.5118 38.7877 28.8109 39.4784C29.1099 40.1691 29.1923 40.8782 29.0611 41.6056C28.9299 42.3361 28.582 43.0512 28.0144 43.7542L28.0175 43.7511ZM25.9668 43.7297L26.7144 42.8006C27.0623 42.3666 27.279 41.9418 27.3644 41.52C27.4499 41.0983 27.3888 40.6826 27.1844 40.27C26.9799 39.8574 26.6198 39.4417 26.1041 39.0261C25.5945 38.6135 25.1154 38.3506 24.6729 38.2406C24.2274 38.1275 23.8123 38.1581 23.4217 38.3292C23.0311 38.5004 22.6619 38.803 22.314 39.2339L21.5633 40.1661L25.9698 43.7267L25.9668 43.7297Z" fill="var(--fill-0, white)"/>
<path id="Vector_6" d="M33.7045 37.1984L27.4914 30.8474L28.8311 29.5332L33.9608 34.7778L36.6798 32.1097L37.7632 33.2161L33.7045 37.1984Z" fill="var(--fill-0, white)"/>
<path id="Vector_7" d="M34.1265 24.5086L35.7744 23.2005L39.7354 24.9395L39.8025 24.8845L39.0121 20.624L40.66 19.3159L41.6884 25.835L43.6384 28.2984L42.1767 29.4567L40.2267 26.9934L34.1234 24.5055L34.1265 24.5086Z" fill="var(--fill-0, white)"/>
<path id="Vector_8" d="M55.6582 13.1941C55.4629 12.9007 55.2066 12.7296 54.8831 12.6807C54.5596 12.6318 54.1995 12.7143 53.7998 12.9252C53.5282 13.0688 53.3207 13.2277 53.1742 13.4019C53.0277 13.5762 52.9392 13.7565 52.9117 13.9399C52.8843 14.1232 52.9117 14.3005 53.0033 14.4717C53.0735 14.6153 53.1681 14.7223 53.2871 14.7926C53.4092 14.8629 53.5465 14.9056 53.6991 14.9209C53.8547 14.9362 54.0225 14.9301 54.1995 14.9056C54.3796 14.8812 54.5657 14.8415 54.758 14.7895L55.5514 14.5847C55.9328 14.4808 56.3021 14.4166 56.6561 14.3922C57.0101 14.3677 57.3396 14.3952 57.6479 14.4717C57.9561 14.5481 58.2338 14.6825 58.484 14.8751C58.7342 15.0676 58.9478 15.3274 59.1218 15.6514C59.372 16.1343 59.4697 16.6141 59.4147 17.094C59.3598 17.5738 59.1554 18.0292 58.8014 18.4632C58.4504 18.8972 57.953 19.2823 57.3152 19.6185C56.6805 19.9547 56.0793 20.1472 55.5087 20.2022C54.938 20.2542 54.4192 20.1594 53.9554 19.9149C53.4916 19.6704 53.104 19.27 52.7927 18.7107L54.3979 17.8611C54.5535 18.1148 54.7458 18.2951 54.9716 18.399C55.1974 18.5029 55.4476 18.5396 55.7192 18.509C55.9908 18.4785 56.2716 18.3868 56.5584 18.234C56.8392 18.0842 57.0619 17.9161 57.2267 17.7236C57.3915 17.531 57.4922 17.3324 57.5319 17.1245C57.5716 16.9167 57.538 16.7211 57.4403 16.5316C57.3488 16.3543 57.2176 16.2351 57.0497 16.1679C56.8819 16.1007 56.6774 16.0793 56.4364 16.1007C56.1953 16.1221 55.9115 16.171 55.588 16.2535L54.6207 16.4888C53.873 16.6783 53.2169 16.7028 52.6554 16.5622C52.0909 16.4216 51.6575 16.0609 51.3524 15.4772C51.0991 15.0034 51.0075 14.5206 51.0777 14.0285C51.1479 13.5364 51.3554 13.0719 51.7003 12.6348C52.0451 12.1978 52.5028 11.8279 53.0765 11.5254C53.6594 11.2167 54.2209 11.0486 54.761 11.018C55.3012 10.9875 55.7864 11.0853 56.2166 11.3145C56.6469 11.5407 56.9887 11.8891 57.245 12.3536L55.6552 13.1941H55.6582Z" fill="var(--fill-0, white)"/>
<path id="Vector_9" d="M64.155 16.18L60.9508 7.88825L66.5291 5.72744L67.0876 7.17307L63.2578 8.65538L64.0207 10.6298L67.5606 9.25747L68.119 10.7031L64.5792 12.0754L65.3451 14.0559L69.1902 12.5675L69.7486 14.0131L64.155 16.18Z" fill="var(--fill-0, white)"/>
<path id="Vector_10" d="M73.9593 12.644L71.7408 4.03436L75.1312 3.1572C75.7812 2.98911 76.364 2.9616 76.8858 3.07468C77.4046 3.18777 77.841 3.4231 78.1919 3.78069C78.5429 4.14133 78.7901 4.60283 78.9365 5.17436C79.083 5.74589 79.0861 6.26852 78.9457 6.74225C78.8053 7.21598 78.5307 7.62246 78.1218 7.96171C77.7128 8.30096 77.1758 8.55464 76.5166 8.72579L74.2462 9.3126L73.8678 7.84863L75.8452 7.33823C76.1931 7.2496 76.4678 7.12734 76.6722 6.97147C76.8767 6.8156 77.011 6.62917 77.0751 6.40911C77.1391 6.18906 77.1361 5.93844 77.0628 5.6542C76.9896 5.36691 76.8706 5.14074 76.7058 4.9757C76.541 4.80761 76.3305 4.70369 76.0741 4.6609C75.8178 4.61812 75.5126 4.64257 75.1647 4.7312L73.938 5.04906L75.772 12.1702L73.9532 12.6409L73.9593 12.644ZM77.5908 7.52772L80.737 10.8927L78.7321 11.4123L75.6316 8.03507L77.5908 7.52772Z" fill="var(--fill-0, white)"/>
<path id="Vector_11" d="M84.7988 1.16451L87.8016 7.58275L87.8839 7.57052L89.1412 0.592978L91.2041 0.324023L89.3213 9.53878L86.9227 9.85358L82.7328 1.43652L84.7988 1.16451Z" fill="var(--fill-0, white)"/>
<path id="Vector_12" d="M98.0118 0.036731L98.2834 8.92447L96.4067 8.98254L96.1351 0.0948008L98.0118 0.036731Z" fill="var(--fill-0, white)"/>
<path id="Vector_13" d="M110.813 0.501332L110.215 9.37379L108.597 9.26376L105.119 3.4201H105.055L104.679 8.99786L102.805 8.87255L103.404 9.76563e-05L105.048 0.110125L108.497 5.94767L108.573 5.95378L108.948 0.376023L110.813 0.501332Z" fill="var(--fill-0, white)"/>
<path id="Vector_14" d="M121.601 5.20796C121.583 4.98791 121.537 4.78925 121.461 4.60587C121.384 4.42555 121.281 4.26051 121.149 4.11992C121.018 3.97627 120.859 3.85707 120.673 3.75622C120.487 3.65536 120.277 3.58506 120.039 3.53616C119.593 3.44753 119.181 3.47809 118.8 3.63396C118.418 3.78678 118.095 4.05573 117.823 4.44083C117.552 4.82592 117.356 5.32104 117.234 5.92619C117.112 6.5344 117.103 7.06925 117.201 7.53075C117.298 7.99225 117.497 8.37124 117.79 8.66159C118.083 8.95193 118.458 9.14448 118.916 9.23617C119.334 9.31869 119.703 9.31563 120.029 9.227C120.356 9.13837 120.625 8.97333 120.835 8.73188C121.046 8.49043 121.189 8.1848 121.265 7.81193L121.629 7.94335L119.386 7.49408L119.663 6.10651L123.307 6.83697L123.087 7.93418C122.935 8.70132 122.642 9.3248 122.208 9.81076C121.775 10.2937 121.247 10.6298 120.621 10.8102C119.996 10.9935 119.315 11.0119 118.586 10.8652C117.771 10.7001 117.088 10.3762 116.545 9.89022C116.001 9.40427 115.62 8.79301 115.409 8.05644C115.199 7.31987 115.187 6.49161 115.37 5.57166C115.51 4.86565 115.739 4.25439 116.056 3.74093C116.374 3.22747 116.755 2.81487 117.204 2.50313C117.652 2.19139 118.144 1.98356 118.678 1.8827C119.212 1.77879 119.764 1.78795 120.341 1.90104C120.835 1.99884 121.278 2.16388 121.674 2.3931C122.071 2.62233 122.407 2.90045 122.684 3.22747C122.962 3.5545 123.17 3.9182 123.307 4.31858C123.444 4.71895 123.499 5.14072 123.475 5.58389L121.604 5.20796H121.601Z" fill="var(--fill-0, white)"/>
<path id="Vector_15" d="M141.445 12.1153L139.691 11.3879C139.752 11.1465 139.77 10.9172 139.746 10.7002C139.721 10.4802 139.657 10.2785 139.553 10.0859C139.45 9.89642 139.312 9.72527 139.138 9.57551C138.964 9.42575 138.76 9.30044 138.525 9.20264C138.101 9.02538 137.686 8.97953 137.286 9.05594C136.883 9.1354 136.514 9.33712 136.175 9.6672C135.836 9.99728 135.55 10.4435 135.315 11.012C135.074 11.5988 134.958 12.1245 134.967 12.5982C134.976 13.0689 135.098 13.4723 135.327 13.8054C135.559 14.1386 135.879 14.3922 136.294 14.5634C136.526 14.6581 136.755 14.7193 136.981 14.7407C137.204 14.7621 137.42 14.7437 137.625 14.6887C137.829 14.6337 138.018 14.542 138.192 14.4136C138.366 14.2853 138.519 14.1202 138.65 13.9185L140.402 14.6551C140.2 15.0127 139.938 15.3305 139.614 15.6025C139.291 15.8746 138.919 16.0885 138.504 16.2352C138.085 16.385 137.637 16.4491 137.155 16.4369C136.673 16.4216 136.166 16.3055 135.641 16.0885C134.909 15.7859 134.326 15.3489 133.886 14.7773C133.447 14.2058 133.194 13.5395 133.121 12.7724C133.047 12.0053 133.197 11.177 133.566 10.2846C133.935 9.38908 134.421 8.6953 135.016 8.20934C135.611 7.72033 136.267 7.42998 136.981 7.3383C137.695 7.24661 138.412 7.35052 139.132 7.65004C139.608 7.8487 140.02 8.09626 140.371 8.39883C140.722 8.70141 141.003 9.04677 141.213 9.43186C141.424 9.81696 141.552 10.2357 141.598 10.688C141.644 11.1403 141.598 11.6141 141.458 12.1153H141.445Z" fill="var(--fill-0, white)"/>
<path id="Vector_16" d="M144.238 20.0464L142.495 19.0408L149.578 12.8671L151.675 14.0743L149.899 23.3105L148.156 22.305L149.645 15.248L149.584 15.2143L144.238 20.0464ZM145.87 16.9534L149.987 19.3281L149.258 20.5995L145.141 18.2248L145.87 16.9534Z" fill="var(--fill-0, white)"/>
<path id="Vector_17" d="M153.203 25.5966L158.51 18.4693L160.015 19.5941L155.632 25.4774L158.684 27.7574L157.759 28.9983L153.203 25.5966Z" fill="var(--fill-0, white)"/>
<path id="Vector_18" d="M168.302 26.3821L162.388 33.0143L160.987 31.7612L166.901 25.129L168.302 26.3821Z" fill="var(--fill-0, white)"/>
<path id="Vector_19" d="M165.7 36.1348L172.178 30.0558L176.197 34.353L175.068 35.4135L172.334 32.4886L170.79 33.9373L173.259 36.578L172.13 37.6385L169.661 34.9979L166.985 37.5071L165.703 36.1348H165.7Z" fill="var(--fill-0, white)"/>
<path id="Vector_20" d="M180.836 47.6081C180.054 48.1796 179.282 48.5189 178.516 48.6258C177.753 48.7328 177.042 48.635 176.383 48.3385C175.724 48.0421 175.163 47.5745 174.702 46.9418C174.235 46.303 173.963 45.6245 173.884 44.9063C173.805 44.1881 173.93 43.479 174.262 42.7852C174.595 42.0914 175.153 41.4557 175.932 40.8873C176.713 40.3157 177.485 39.9765 178.248 39.8695C179.011 39.7625 179.722 39.8573 180.381 40.1537C181.04 40.4502 181.601 40.9178 182.065 41.5535C182.526 42.1862 182.801 42.8616 182.883 43.5829C182.966 44.3042 182.84 45.0102 182.508 45.7071C182.175 46.4039 181.617 47.0396 180.836 47.6111V47.6081ZM179.716 46.0708C180.222 45.7009 180.594 45.3128 180.832 44.9063C181.07 44.4998 181.18 44.0964 181.159 43.6899C181.141 43.2865 180.994 42.8983 180.729 42.5316C180.46 42.1648 180.137 41.9111 179.758 41.7675C179.38 41.6269 178.962 41.6055 178.504 41.7094C178.046 41.8133 177.564 42.0517 177.058 42.4215C176.551 42.7913 176.179 43.1795 175.941 43.586C175.703 43.9925 175.593 44.3959 175.614 44.8024C175.632 45.2089 175.779 45.594 176.044 45.9607C176.313 46.3275 176.636 46.5812 177.015 46.7248C177.393 46.8654 177.811 46.8868 178.269 46.7829C178.727 46.679 179.209 46.4406 179.716 46.0708Z" fill="var(--fill-0, white)"/>
<path id="Vector_21" d="M179.527 53.9072L187.299 49.6101L188.993 52.6816C189.316 53.2685 189.49 53.8308 189.511 54.3626C189.533 54.8944 189.414 55.3742 189.154 55.8052C188.895 56.2361 188.507 56.5907 187.995 56.8749C187.479 57.1591 186.973 57.2936 186.481 57.2753C185.99 57.2569 185.526 57.0919 185.096 56.7801C184.665 56.4684 184.287 56.013 183.958 55.414L182.825 53.3571L184.147 52.6266L185.132 54.4176C185.306 54.7324 185.492 54.9678 185.694 55.1297C185.895 55.2887 186.109 55.3742 186.338 55.3804C186.567 55.3865 186.808 55.3223 187.064 55.1786C187.323 55.035 187.513 54.8638 187.632 54.6652C187.751 54.4635 187.8 54.2342 187.778 53.9745C187.757 53.7147 187.656 53.4274 187.482 53.1095L186.872 52.0001L180.442 55.5546L179.536 53.9103L179.527 53.9072ZM185.38 56.1567L182.908 60.0473L181.907 58.2319L184.4 54.384L185.38 56.1597V56.1567Z" fill="var(--fill-0, white)"/>
<path id="Vector_22" d="M195.593 67.2204L187.351 70.5212L186.75 69.0145L190.503 63.345L190.479 63.2839L185.291 65.3591L184.595 63.614L192.838 60.3132L193.448 61.8444L189.685 67.4833L189.713 67.5566L194.898 65.4814L195.59 67.2204H195.593Z" fill="var(--fill-0, white)"/>
<path id="Vector_23" d="M197.736 74.1948L189.204 76.6521L188.685 74.8458L197.217 72.3886L197.736 74.1948Z" fill="var(--fill-0, white)"/>
<path id="Vector_24" d="M190.646 82.5448L190.289 80.5612L199.572 81.9977L200.002 84.3816L191.812 88.9814L191.455 86.9978L197.799 83.5839L197.787 83.5167L190.652 82.5448H190.646ZM194.058 81.799L194.906 86.4813L193.466 86.7441L192.621 82.0619L194.061 81.799H194.058Z" fill="var(--fill-0, white)"/>
</g>
</svg>
