<svg preserveAspectRatio="none" width="100%" height="100%" overflow="visible" style="display: block;" viewBox="0 0 76 76" fill="none" xmlns="http://www.w3.org/2000/svg">
<g id="Layer_1" clip-path="url(#clip0_0_73)">
<path id="Vector" d="M10.6752 8.97738C10.6752 7.19464 10.6752 5.62413 10.6752 4.03239C10.6752 3.35325 10.6752 2.69534 10.6752 2.0162C10.6752 0.742809 11.2483 0.0212231 12.267 0.0212231C13.2857 0.0212231 13.8799 0.721586 13.8799 1.99497C13.8799 5.09355 13.8799 8.19212 13.8799 11.2907C13.8799 11.8849 14.0073 12.3094 14.4529 12.7339C15.5141 13.7101 16.3206 14.8986 17.0846 16.2781C17.9123 14.7501 18.9098 13.4979 20.0771 12.3731C20.2893 12.1608 20.2044 11.8637 20.2044 11.5878C20.2044 8.36191 20.2044 5.136 20.2044 1.91008C20.2044 0.848925 20.6925 0.169785 21.5415 0.0424462C22.6238 -0.106116 23.3879 0.615471 23.4091 1.80397C23.4091 3.88383 23.4091 5.9637 23.4091 8.06479C23.4091 8.29824 23.4091 8.55292 23.4091 8.78637C23.7062 8.87126 23.7911 8.63781 23.9185 8.51047C24.6613 7.78889 25.3829 7.04608 26.1257 6.30327C27.3354 5.11477 28.057 3.71405 28.1206 1.97375C28.1631 0.721586 28.7149 0.0848925 29.6275 0.0212231C30.4976 -0.0424462 31.2192 0.573024 31.3253 1.44317C31.3466 1.6554 31.3253 1.88886 31.3253 2.12231C31.3253 16.8936 31.3041 31.6437 31.3253 46.415C31.3253 50.9567 29.7973 54.7769 26.5501 57.9391C24.5127 59.9341 22.5177 61.9927 20.5015 64.0089C19.313 65.1974 18.6339 66.5981 18.6339 68.3172C18.6339 68.7841 18.7188 68.9115 19.2069 68.8478C23.8972 68.1262 28.6088 67.7442 33.3415 67.5956C34.4027 67.5532 35.0818 67.9352 35.2941 68.6992C35.6124 69.7816 34.8696 70.7367 33.6174 70.7791C31.7286 70.8216 29.8609 70.9277 27.9721 71.0762C19.313 71.7129 10.845 73.3047 2.52555 75.7878C2.48311 75.7878 2.44066 75.8302 2.37699 75.8302C1.16727 76.191 0.275901 75.8302 9.21781e-09 74.8752C-0.275901 73.8989 0.233454 73.1349 1.44317 72.7741C5.75147 71.4795 10.1234 70.3759 14.5803 69.6118C15.1958 69.5057 15.3443 69.2723 15.3655 68.6144C15.4717 66.5345 14.5803 64.964 13.1159 63.5632C11.1209 61.6319 9.18961 59.6157 7.23709 57.6632C4.15973 54.6071 2.65289 50.9143 2.65289 46.5848C2.65289 31.6437 2.65289 16.7238 2.65289 1.78274C2.65289 0.870148 3.03491 0.297124 3.77772 0.0848925C4.47808 -0.106116 5.22089 0.148562 5.6029 0.764032C5.83636 1.1036 5.87881 1.50684 5.87881 1.91008C5.90003 3.65038 6.64284 5.0511 7.85256 6.26082C8.7227 7.10975 9.57163 7.97989 10.5903 9.01983L10.6752 8.97738ZM15.3019 61.165C15.4717 60.974 15.408 60.8042 15.408 60.6345C15.408 57.9391 15.3443 55.2226 15.408 52.5272C15.4504 50.702 14.7713 49.2801 13.5191 48.0279C11.418 45.9268 9.31695 43.8045 7.23709 41.7034C6.81262 41.279 6.40938 40.8333 5.92125 40.3239C5.92125 42.807 5.83636 45.184 5.92125 47.561C6.04859 50.6171 7.30075 53.2064 9.46551 55.3499C10.6752 56.5384 11.8425 57.7481 13.031 58.9366C13.7738 59.6794 14.5166 60.4222 15.2806 61.1863L15.3019 61.165ZM5.98492 24.9372C5.98492 26.9746 5.94247 29.3728 5.98492 31.771C6.04859 34.6786 7.25831 37.1405 9.23206 39.1991C10.5267 40.5362 11.8425 41.852 13.1583 43.1678C13.8587 43.8894 14.5803 44.5898 15.3231 45.3114C15.4929 45.0355 15.408 44.802 15.408 44.5686C15.408 41.8732 15.3655 39.1567 15.408 36.4613C15.4292 34.8908 14.9199 33.575 13.8375 32.5138C11.1846 29.9034 8.48925 27.3566 5.9637 24.9584L5.98492 24.9372ZM18.6763 61.3136C18.8461 61.165 18.9098 61.1226 18.9735 61.0589C20.9897 59.0427 23.0059 57.0265 24.9796 54.9891C26.3591 53.5672 27.3142 51.8481 27.7598 49.9168C28.4814 46.8182 27.9721 43.6772 28.1843 40.3664C27.5901 40.9818 27.1656 41.4488 26.7199 41.8944C24.6188 44.0168 22.539 46.1178 20.4379 48.2189C19.3767 49.2801 18.6976 50.5323 18.6763 52.0391C18.6339 55.0952 18.6763 58.1301 18.6763 61.3348V61.3136ZM28.1631 24.9159C25.5951 27.3778 22.921 29.9246 20.2681 32.5138C19.1857 33.575 18.6763 34.9333 18.6763 36.4825C18.6763 39.2203 18.6763 41.9369 18.6763 44.6747C18.6763 44.8869 18.6763 45.0991 18.6763 45.375C18.8249 45.2901 18.8886 45.2689 18.9523 45.2265C21.0533 43.1042 23.1757 41.0243 25.2131 38.8595C26.6562 37.3315 27.5901 35.4851 27.9084 33.4052C28.3541 30.4976 28.0994 27.5901 28.1631 24.9372V24.9159ZM18.74 29.5638C21.0958 27.1231 23.4516 24.9584 25.5739 22.5602C26.826 21.117 27.5688 19.3979 27.9509 17.5091C28.1631 16.4267 28.1206 15.3443 28.1419 14.2619C28.2055 12.5004 28.1419 10.7177 28.1419 8.89249C27.9933 8.97738 27.9296 8.9986 27.8872 9.04105C25.7437 11.1846 23.5789 13.2857 21.499 15.4717C20.0346 16.9785 19.2069 18.8461 18.8037 20.926C18.5066 22.4328 18.8037 23.9397 18.74 25.4465C18.6976 26.7411 18.74 28.057 18.74 29.5638ZM5.98492 8.63781C5.98492 11.1846 5.94247 13.4767 5.98492 15.79C6.04859 18.6976 7.19464 21.1807 9.18961 23.2605C11.0997 25.2343 13.0522 27.1656 15.0047 29.1181C15.0896 29.2242 15.1745 29.3728 15.3868 29.3516C15.3868 27.2505 15.3443 25.1494 15.3868 23.0695C15.4717 19.6314 14.1346 16.8299 11.6727 14.4742C10.5479 13.3918 9.44429 12.267 8.36191 11.1634C7.57666 10.3781 6.81262 9.57163 5.94247 8.65903L5.98492 8.63781Z" fill="var(--fill-0, #2A9D8F)"/>
<path id="Vector_2" d="M55.1801 16.2781C55.9654 14.835 56.878 13.6252 57.9816 12.5853C58.2999 12.2882 58.2999 11.9486 58.2999 11.5666C58.2999 8.34069 58.2999 5.11477 58.2999 1.88886C58.2999 0.806479 58.8305 0.106116 59.7219 0.0212231C60.7618 -0.0848925 61.4834 0.636694 61.5046 1.82519C61.5046 3.90505 61.5046 5.98492 61.5046 8.08601C61.5046 8.31946 61.5046 8.57414 61.5046 8.8076C63.2449 7.0673 65.4946 5.77269 66.0676 3.14102C66.1949 2.568 66.1949 1.95253 66.2798 1.3795C66.4284 0.488132 67.0863 -0.0212231 67.9564 0.0424462C68.7841 0.0848925 69.4208 0.742809 69.4208 1.61296C69.4421 3.24714 69.4208 4.88132 69.4208 6.5155C69.4208 14.6227 69.4208 22.73 69.4208 30.8584C69.4208 31.0919 69.4208 31.3041 69.4208 31.5376C69.3784 32.4714 68.678 33.1505 67.7867 33.1293C66.9377 33.1081 66.2586 32.4502 66.2586 31.5376C66.2374 29.2455 66.2586 26.9746 66.2586 24.7037C66.1525 24.6188 66.0676 24.6825 66.0039 24.7462C63.9877 26.9746 61.8017 29.0332 59.7006 31.1768C58.9154 31.962 57.9391 32.0045 57.2812 31.3253C56.6233 30.6462 56.687 29.7336 57.451 28.9483C59.1913 27.1868 60.9528 25.4253 62.6931 23.6638C65.0276 21.3292 66.2586 18.5278 66.2161 15.1958C66.1949 13.1371 66.2161 11.0785 66.2161 8.9986C65.9827 8.91371 65.8766 9.18961 65.7492 9.31695C64.0726 10.9724 62.4596 12.6914 60.7406 14.3044C57.9179 16.9148 56.5596 20.0771 56.7506 23.9185C56.7718 24.4066 56.7718 24.9159 56.7506 25.4041C56.7082 26.3803 56.0715 27.0383 55.1801 27.0383C54.2463 27.0383 53.5884 26.4016 53.5459 25.3829C53.5035 23.8972 53.6308 22.4116 53.3761 20.926C53.0154 18.74 52.0603 16.8087 50.5323 15.2382C48.5161 13.1583 46.4362 11.1209 44.3775 9.06227C44.2927 8.97738 44.229 8.85004 44.0168 8.91371C43.9743 11.2907 44.0168 13.6889 44.0804 16.0659C44.1016 16.8936 44.2714 17.6789 44.5049 18.4853C45.0567 20.353 46.0117 21.9872 47.3912 23.3667C49.2801 25.2767 51.1689 27.1656 53.0578 29.0757C54.0553 30.0944 53.6945 31.5588 52.3999 31.8771C51.7844 32.0257 51.2751 31.7922 50.8506 31.3678C48.7071 29.203 46.5635 27.017 44.42 24.8523C44.3139 24.7462 44.2714 24.5764 44.0168 24.5976C44.0168 26.3379 44.0168 28.0994 44.0168 29.8397C44.0168 30.434 44.0168 31.0282 44.0168 31.6225C43.9743 32.4926 43.3164 33.1081 42.4887 33.1293C41.6398 33.1293 40.9394 32.4926 40.8757 31.6012C40.8757 31.4739 40.8757 31.3466 40.8757 31.2192C40.8757 21.3929 40.8757 11.5666 40.8757 1.7403C40.8757 0.806479 41.3002 0.233454 42.0854 0.0424462C42.8283 -0.127339 43.5498 0.191008 43.8894 0.870148C44.0592 1.18849 44.0804 1.52806 44.1016 1.88886C44.1229 3.60793 44.8445 4.98743 46.033 6.17593C46.9031 7.04608 47.7732 7.93745 48.6434 8.82882C48.9193 8.63781 48.792 8.38313 48.792 8.19213C48.792 6.09104 48.792 3.96872 48.792 1.86763C48.792 0.848925 49.2801 0.191008 50.0866 0.0636694C51.1902 -0.127339 51.9754 0.615471 51.9754 1.86763C51.9754 4.4993 52.0391 7.13097 51.9754 9.76264C51.933 11.2907 52.0815 12.5853 53.3549 13.6465C54.1402 14.3044 54.6071 15.3019 55.2013 16.2781H55.1801Z" fill="var(--fill-0, #2A9D8F)"/>
<path id="Vector_3" d="M34.721 55.3499C34.721 43.9106 43.9531 34.6998 55.3923 34.721C66.7892 34.721 76 43.9531 76 55.3499C76 66.7467 66.7255 76.0212 55.3287 76C43.9319 75.9788 34.7423 66.7467 34.7423 55.3499H34.721ZM72.8165 54.883C72.4133 44.9294 64.3273 37.48 54.4585 37.9045C44.9293 38.3077 37.5013 46.5423 37.9045 56.2413C38.2865 65.6007 46.5423 73.241 55.838 72.8378C65.6007 72.4133 73.1985 64.391 72.8165 54.9042V54.883Z" fill="var(--fill-0, #2A9D8F)"/>
<path id="Vector_4" d="M62.9875 51.9403C62.975 52.2529 62.8248 52.4905 62.612 52.703C61.7609 53.5408 60.9224 54.4036 60.0588 55.2413C59.8335 55.4539 59.8461 55.5789 60.0588 55.779C60.8974 56.5918 61.7234 57.4295 62.5494 58.2548C63.1377 58.8425 63.1377 59.3176 62.5494 59.9053C61.6608 60.7931 60.7722 61.6808 59.8836 62.5686C59.3079 63.1438 58.8323 63.1438 58.2691 62.5686C57.4431 61.7434 56.6045 60.9181 55.791 60.0803C55.5657 59.8553 55.4531 59.8178 55.2153 60.0803C54.4018 60.9306 53.5507 61.7684 52.7121 62.5936C52.174 63.1313 51.6859 63.1313 51.1602 62.5936C50.234 61.6808 49.3204 60.7556 48.3942 59.8303C47.8686 59.3051 47.8686 58.8174 48.3942 58.2798C49.2453 57.417 50.1089 56.5542 50.9725 55.7165C51.1477 55.5414 51.1477 55.4539 50.9725 55.2788C50.1214 54.4411 49.2703 53.5908 48.4318 52.7406C47.8561 52.1654 47.8561 51.7027 48.4318 51.1275C49.3329 50.2273 50.234 49.327 51.1352 48.4267C51.6984 47.864 52.1615 47.864 52.7247 48.4142C53.5507 49.227 54.3642 50.0397 55.1652 50.865C55.4155 51.1276 55.5532 51.1776 55.8285 50.8775C56.6045 50.0522 57.4305 49.252 58.2441 48.4517C58.8448 47.8515 59.3079 47.8515 59.8961 48.4392C60.7972 49.3395 61.6984 50.2398 62.5995 51.1275C62.8248 51.3526 62.9875 51.6027 63 51.9278L62.9875 51.9403ZM55.5031 57.5546C55.816 57.5421 56.0413 57.7046 56.2541 57.9172C57.1051 58.7674 57.9562 59.6052 58.7947 60.468C59.02 60.693 59.1327 60.6805 59.3329 60.468C59.6834 60.0803 60.0588 59.7052 60.4468 59.3551C60.6721 59.1551 60.6846 59.03 60.4468 58.8174C59.5957 57.9922 58.7697 57.1544 57.9312 56.3167C57.3805 55.7665 57.3805 55.2788 57.9312 54.7287C58.7822 53.8784 59.6208 53.0281 60.4718 52.1904C60.6596 52.0028 60.6846 51.9028 60.4718 51.7152C60.0588 51.3401 59.6708 50.9525 59.2954 50.5399C59.0951 50.3273 58.9825 50.3398 58.7822 50.5399C57.9687 51.3776 57.1302 52.2029 56.3041 53.0281C55.6783 53.6533 55.2403 53.6533 54.627 53.0281C53.7885 52.1904 52.9499 51.3651 52.1239 50.5149C51.9612 50.3398 51.8611 50.3148 51.6859 50.5149C51.3229 50.915 50.9349 51.3026 50.5344 51.6652C50.2966 51.8778 50.2591 52.0153 50.5219 52.2654C51.3479 53.0531 52.1364 53.8659 52.9499 54.6787C53.6007 55.3289 53.6008 55.754 52.9374 56.4167C52.1364 57.2169 51.3604 58.0172 50.5469 58.7924C50.2716 59.055 50.2966 59.1926 50.5594 59.4301C50.9474 59.7677 51.3104 60.1304 51.6483 60.518C51.8611 60.7681 51.9862 60.718 52.1865 60.518C53.025 59.6552 53.8761 58.8174 54.7272 57.9672C54.9399 57.7546 55.1777 57.5921 55.5031 57.6046V57.5546Z" fill="var(--fill-0, #2A9D8F)"/>
</g>
<defs>
<clipPath id="clip0_0_73">
<rect width="76" height="76" fill="white"/>
</clipPath>
</defs>
</svg>
