<svg preserveAspectRatio="none" width="100%" height="100%" overflow="visible" style="display: block;" viewBox="0 0 73 78" fill="none" xmlns="http://www.w3.org/2000/svg">
<g id="Layer_1" clip-path="url(#clip0_0_155)">
<path id="Vector" d="M19.7846 6.96946C19.7843 5.14144 19.7786 3.31313 19.7865 1.4851C19.7905 0.553788 20.246 0.00203598 20.9795 0.000872564C21.713 0 22.175 0.552915 22.1767 1.48191C22.183 4.96402 22.177 8.44613 22.1801 11.9282C22.1818 13.8735 23.3696 14.653 25.1116 13.8275C30.687 11.1848 36.5662 9.93647 42.6939 9.74945C49.426 9.54411 54.9997 12.1109 59.3545 17.232C65.1438 24.0403 67.7646 31.9696 66.8241 41.0123C66.1757 47.2476 64.3869 53.0909 60.7998 58.2437C55.6256 65.6768 48.4835 68.8355 39.6208 68.1406C34.6447 67.7506 30.1462 65.8679 25.754 63.6236C23.9024 62.6775 22.0462 61.7433 20.1009 60.9958C15.2898 59.1468 11.4147 62.9189 11.8207 67.7369C12.0577 70.5506 12.8909 73.1727 14.0235 75.7191C14.0821 75.8509 14.1517 75.9777 14.2074 76.1106C14.5455 76.9192 14.3573 77.5623 13.6935 77.8758C13.067 78.1716 12.4583 77.9363 12.0814 77.1978C11.4121 75.8864 10.8728 74.5156 10.4451 73.1046C9.65757 70.5082 9.17789 67.8736 9.57877 65.1378C10.2004 60.896 14.6066 56.5608 20.5181 58.5753C23.2802 59.5165 25.8077 60.9664 28.4197 62.2333C31.9804 63.9607 35.6337 65.3493 39.6071 65.6904C48.3541 66.4414 55.1173 63.0492 59.7177 55.459C63.4723 49.2644 65.1838 42.3997 64.488 35.1824C63.6716 26.7162 59.9735 19.6952 52.844 14.888C49.4411 12.5934 45.6054 11.9757 41.5815 12.2206C36.1619 12.5504 30.9594 13.7318 26.0247 16.0817C23.9315 17.0784 21.9291 16.6299 20.6565 14.9488C20.0624 14.1638 19.7826 13.2694 19.784 12.279C19.7866 10.5089 19.7848 8.73902 19.7843 6.96888L19.7846 6.96946Z" fill="var(--fill-0, #2A9D8F)"/>
<path id="Vector_2" d="M59.8607 32.6583C59.7845 36.8877 58.0834 40.7645 54.6565 43.8158C54.2156 44.2085 54.1674 44.4784 54.3641 45.0328C55.7883 49.0463 55.1367 52.7247 52.2729 55.8313C49.4268 58.9185 45.8381 59.8585 41.8918 58.6093C37.9799 57.3708 35.6374 54.5114 34.8768 50.4078C34.539 48.5864 34.7212 46.7555 35.4478 45.0333C35.6771 44.49 35.6146 44.2143 35.164 43.8182C26.8196 36.4793 28.8482 22.8309 38.9372 18.325C48.7476 13.9433 59.8485 21.3368 59.8613 32.6586L59.8607 32.6583ZM32.3556 32.2517C32.3459 35.8595 33.8926 39.4321 36.452 41.7516C36.8041 42.0707 37.0082 42.233 37.4479 41.7563C41.6055 37.2498 48.1891 37.2463 52.3594 41.7429C52.7737 42.1894 52.9813 42.1228 53.3531 41.763C56.5238 38.6947 57.8903 34.9334 57.3433 30.5328C56.5215 23.9222 50.6651 19.1135 44.0618 19.519C37.555 19.9183 32.3739 25.5539 32.3556 32.2517ZM44.895 40.8415C40.6078 40.8523 37.1519 44.3743 37.1441 48.74C37.1364 53.0973 40.5904 56.6321 44.8793 56.6562C49.1884 56.6803 52.7035 53.0976 52.6727 48.7127C52.6418 44.3341 49.1798 40.8308 44.895 40.8415Z" fill="var(--fill-0, #2A9D8F)"/>
<path id="Vector_3" d="M0.0407888 66.6147C0.100463 64.0857 -0.144802 60.9727 0.143578 57.8815C0.503338 54.0242 2.21077 50.8382 5.3564 48.6114C8.72815 46.2246 13.2117 46.5684 16.3359 49.3592C17.7256 50.6005 19.2292 51.4949 21.1233 51.5478C24.0685 51.6302 26.6368 49.9973 27.7912 47.3098C28.925 44.6703 28.3959 41.6175 26.3524 39.5079C22.9724 36.0188 19.5718 32.5495 16.1475 29.1055C13.097 26.0373 11.1503 22.3946 10.4561 18.0786C10.3277 17.2799 10.2354 16.4649 10.2314 15.6569C10.208 10.9288 10.2126 6.20037 10.2154 1.47194C10.216 0.547024 10.6849 -0.0061815 11.4192 -7.35457e-05C12.1544 0.00603441 12.5924 0.554005 12.6087 1.49056C12.6119 1.66449 12.6093 1.83871 12.6093 2.01264C12.6093 6.1899 12.6278 10.3672 12.6044 14.5441C12.5762 19.5919 14.3356 23.8532 17.8635 27.3958C21.2704 30.8169 24.675 34.242 28.0048 37.7398C32.9141 42.8967 30.9911 51.2372 24.3834 53.4963C21.1131 54.6143 18.0868 53.9936 15.4328 51.7497C14.2793 50.7745 13.1127 49.8824 11.5942 49.6203C9.12475 49.1942 7.04013 49.9557 5.3444 51.8009C3.34516 53.9762 2.43234 56.5834 2.43948 59.5548C2.45261 64.9792 2.44319 70.404 2.44319 75.8284C2.44319 76.0314 2.44719 76.2347 2.44233 76.4375C2.41864 77.449 1.98435 78.0066 1.22914 77.9988C0.472787 77.9912 0.0462137 77.4429 0.043644 76.4133C0.0356493 73.3384 0.0407888 70.2635 0.0407888 66.6147Z" fill="var(--fill-0, #2A9D8F)"/>
<path id="Vector_4" d="M58.6618 6.6917C58.6618 5.90988 58.6364 5.12661 58.669 4.34624C58.7029 3.53389 59.1829 3.047 59.8705 3.05136C60.5551 3.05572 61.0422 3.54581 61.0574 4.36195C61.0862 5.9253 61.0868 7.49009 61.0559 9.05344C61.04 9.86289 60.5386 10.3539 59.8547 10.3492C59.1703 10.3445 58.7226 9.853 58.6613 9.03744C58.657 8.97985 58.6584 8.92168 58.6584 8.8638C58.6584 8.13986 58.6584 7.41564 58.6584 6.6917C58.6595 6.6917 58.6607 6.6917 58.6621 6.6917H58.6618Z" fill="var(--fill-0, #2A9D8F)"/>
<path id="Vector_5" d="M59.8687 71.9016C59.8687 72.6849 59.8947 73.4694 59.8616 74.2512C59.8268 75.0685 59.3499 75.5626 58.6698 75.565C57.9883 75.5673 57.4897 75.0728 57.4738 74.2587C57.4429 72.6928 57.4432 71.1256 57.4729 69.5597C57.4886 68.7403 57.978 68.2497 58.6624 68.2476C59.3459 68.2456 59.8259 68.736 59.8613 69.5524C59.8953 70.3342 59.8687 71.1187 59.8687 71.9019V71.9016Z" fill="var(--fill-0, #2A9D8F)"/>
<path id="Vector_6" d="M69.4866 15.2411C70.2535 15.2414 71.0208 15.2257 71.7871 15.246C72.5218 15.2655 72.98 15.666 72.9994 16.419C73.0186 17.1718 72.5751 17.6371 71.8499 17.6546C70.2324 17.6933 68.6126 17.6942 66.9954 17.6499C66.2679 17.6299 65.8388 17.1514 65.8696 16.3975C65.9007 15.6396 66.3698 15.2597 67.1011 15.2446C67.896 15.2283 68.6914 15.2408 69.4866 15.2414V15.2411Z" fill="var(--fill-0, #2A9D8F)"/>
<path id="Vector_7" d="M62.2369 64.591C62.6632 64.6006 62.963 64.8013 63.2322 65.0762C64.3363 66.2029 65.4516 67.3181 66.5466 68.4541C67.1416 69.0716 67.1864 69.7903 66.707 70.3037C66.1911 70.8563 65.493 70.8191 64.8426 70.167C63.7088 69.03 62.5918 67.8753 61.4654 66.7302C61.0562 66.3143 60.9614 65.8199 61.1827 65.2972C61.3777 64.8359 61.7692 64.6099 62.2369 64.591Z" fill="var(--fill-0, #2A9D8F)"/>
<path id="Vector_8" d="M68.204 63.3738C67.4366 63.3738 66.6685 63.395 65.9019 63.3683C65.1247 63.3412 64.627 62.8343 64.6704 62.1219C64.7161 61.3672 65.1498 60.9539 65.8822 60.944C67.4454 60.9233 69.0089 60.9204 70.5722 60.944C71.3517 60.9559 71.8459 61.4722 71.8037 62.1874C71.7588 62.9433 71.3223 63.3441 70.5919 63.3674C69.7967 63.3927 69.0004 63.3732 68.2043 63.3735L68.204 63.3738Z" fill="var(--fill-0, #2A9D8F)"/>
<path id="Vector_9" d="M63.4998 13.9936C62.9573 13.9843 62.5946 13.7586 62.3976 13.3438C62.1886 12.9032 62.1818 12.4099 62.5315 12.0446C63.7779 10.7427 65.0282 9.44231 66.3273 8.196C66.7899 7.75215 67.398 7.81818 67.8634 8.28296C68.3283 8.74775 68.4116 9.37134 67.9756 9.84282C66.7336 11.1869 65.4256 12.4678 64.1402 13.7702C63.9452 13.9677 63.6759 13.9605 63.4995 13.993L63.4998 13.9936Z" fill="var(--fill-0, #2A9D8F)"/>
<path id="Vector_10" d="M34.7746 31.6159C35.1575 26.2302 39.6154 21.881 44.6951 21.9374C45.705 21.9488 46.3455 22.705 46.0334 23.5409C45.8012 24.1633 45.3138 24.3565 44.6828 24.3879C41.0047 24.5714 38.144 26.9954 37.3274 30.6131C37.2198 31.0892 37.2041 31.5874 37.1533 32.0763C37.0528 33.0458 36.6239 33.5271 35.881 33.4948C35.1135 33.4614 34.7123 32.8846 34.7554 31.8762C34.7592 31.7893 34.7677 31.7029 34.7743 31.6159H34.7746Z" fill="var(--fill-0, #2A9D8F)"/>
</g>
<defs>
<clipPath id="clip0_0_155">
<rect width="73" height="78" fill="white"/>
</clipPath>
</defs>
</svg>
