<svg preserveAspectRatio="none" width="100%" height="100%" overflow="visible" style="display: block;" viewBox="0 0 72 75" fill="none" xmlns="http://www.w3.org/2000/svg">
<g id="Layer_1" clip-path="url(#clip0_0_80)">
<path id="Vector" d="M42.9937 11.7469C40.7038 11.6605 38.5973 11.8389 36.5014 12.1281C32.5132 12.6788 28.7069 13.8402 25.0454 15.5414C22.1838 16.8709 19.2625 15.04 19.1894 11.8582C19.109 8.37281 19.1603 4.88373 19.1714 1.39661C19.1741 0.494982 19.6444 -0.0198776 20.3616 0.000537745C21.0752 0.0209531 21.4896 0.525185 21.4923 1.45954C21.5026 4.75173 21.4943 8.04392 21.4973 11.3358C21.4993 13.3883 22.5992 14.0992 24.4535 13.2395C30.1374 10.6042 36.1223 9.36449 42.3599 9.38015C48.4435 9.39553 53.3878 11.9603 57.4452 16.4246C58.2866 17.3505 59.0479 18.3419 59.7454 19.3826C60.2404 20.1212 60.1813 20.815 59.6005 21.225C59.0196 21.635 58.3545 21.4694 57.8426 20.7216C55.6677 17.5452 52.9848 14.9558 49.4908 13.2938C49.1175 13.1162 48.7237 12.9822 48.3493 12.8066C46.9365 12.1432 45.7323 11.9827 44.5481 13.4484C43.5494 14.6851 41.9936 15.1499 40.394 15.2494C39.5387 15.3029 38.683 15.3448 37.8272 15.3851C35.1989 15.5095 33.1695 17.5505 33.0187 20.2053C32.9586 21.2627 32.9602 22.3364 32.7687 23.3714C32.0848 27.0686 29.1819 29.411 25.1313 29.6241C23.8878 29.6896 22.646 29.7637 21.5638 30.5146C21.6622 30.8429 21.9368 31.0056 22.1441 31.2168C23.8759 32.9806 25.6601 34.6941 27.3425 36.5044C30.7338 40.1526 30.654 45.6485 27.2187 49.1874C23.8158 52.6927 18.4264 52.863 14.7148 49.5823C11.3372 46.5969 7.19908 47.0147 4.47434 50.6148C3.59168 51.781 2.9759 53.0719 2.63752 54.5024C2.42441 55.4032 2.33046 56.3109 2.33157 57.2361C2.33711 62.5648 2.33434 67.8937 2.33379 73.2224C2.33379 73.4733 2.36206 73.7312 2.31633 73.9742C2.19966 74.5945 1.81944 74.979 1.18287 74.9863C0.54547 74.9935 0.165802 74.614 0.0280687 73.9979C-0.00768101 73.8377 0.00950104 73.6646 0.00950104 73.4974C0.00950104 67.9175 -0.020429 62.3374 0.0236347 56.7578C0.049962 53.4114 1.26573 50.5023 3.56258 48.0889C6.94828 44.5313 12.193 44.2793 15.8824 47.5175C17.3163 48.7763 18.889 49.6024 20.8117 49.5451C23.6348 49.4609 25.7391 48.1406 26.8955 45.5319C28.0354 42.9604 27.6255 40.5268 25.8632 38.3446C25.4805 37.8705 25.0296 37.4519 24.5998 37.0178C21.6104 33.998 18.6315 30.9676 15.6241 27.9663C11.8651 24.2146 9.91495 19.6922 9.88308 14.3534C9.85759 10.0849 9.8756 5.81613 9.87948 1.54763C9.87948 1.29873 9.88946 1.03865 9.95929 0.80317C10.1103 0.293624 10.4878 0.0203938 11.0055 0.00752932C11.5603 -0.00617416 11.9751 0.265938 12.1223 0.815475C12.2071 1.13177 12.2035 1.478 12.204 1.81052C12.209 5.91177 12.2165 10.013 12.2052 14.114C12.1932 18.3903 13.5337 22.1568 16.3732 25.3422C17.352 26.4401 18.4239 27.4534 19.4499 28.5088C19.6516 28.7166 19.806 28.8914 20.1344 28.6481C21.5561 27.5954 23.2188 27.3541 24.919 27.2836C26.5777 27.2148 28.0689 26.7774 29.2276 25.4829C30.0155 24.6025 30.4763 23.5985 30.5578 22.4096C30.634 21.298 30.6617 20.1751 30.8463 19.0803C31.4163 15.6941 34.2264 13.2222 37.616 13.0446C38.5544 12.9954 39.4941 12.9618 40.4308 12.8874C41.3509 12.8141 42.1632 12.466 42.994 11.7469H42.9937Z" fill="var(--fill-0, #2A9D8F)"/>
<path id="Vector_2" d="M54.3751 38.6718C53.8222 38.6718 53.2691 38.6584 52.7168 38.6754C52.1087 38.6939 51.5536 38.6301 51.2341 38.004C50.9049 37.3591 51.2638 36.8887 51.6104 36.4088C53.2358 34.1566 54.8598 31.9034 56.4835 29.6501C57.7827 27.8474 59.0758 26.0405 60.3808 24.2423C61.1847 23.1346 61.9283 23.1368 62.7347 24.2538C65.6778 28.3293 68.6132 32.4104 71.5538 36.4876C71.89 36.9535 72.1799 37.4186 71.8642 38.0179C71.558 38.5994 71.0409 38.6844 70.4556 38.6765C69.2672 38.6606 68.0772 38.7073 66.8908 38.6564C66.3119 38.6315 66.1675 38.8099 66.1368 39.3799C65.8228 45.2028 64.1229 50.5776 60.9278 55.4516C58.2538 59.5307 54.8723 62.8909 50.7951 65.5356C50.4936 65.7311 50.1943 65.944 49.8659 66.0799C49.3338 66.3003 48.8211 66.2326 48.4539 65.7401C48.0942 65.2574 48.1036 64.7325 48.4902 64.2805C54.1357 57.683 56.1299 49.7481 56.7651 41.3143C56.8194 40.5917 56.8363 39.8657 56.8967 39.1436C56.9269 38.7825 56.8208 38.6497 56.4477 38.6642C55.7577 38.6908 55.066 38.6718 54.3751 38.6718ZM54.9313 59.1093C55.0574 59.0064 55.1962 58.916 55.3074 58.7989C60.81 52.9863 63.7085 46.0792 63.869 38.0246C63.8964 36.6462 64.2099 36.3279 65.6005 36.3265C66.5489 36.3257 67.4969 36.3265 68.56 36.3265C66.2767 33.156 64.0793 30.1228 61.9078 27.0708C61.5602 26.5825 61.417 26.7811 61.1667 27.1312C59.3407 29.6845 57.5008 32.2281 55.6665 34.7755C55.3182 35.2591 54.9737 35.7457 54.5588 36.3268C55.6571 36.3268 56.6179 36.3254 57.5787 36.3271C58.8887 36.3293 59.2393 36.6853 59.2263 38.0163C59.1556 45.3149 57.9348 52.3674 54.8091 59.0117C54.7678 59.0917 54.6907 59.1758 54.8141 59.2435C54.8257 59.2499 54.8911 59.1565 54.9313 59.1093Z" fill="var(--fill-0, #2A9D8F)"/>
<path id="Vector_3" d="M40.5776 65.6626C35.9022 65.6173 31.5415 64.3289 27.356 62.3313C25.1903 61.2976 23.0361 60.2388 20.8643 59.2181C20.2429 58.9261 19.59 58.6864 18.9313 58.4932C14.9803 57.334 11.5921 59.8831 11.4696 64.1203C11.3856 67.0229 12.2256 69.7214 13.3668 72.3424C13.4887 72.622 13.6398 72.8888 13.7614 73.1685C14.0937 73.9317 13.9108 74.5581 13.2737 74.8722C12.6526 75.1781 12.0341 74.9315 11.6558 74.1714C11.0744 73.0029 10.5761 71.7953 10.1854 70.5489C9.33706 67.8431 8.78335 65.0983 9.33761 62.2476C10.0781 58.4395 14.2267 54.3838 19.9267 56.3398C22.1291 57.0954 24.1785 58.1704 26.2506 59.2046C29.7449 60.9486 33.3041 62.5016 37.2116 63.0329C39.0227 63.2793 40.8403 63.3873 42.6641 63.1736C44.0024 63.0167 44.5924 63.2894 44.706 64.1245C44.8197 64.9598 44.3114 65.3709 42.9723 65.4934C42.1756 65.5661 41.376 65.6075 40.5776 65.6632V65.6626Z" fill="var(--fill-0, #2A9D8F)"/>
<path id="Vector_4" d="M35.459 52.733C33.5474 52.7486 31.9833 51.206 31.9489 49.2707C31.9143 47.3114 33.4895 45.698 35.4338 45.7017C37.3452 45.7053 38.8941 47.2692 38.9027 49.2036C38.911 51.1338 37.3662 52.7173 35.459 52.733ZM36.5723 49.1871C36.5573 48.5377 36.0338 48.0301 35.397 48.0469C34.7596 48.0637 34.2638 48.5956 34.2793 49.2458C34.2948 49.8947 34.8194 50.4036 35.4552 50.3869C36.0934 50.3698 36.5875 49.8393 36.5723 49.1871Z" fill="var(--fill-0, #2A9D8F)"/>
<path id="Vector_5" d="M47.0675 58.5925C45.1564 58.6064 43.5931 57.0613 43.5609 55.1266C43.5285 53.1667 45.1046 51.5559 47.0495 51.5612C48.9614 51.5665 50.5086 53.1312 50.5144 55.0665C50.5202 56.997 48.9744 58.5785 47.0675 58.5925ZM48.184 55.102C48.1979 54.4509 47.7015 53.921 47.0639 53.9059C46.427 53.8908 45.9049 54.3997 45.891 55.0494C45.8772 55.6993 46.3752 56.231 47.0118 56.2461C47.6478 56.2612 48.1699 55.7514 48.184 55.102Z" fill="var(--fill-0, #2A9D8F)"/>
<path id="Vector_6" d="M20.9125 21.0424C20.9344 19.1222 22.5124 17.5642 24.4223 17.5771C26.3609 17.59 27.9197 19.2165 27.8773 21.1819C27.836 23.0962 26.2348 24.6403 24.3253 24.6075C22.4265 24.5751 20.8906 22.9707 20.9125 21.0427V21.0424ZM25.553 21.0841C25.5489 20.4531 25.0126 19.919 24.3874 19.9235C23.7611 19.9279 23.2332 20.4677 23.2376 21.0992C23.2423 21.7306 23.7783 22.2651 24.4027 22.2609C25.0268 22.2567 25.5572 21.7139 25.553 21.0841Z" fill="var(--fill-0, #2A9D8F)"/>
<path id="Vector_7" d="M39.4794 24.6075C37.5747 24.6028 36.0122 23.0249 36.0078 21.102C36.0033 19.1424 37.5968 17.553 39.5414 17.5771C41.445 17.6009 42.987 19.1941 42.9729 21.1227C42.9587 23.0425 41.3849 24.6126 39.4791 24.6075H39.4794ZM40.6483 21.1204C40.6641 20.4917 40.1428 19.9394 39.5187 19.9235C38.8946 19.9075 38.3484 20.4325 38.3332 21.0628C38.3179 21.6926 38.8378 22.2447 39.4619 22.2609C40.0835 22.2771 40.6325 21.7497 40.6483 21.1204Z" fill="var(--fill-0, #2A9D8F)"/>
<path id="Vector_8" d="M54.5849 26.9371C54.5913 28.8612 53.0379 30.4508 51.1357 30.467C49.195 30.4835 47.6067 28.8825 47.6198 26.9229C47.6325 24.9993 49.2 23.4332 51.1091 23.4366C53.0169 23.4399 54.5788 25.0128 54.5852 26.9371H54.5849ZM49.9446 26.8862C49.9097 27.5116 50.4168 28.0837 51.0379 28.1201C51.6562 28.1562 52.224 27.643 52.2598 27.0154C52.2955 26.3896 51.7886 25.8185 51.1657 25.7827C50.544 25.7469 49.9793 26.2573 49.9443 26.8862H49.9446Z" fill="var(--fill-0, #2A9D8F)"/>
<path id="Vector_9" d="M38.3284 33.95C38.3434 35.8757 36.7981 37.4737 34.8976 37.4983C32.9557 37.5235 31.3586 35.9305 31.3633 33.9726C31.3678 32.048 32.9277 30.4729 34.8344 30.4679C36.7441 30.4628 38.3138 32.0273 38.3287 33.95H38.3284ZM34.8635 35.1517C35.4876 35.1419 36.0136 34.594 36.0036 33.9645C35.9936 33.3336 35.4524 32.8042 34.8277 32.8142C34.2014 32.8243 33.6782 33.3691 33.6885 34.0003C33.6987 34.6315 34.2399 35.1615 34.8635 35.1517Z" fill="var(--fill-0, #2A9D8F)"/>
<path id="Vector_10" d="M46.4434 43.3567C44.5386 43.3505 42.9779 41.7719 42.9751 39.8486C42.972 37.8896 44.5675 36.3016 46.5121 36.3274C48.4146 36.3525 49.956 37.9477 49.9402 39.8757C49.9247 41.7951 48.3497 43.3629 46.4434 43.3567ZM46.4977 41.0106C47.1198 40.988 47.6378 40.4272 47.6153 39.8008C47.5929 39.1721 47.0389 38.6508 46.417 38.6735C45.7929 38.6961 45.2778 39.2538 45.3002 39.8822C45.3226 40.5108 45.8769 41.033 46.4977 41.0106Z" fill="var(--fill-0, #2A9D8F)"/>
</g>
<defs>
<clipPath id="clip0_0_80">
<rect width="72" height="75" fill="white"/>
</clipPath>
</defs>
</svg>
