<svg preserveAspectRatio="none" width="100%" height="100%" overflow="visible" style="display: block;" viewBox="0 0 67 75" fill="none" xmlns="http://www.w3.org/2000/svg">
<g id="Layer_1" clip-path="url(#clip0_0_198)">
<path id="Vector" d="M53.5005 75C52.9004 74.6795 52.7224 74.1771 52.7359 73.5009C52.792 70.6492 52.7746 67.8033 51.921 65.0337C50.6647 60.9487 48.3535 57.628 44.9777 55.0519C44.668 54.8154 44.4725 54.8447 44.1685 55.0519C42.9491 55.8865 41.6483 56.5764 40.2527 57.0611C39.8597 57.198 39.7687 57.411 39.7629 57.8078C39.7436 59.1681 39.9216 60.5441 39.6274 61.8889C38.9286 65.0943 36.149 67.0958 32.8293 66.8124C29.8619 66.5583 27.421 63.8923 27.3068 60.7513C27.27 59.7526 27.2797 58.7518 27.3029 57.7531C27.3106 57.3856 27.2177 57.198 26.8499 57.067C25.4369 56.5627 24.1051 55.8806 22.876 55.0147C22.5527 54.788 22.3456 54.8388 22.061 55.0577C20.7467 56.0663 19.5621 57.2038 18.5342 58.5055C18.211 58.914 17.8374 59.1838 17.2857 58.9844C16.4805 58.6932 16.2579 57.8801 16.8134 57.1628C17.8296 55.8532 18.993 54.6844 20.2996 53.6719C20.6422 53.4061 20.6519 53.2654 20.3402 52.9742C18.1335 50.8984 16.4998 48.4259 15.4584 45.5723C15.2726 45.0622 14.9997 45.1384 14.6338 45.1892C11.6587 45.5957 8.94288 43.5884 8.41638 40.5999C7.8589 37.4355 10.3211 34.3024 13.5034 34.1929C14.1247 34.1714 14.2389 33.9838 14.2312 33.4033C14.1963 31.0148 14.2409 28.6263 14.2099 26.2379C14.1867 24.4768 15.0539 23.3588 16.5637 22.6513C16.7379 22.5692 16.9199 22.5008 17.1057 22.45C19.9841 21.6525 21.3119 19.5611 21.7726 16.7485C21.852 16.2677 21.8907 15.781 21.9836 15.3041C22.1075 14.6709 22.4946 14.2624 23.1334 14.1509C23.7664 14.0415 24.289 14.2428 24.6045 14.8272C25.8376 17.114 27.9262 17.8822 30.311 18.0933C31.4898 18.1988 32.6783 18.1695 33.8552 18.0385C36.5419 17.7434 38.9112 18.4666 40.7966 20.4075C42.9742 22.6493 45.6339 23.4898 48.6148 23.2924C51.2164 23.1204 53.0534 24.9694 52.9198 27.5689C52.8172 29.5626 52.9121 31.566 52.8908 33.5635C52.885 34.017 52.9721 34.1675 53.4734 34.1851C56.6499 34.2984 59.0133 37.0954 58.7211 40.3497C58.4559 43.3187 55.5156 45.6212 52.4939 45.1833C51.9616 45.1071 51.7623 45.24 51.5726 45.7423C50.537 48.4904 48.9652 50.8926 46.8243 52.8921C46.383 53.3045 46.4778 53.455 46.8863 53.7873C50.9996 57.1491 53.5779 61.4511 54.5342 66.7147C54.6426 67.3147 54.8361 67.5414 55.4827 67.5199C57.2422 67.4652 59.0056 67.5063 60.7671 67.5004C63.2815 67.4906 64.6094 65.5869 63.75 63.2121C63.57 62.7117 63.3396 62.227 63.1093 61.7462C61.9769 59.3851 61.9885 57.0123 62.9989 54.6179C63.7171 52.9175 64.381 51.2033 64.6733 49.3602C65.0662 46.8897 64.6559 44.5579 63.5564 42.3473C63.028 41.284 62.455 40.2383 61.8298 39.2317C59.6134 35.6588 58.6901 31.7634 59.0695 27.5865C59.6889 20.7749 57.5093 15.0031 52.9159 10.0777C52.3236 9.44243 52.2868 8.8287 52.7824 8.34984C53.2973 7.85338 53.8722 7.9042 54.48 8.55507C59.3192 13.7346 61.8007 19.8309 61.2568 26.9982C60.9355 31.2298 61.7214 35.1057 64.0365 38.6825C65.3702 40.7446 66.427 42.9571 66.8297 45.4316C67.3155 48.4142 66.6961 51.2366 65.6121 53.9925C65.3895 54.5574 65.1553 55.1164 64.923 55.6754C64.2281 57.3641 64.2436 59.0313 65.0295 60.6927C65.4747 61.6348 65.9063 62.5906 66.0902 63.6284C66.6651 66.8867 64.3655 69.6328 60.9839 69.6953C59.1508 69.7286 57.3157 69.7188 55.4807 69.6895C54.991 69.6817 54.8865 69.8322 54.9039 70.3013C54.9445 71.3724 54.8981 72.4454 54.929 73.5185C54.9503 74.2143 54.751 74.7361 54.0754 75.002H53.4966L53.5005 75ZM23.8554 17.5558C23.4954 19.0119 23.0463 20.3351 22.2333 21.504C21.1261 23.0989 19.5369 23.9491 17.7619 24.5433C16.6237 24.9244 16.3972 25.2743 16.3972 26.4607C16.3972 30.4578 16.3972 34.4548 16.3972 38.4519C16.3972 39.6246 16.4901 40.7817 16.6934 41.9388C18.3368 51.3226 27.7249 57.7374 36.9271 55.7516C45.059 53.9964 50.6647 47.0402 50.7228 38.5945C50.748 34.8418 50.7286 31.0891 50.7267 27.3344C50.7267 25.9818 50.2156 25.4619 48.8858 25.5186C45.3106 25.6672 42.0993 24.8032 39.5132 22.1548C39.3777 22.0161 39.2209 21.9007 39.0758 21.7717C37.564 20.4426 35.8102 19.999 33.8339 20.2257C32.4421 20.386 31.0388 20.4075 29.6431 20.2315C27.4674 19.9579 25.493 19.2132 23.8574 17.5577L23.8554 17.5558ZM37.6027 59.7604C37.6027 59.2248 37.5814 58.7851 37.6085 58.3492C37.6337 57.9505 37.5195 57.8566 37.1188 57.9368C34.7282 58.4176 32.3299 58.4156 29.9393 57.9309C29.616 57.8645 29.4534 57.884 29.467 58.2886C29.496 59.1154 29.4438 59.9461 29.4902 60.7709C29.6044 62.7665 31.1414 64.4239 33.0132 64.6174C35.1521 64.8383 36.9542 63.603 37.4885 61.5507C37.6511 60.9272 37.5795 60.292 37.6027 59.7584V59.7604ZM10.4972 39.7399C10.5108 41.7023 12.3497 43.3676 14.1731 43.0529C14.388 43.0157 14.7228 43.09 14.6183 42.6131C14.2157 40.7758 14.1925 38.9014 14.2409 37.0329C14.2583 36.3937 14.0163 36.3175 13.4898 36.3683C11.8619 36.5227 10.4856 38.057 10.4972 39.7399ZM56.5763 39.7673C56.6034 38.0649 55.3007 36.6478 53.5005 36.3976C53.0514 36.3351 52.8908 36.425 52.8811 36.939C52.8443 38.7822 52.8404 40.6331 52.4939 42.4528C52.401 42.9434 52.6275 43.0275 53.0088 43.0705C54.7994 43.2718 56.5473 41.6593 56.5783 39.7673H56.5763Z" fill="var(--fill-0, #2A9D8F)"/>
<path id="Vector_2" d="M12.8009 75C12.2706 74.656 12.0692 74.1712 12.0905 73.5301C12.1254 72.4591 12.0654 71.384 12.1196 70.313C12.1467 69.7715 11.9705 69.6777 11.4827 69.6855C9.67286 69.7149 7.86106 69.7207 6.05119 69.6914C3.26573 69.6484 1.14228 67.7642 0.851931 65.0904C0.729982 63.9724 0.946779 62.8661 1.4849 61.9123C2.97538 59.2658 2.70632 56.7308 1.4849 54.0472C-0.0346149 50.7088 -0.501116 47.1984 0.631262 43.5962C1.16745 41.8938 1.93785 40.295 2.90957 38.8134C5.25756 35.2366 6.05313 31.3392 5.78407 27.0764C5.22078 18.1226 8.54049 10.8028 15.869 5.78739C26.0314 -1.1669 36.8345 -1.81385 47.9279 3.62761C48.2957 3.80743 48.648 4.02048 48.9964 4.23743C49.6487 4.64203 49.8442 5.27921 49.5035 5.83821C49.1803 6.3718 48.5628 6.51058 47.9259 6.13726C46.1896 5.12284 44.3778 4.27262 42.4538 3.70775C34.351 1.32515 26.5017 1.85875 19.1268 6.16657C13.1842 9.63786 9.49091 14.8624 8.11463 21.6935C7.75653 23.4761 7.79137 25.2899 7.94623 27.0861C8.3566 31.8279 7.2668 36.1416 4.66137 40.1171C2.99667 42.6561 1.94172 45.4315 2.22433 48.5725C2.36757 50.1674 2.92118 51.645 3.4806 53.1227C4.01291 54.53 4.58394 55.9255 4.70395 57.452C4.82396 58.9942 4.52587 60.4483 3.87354 61.8439C3.60642 62.4146 3.33542 62.9912 3.1554 63.5913C2.55727 65.5849 3.78837 67.4065 5.85375 67.4828C7.87848 67.559 9.90902 67.4925 11.9357 67.5121C12.3015 67.516 12.3596 67.3401 12.4099 67.041C12.648 65.5986 13.0352 64.1952 13.552 62.829C13.883 61.9533 14.4501 61.6054 15.1315 61.8595C15.7606 62.0941 15.9619 62.743 15.6367 63.5815C14.8257 65.6709 14.5043 67.8541 14.4018 70.0765C14.3495 71.2199 14.3263 72.3672 14.3417 73.5126C14.3514 74.1419 14.1753 74.6345 13.6701 75.0019H12.8009V75Z" fill="var(--fill-0, #2A9D8F)"/>
<path id="Vector_3" d="M29.2192 44.2588C30.5974 44.253 31.4278 44.8784 32.1286 45.7345C33.499 47.4057 33.5494 47.4076 34.8734 45.7619C36.4974 43.7428 38.6189 43.7389 40.2488 45.7521C40.7404 46.36 41.0869 47.0832 42.0412 47.1867C42.5581 47.2415 42.7555 47.8024 42.6606 48.3458C42.5581 48.9341 42.1651 49.2351 41.598 49.2429C40.5798 49.2586 39.8094 48.7484 39.1861 47.9783C38.8667 47.5835 38.5841 47.1535 38.2376 46.7841C37.7711 46.2877 37.3588 46.3052 36.8749 46.79C36.7045 46.96 36.5555 47.1555 36.4084 47.347C34.5869 49.7277 32.4402 49.7374 30.6323 47.3744C30.4697 47.1633 30.3013 46.9561 30.1174 46.7646C29.6857 46.3131 29.227 46.2935 28.8069 46.7607C28.4682 47.1379 28.1701 47.5542 27.8565 47.9529C27.2932 48.6683 26.5925 49.1491 25.673 49.241C24.9549 49.3133 24.4303 48.9322 24.349 48.3067C24.2639 47.648 24.6103 47.1868 25.3633 47.0714C25.8008 47.005 26.0389 46.7294 26.2731 46.4206C26.6254 45.9573 26.9545 45.4746 27.4016 45.0934C27.9881 44.5931 28.6385 44.251 29.2173 44.2588H29.2192Z" fill="var(--fill-0, #2A9D8F)"/>
<path id="Vector_4" d="M42.6936 38.448C39.3622 38.2916 36.8033 36.8315 35.1618 33.8489C34.7476 33.0984 34.8714 32.4729 35.4599 32.1367C36.0619 31.7927 36.6213 32.0175 37.051 32.7739C38.8222 35.8934 41.9503 36.9957 45.2796 35.6705C46.0442 35.3656 46.6637 35.5689 46.9153 36.2022C47.1534 36.8022 46.8611 37.3632 46.1371 37.6974C45.1112 38.1704 43.8608 38.4401 42.6916 38.4499L42.6936 38.448Z" fill="var(--fill-0, #2A9D8F)"/>
<path id="Vector_5" d="M24.7865 38.4343C23.1121 38.4304 21.9217 38.1567 20.7854 37.6446C20.1254 37.3456 19.8718 36.7475 20.1292 36.165C20.3905 35.5709 20.9713 35.3344 21.6429 35.6432C25.0439 37.2049 28.6753 35.522 30.0361 32.6801C30.3651 31.994 30.9671 31.8162 31.5362 32.1191C32.1208 32.4319 32.2854 33.0612 31.9156 33.7531C30.2935 36.7827 27.7345 38.2799 24.7884 38.4343H24.7865Z" fill="var(--fill-0, #2A9D8F)"/>
<path id="Vector_6" d="M24.0354 30.3854C23.116 30.3913 22.6534 30.0297 22.5779 29.4238C22.5043 28.8238 22.874 28.3332 23.5515 28.2022C24.8523 27.952 26.0137 27.4321 27.0203 26.5487C27.5023 26.1245 28.0539 26.1382 28.5088 26.6034C28.9385 27.0432 28.9831 27.6119 28.5572 28.0419C27.2487 29.3671 25.6653 30.1724 24.0354 30.3854Z" fill="var(--fill-0, #2A9D8F)"/>
<path id="Vector_7" d="M39.4474 26.2633C39.6294 26.2457 39.8849 26.4255 40.123 26.6386C41.0502 27.4634 42.1458 27.9247 43.3401 28.1807C44.1685 28.3586 44.5712 28.8511 44.4202 29.5078C44.2711 30.1607 43.6633 30.491 42.8871 30.3248C41.2824 29.9848 39.821 29.3476 38.6034 28.2081C38.2357 27.8641 38.0866 27.4497 38.2802 26.9591C38.4583 26.5037 38.8048 26.2848 39.4455 26.2633H39.4474Z" fill="var(--fill-0, #2A9D8F)"/>
</g>
<defs>
<clipPath id="clip0_0_198">
<rect width="67" height="75" fill="white"/>
</clipPath>
</defs>
</svg>
