<svg preserveAspectRatio="none" width="100%" height="100%" overflow="visible" style="display: block;" viewBox="0 0 76.0002 73" fill="none" xmlns="http://www.w3.org/2000/svg">
<g id="Group 113">
<path id="Vector" d="M66.8796 64.167C69.0164 64.1556 71.1535 64.1151 73.2897 64.1493C73.9725 64.1601 74.1999 64.0053 74.1886 63.2747C74.151 60.8385 74.1925 58.4012 74.2039 55.9641C74.6923 56.1126 74.9966 55.5718 75.4591 55.6231C75.4681 59.5403 75.5436 63.4586 75.4642 67.374C75.4073 70.1694 73.2054 72.3904 70.4147 72.4585C66.7557 72.548 63.0927 72.4662 59.4314 72.4579C59.3777 71.9439 59.9281 71.6743 59.9383 71.1862C63.3419 71.1757 66.7452 71.1717 70.1489 71.1517C72.1078 71.14 73.7004 69.8649 74.0831 67.9615C74.1988 67.3865 74.1105 66.7728 74.1804 66.1847C74.2599 65.5173 73.9804 65.3871 73.3723 65.3925C71.0387 65.4136 68.7041 65.3802 66.3702 65.3674C66.3521 64.8862 66.8278 64.6179 66.8793 64.1667L66.8796 64.167Z" fill="var(--fill-0, #2A9D8F)" stroke="var(--stroke-0, #2A9D8F)"/>
<path id="Vector_2" d="M50.253 51.1966C49.4743 50.088 48.6584 49.0039 47.9264 47.8647C46.9515 46.3476 47.2383 44.7415 48.5763 43.8273C49.8649 42.947 51.3959 43.3028 52.4679 44.733C52.6339 44.9547 52.7974 45.1782 53.0491 45.5186C53.4156 44.8148 53.7395 44.2047 54.0526 43.5893C54.7464 42.2261 55.4099 40.8463 56.1334 39.4997C56.7319 38.3859 57.8522 37.8685 59.0457 38.064C60.1714 38.2488 61.0227 39.1636 61.253 40.4355C60.7427 40.3745 60.4746 40.9145 60.0023 40.9481C59.9497 40.1721 59.6626 39.5621 58.8294 39.4044C57.9619 39.2402 57.4701 39.7286 57.1083 40.4515C56.1085 42.4487 55.1053 44.4445 54.0811 46.4291C53.5689 47.4217 52.7812 47.4682 52.122 46.57C51.7879 46.1147 51.5076 45.6161 51.1476 45.1842C50.6778 44.6206 49.9102 44.5388 49.3145 44.9254C48.7206 45.3108 48.4759 46.0488 48.7777 46.7071C48.9384 47.0574 49.1482 47.3872 49.3737 47.7114C50.0471 48.6786 50.815 49.5863 51.3099 50.6727C50.8605 50.6487 50.705 51.2266 50.2527 51.1972L50.253 51.1966Z" fill="var(--fill-0, #2A9D8F)" stroke="var(--stroke-0, #2A9D8F)"/>
<path id="Vector_3" d="M46.7297 14.1246C45.6595 14.1346 44.589 14.1608 43.519 14.1466C43.06 14.1406 42.8376 14.2024 42.7938 14.772C42.6131 17.1264 41.1027 18.5931 38.7679 18.7798C36.8795 18.9309 35.8828 20.0204 35.8723 21.9472C35.8697 22.4016 35.8782 22.8563 35.868 23.3104C35.8579 23.7543 35.6836 24.1314 35.2011 24.1306C34.7291 24.1297 34.5291 23.7902 34.5376 23.3207C34.5616 21.9962 34.3747 20.6484 35.1624 19.4375C36.025 18.1116 37.2582 17.5298 38.7852 17.4346C40.2387 17.3436 41.2928 16.3465 41.471 14.9562C41.5386 14.4285 41.4798 14.0639 40.7998 14.1443C40.4123 14.1902 40.013 14.1349 39.619 14.1252C39.5562 13.6069 40.0975 13.3338 40.127 12.8529C41.5083 12.839 42.8897 12.8085 44.2708 12.8199C44.742 12.8236 44.9202 12.6762 44.9071 12.1881C44.8794 11.1368 44.9009 10.0843 44.8987 9.03242C44.8975 8.52586 45.0432 8.06233 45.6125 8.07402C46.1437 8.08514 46.2382 8.53868 46.2319 9.01076C46.2189 9.97743 46.2817 10.9481 46.2104 11.9096C46.1581 12.6146 46.3872 12.9031 47.0691 12.8535C47.1164 13.3204 46.6678 13.6534 46.73 14.1246H46.7297Z" fill="var(--fill-0, #2A9D8F)" stroke="var(--stroke-0, #2A9D8F)"/>
<path id="Vector_4" d="M40.1268 12.8536C40.0974 13.3345 39.5561 13.6076 39.6188 14.1256C38.3738 14.1817 37.9725 13.8166 37.9688 12.5839C37.9617 10.1722 37.9547 7.76055 37.9705 5.34915C37.9889 2.52753 39.9704 0.533753 42.7741 0.530047C45.8978 0.525771 49.0217 0.554278 52.1456 0.568246C52.1207 1.05001 51.5757 1.32197 51.6402 1.83994C48.7374 1.84963 45.8347 1.85876 42.932 1.86873C40.6404 1.87672 39.3046 3.20827 39.2959 5.51021C39.2876 7.64082 39.3264 9.772 39.2752 11.9015C39.2588 12.5891 39.4313 12.9083 40.1271 12.8536H40.1268Z" fill="var(--fill-0, #2A9D8F)" stroke="var(--stroke-0, #2A9D8F)"/>
<path id="Vector_5" d="M17.0934 38.9241C14.6749 37.6025 13.2627 35.5064 13.069 32.8034C12.7276 28.0379 12.9872 23.2538 12.9406 18.4778C12.9358 17.9971 13.0478 17.4812 13.6222 17.4786C14.2213 17.476 14.258 17.9926 14.2575 18.4786C14.2526 22.2039 14.3531 25.9329 14.2258 29.6539C14.1124 32.9684 14.742 35.863 17.609 37.8807C17.6266 38.3234 17.0609 38.4737 17.0934 38.9241Z" fill="var(--fill-0, #2A9D8F)" stroke="var(--stroke-0, #2A9D8F)"/>
<path id="Vector_6" d="M28.6147 58.384C31.4178 57.2249 34.0445 55.7679 36.3145 53.7174C38.9523 51.3348 40.9683 48.501 42.3525 45.2132C43.0087 45.3307 43.1908 44.386 43.8591 44.5299C43.2593 46.8972 42.0499 48.9576 40.6275 50.8938C38.0118 54.4552 34.6645 57.1169 30.6505 58.9148C29.7121 59.3353 28.7295 59.6554 27.7673 60.0217C27.7203 59.6683 27.9333 59.4482 28.1607 59.2321C28.404 59.0009 28.6664 58.7766 28.6147 58.3837V58.384Z" fill="var(--fill-0, #2A9D8F)" stroke="var(--stroke-0, #2A9D8F)"/>
<path id="Vector_7" d="M17.093 38.924C17.0605 38.4736 17.6261 38.3234 17.6086 37.8807C18.6421 38.2319 19.6637 38.5999 20.7557 38.7738C21.4809 38.8893 21.7445 39.6051 21.4704 40.4825C20.4185 43.8478 18.45 46.5431 15.5739 48.5557C13.609 49.9306 11.3602 50.6846 9.14251 51.503C9.09386 50.7741 10.0023 50.5406 9.99356 49.8325C10.6622 49.5454 11.3271 49.2493 12 48.9725C15.7883 47.4148 18.4336 44.7221 19.9431 40.8882C20.1736 40.3026 20.2599 39.9551 19.4068 39.8525C18.5895 39.7542 17.7712 39.4691 17.0933 38.9238L17.093 38.924Z" fill="var(--fill-0, #2A9D8F)" stroke="var(--stroke-0, #2A9D8F)"/>
<path id="Vector_8" d="M25.5669 53.9523C28.1274 53.039 30.555 51.8773 32.6157 50.0511C35.11 47.8404 37.0695 45.2663 37.9483 41.9703C38.5134 41.9766 38.7546 41.3295 39.2977 41.291C38.9724 44.6859 37.1402 47.298 34.9183 49.6712C32.1657 52.6108 28.7776 54.4771 24.8895 55.4355C24.8185 54.8033 25.5655 54.551 25.5672 53.9523H25.5669Z" fill="var(--fill-0, #2A9D8F)" stroke="var(--stroke-0, #2A9D8F)"/>
<path id="Vector_9" d="M50.2532 51.1966C50.7052 51.226 50.8607 50.6482 51.3102 50.6721C51.509 50.9067 51.7245 51.1294 51.9038 51.3782C53.0004 52.9031 54.0935 52.8247 54.9466 51.1439C56.4979 48.0874 58.045 45.0283 59.5862 41.9666C59.7505 41.6402 59.8651 41.2882 60.0025 40.9478C60.4748 40.9142 60.7427 40.3745 61.2532 40.4353C61.3799 41.0798 61.2119 41.6662 60.9229 42.2366C59.2855 45.4667 57.6581 48.7023 56.0168 51.9304C54.8199 54.2842 52.4163 54.4413 50.9283 52.2691C50.6899 51.9207 50.4775 51.5544 50.2529 51.1963L50.2532 51.1966Z" fill="var(--fill-0, #2A9D8F)" stroke="var(--stroke-0, #2A9D8F)"/>
<path id="Vector_10" d="M19.5005 32.5328C19.7698 32.683 20.028 32.8606 20.3105 32.978C21.3058 33.3914 21.6735 33.2352 22.1682 32.2876C24.0903 28.6065 26.8816 26.0537 31.0851 25.3453C31.7831 25.2276 32.4832 25.2204 33.1857 25.2937C33.3331 25.786 32.8014 26.0933 32.8466 26.5577C28.3128 26.6253 25.3294 29.0538 23.3247 32.9415C22.4728 34.5935 21.613 34.947 19.8625 34.2594C19.4697 34.1052 19.0862 33.9193 18.8115 33.5733C19.0412 33.2263 19.2708 32.8794 19.5005 32.5325V32.5328Z" fill="var(--fill-0, #2A9D8F)" stroke="var(--stroke-0, #2A9D8F)"/>
<path id="Vector_11" d="M54.6894 55.824C57.6133 55.6732 59.874 54.9113 60.9782 53.6356C60.4685 53.6028 60.0304 53.5885 59.5957 53.5429C59.1593 53.497 58.8117 53.2963 58.8635 52.7955C58.9087 52.3567 59.2292 52.1843 59.6534 52.2125C60.6648 52.2795 61.6771 52.3356 62.6871 52.422C63.2677 52.4716 63.5379 52.7958 63.4332 53.4064C63.2709 54.3562 63.126 55.3092 62.9696 56.2602C62.8941 56.7189 62.7185 57.1197 62.165 57.0248C61.6072 56.929 61.5925 56.4788 61.653 56.0282C61.6977 55.6952 61.756 55.3642 61.829 54.8999C59.4356 56.4694 56.9724 57.372 54.1871 57.0535C54.1534 56.5604 54.6868 56.3024 54.6897 55.824H54.6894Z" fill="var(--fill-0, #2A9D8F)" stroke="var(--stroke-0, #2A9D8F)"/>
<path id="Vector_12" d="M19.5004 32.5327C19.2707 32.8797 19.041 33.2266 18.8114 33.5735C17.8992 32.8723 17.4611 31.9056 17.4538 30.787C17.4263 26.67 17.443 22.5527 17.4382 18.4355C17.4376 17.9377 17.5208 17.4506 18.1196 17.4808C18.6872 17.5096 18.7771 17.9959 18.7766 18.4911C18.7723 22.3526 18.7936 26.2145 18.7605 30.0757C18.7525 30.9988 18.9304 31.8121 19.5004 32.5325V32.5327Z" fill="var(--fill-0, #2A9D8F)" stroke="var(--stroke-0, #2A9D8F)"/>
<path id="Vector_13" d="M54.8575 35.4542C52.2368 35.6746 50.0641 36.4728 48.9941 37.6578C49.4882 37.6843 49.9246 37.7014 50.3599 37.7333C50.7955 37.765 51.149 37.9277 51.1459 38.4366C51.1428 38.9654 50.7819 39.0957 50.3364 39.0689C49.3233 39.0076 48.3099 38.9486 47.2985 38.8659C46.7416 38.8203 46.5035 38.4808 46.5909 37.9277C46.7498 36.9186 46.9141 35.9106 47.0858 34.9034C47.1554 34.4941 47.3814 34.1885 47.8226 34.2492C48.3045 34.3153 48.4304 34.6894 48.3973 35.1389C48.3707 35.5029 48.177 35.8499 48.3034 36.3066C50.4128 34.9388 52.6562 34.0525 55.1961 34.1859C55.2394 34.6509 54.7023 34.9587 54.8578 35.4542H54.8575Z" fill="var(--fill-0, #2A9D8F)" stroke="var(--stroke-0, #2A9D8F)"/>
<path id="Vector_14" d="M9.99366 49.8325C10.0024 50.5406 9.09396 50.7744 9.14261 51.503C8.01354 52.064 6.78179 52.4115 5.74662 53.1673C3.49073 54.8147 2.16509 57.0163 1.83955 59.8168C1.81013 60.0691 1.75356 60.3179 1.70944 60.5682C1.17828 60.432 0.976619 61.0802 0.503437 61.0825C0.412364 57.0895 2.13341 54.0504 5.36621 51.8508C6.77387 50.893 8.40243 50.3932 9.99338 49.8322L9.99366 49.8325Z" fill="var(--fill-0, #2A9D8F)" stroke="var(--stroke-0, #2A9D8F)"/>
<path id="Vector_15" d="M71.9705 8.01357C71.9796 9.66184 72.0039 11.3104 71.9912 12.9584C71.9849 13.778 71.6059 14.1269 70.7812 14.1511C70.3021 14.1651 69.8165 14.2016 69.3441 14.1428C68.6093 14.0513 68.4772 14.4037 68.5683 15.0268C68.6532 15.6084 68.9363 16.0916 69.2426 16.5694C69.2239 17.0597 68.6846 17.1999 68.5516 17.6136C67.7291 16.9539 67.2927 16.0414 67.2687 15.0365C67.2497 14.2372 66.97 14.0588 66.2827 14.1468C66.0352 14.1788 65.7781 14.134 65.5256 14.1243C65.4034 13.583 66.132 13.3868 66.0333 12.8549C67.2927 12.8409 68.5536 12.7842 69.8111 12.8292C70.5227 12.8549 70.8086 12.6955 70.7631 11.9105C70.6978 10.7862 70.7631 9.65414 70.773 8.52555C71.2434 8.52384 71.4425 7.8773 71.9708 8.01357H71.9705Z" fill="var(--fill-0, #2A9D8F)" stroke="var(--stroke-0, #2A9D8F)"/>
<path id="Vector_16" d="M68.5719 25.4519C70.1677 25.4416 71.7646 25.3929 73.3586 25.439C74.0482 25.459 74.2184 25.2244 74.1786 24.5795C74.1279 23.7642 74.139 22.9421 74.1749 22.1251C74.2097 21.338 74.0425 20.6171 73.6615 19.938C73.8943 19.5877 74.1732 19.2858 74.5451 19.0811C75.1812 19.71 75.449 20.5239 75.4728 21.3717C75.5206 23.0607 75.4717 24.7523 75.4629 26.4428C74.9071 26.2763 74.6571 26.8775 74.1983 26.9545C73.971 26.6358 73.6347 26.7723 73.3465 26.768C71.5864 26.7415 69.8257 26.7335 68.0657 26.7196C68.0162 26.2084 68.5657 25.9402 68.5719 25.4516V25.4519Z" fill="var(--fill-0, #2A9D8F)" stroke="var(--stroke-0, #2A9D8F)"/>
<path id="Vector_17" d="M4.96973 66.371C4.97793 64.2205 5.35212 62.1266 6.18308 60.1551C7.0446 58.1111 9.3859 57.3226 11.3652 58.3133C11.9682 58.6152 12.5387 58.9829 13.1238 59.3207C12.7086 59.5205 12.5698 59.9487 12.3313 60.2942C11.9062 60.0784 11.4752 59.8732 11.0569 59.6448C9.40032 58.7409 7.84898 59.3461 7.21458 61.1309C6.67013 62.6629 6.458 64.2604 6.24446 65.8593C5.7017 65.7316 5.50145 66.4702 4.97001 66.3705L4.96973 66.371Z" fill="var(--fill-0, #2A9D8F)" stroke="var(--stroke-0, #2A9D8F)"/>
<path id="Vector_18" d="M36.5831 71.2913C35.288 70.3495 34.6672 69.0279 34.562 67.4651C34.4995 66.5367 34.5611 65.5994 34.5671 64.6663C35.0979 64.6449 35.2391 63.8864 35.8339 63.9859C36.3845 64.2869 36.9782 64.1084 37.5504 64.1256C38.8045 64.1632 40.0603 64.1552 41.3152 64.1658C41.2631 64.6173 40.7869 64.8861 40.8055 65.3679C39.3741 65.3784 37.9427 65.3933 36.5113 65.3964C36.1444 65.3972 35.8839 65.4115 35.8554 65.9172C35.7623 67.5601 35.9756 69.0823 37.2591 70.2651C37.0336 70.6072 36.8085 70.9493 36.5831 71.2916V71.2913Z" fill="var(--fill-0, #2A9D8F)" stroke="var(--stroke-0, #2A9D8F)"/>
<path id="Vector_19" d="M66.0334 12.855C66.1318 13.3869 65.4035 13.5828 65.5257 14.1241C63.3244 14.1241 61.1231 14.1241 58.9221 14.1241C58.8593 13.6064 59.3998 13.3339 59.4303 12.8539C60.6691 12.8399 61.9079 12.8034 63.1462 12.8225C63.6607 12.8305 63.8383 12.6683 63.8207 12.1437C63.7865 11.1226 63.8179 10.0995 63.8086 9.07725C63.8041 8.59235 63.8411 8.07523 64.4396 8.07723C64.9962 8.07894 65.1356 8.55786 65.1337 9.06043C65.1303 9.99746 65.1911 10.9393 65.1153 11.8701C65.0539 12.6249 65.3246 12.9074 66.0339 12.8541L66.0334 12.855Z" fill="var(--fill-0, #2A9D8F)" stroke="var(--stroke-0, #2A9D8F)"/>
<path id="Vector_20" d="M40.8052 65.3679C40.7863 64.8858 41.2629 64.617 41.3149 64.1655C45.4344 64.1652 49.5536 64.1649 53.6728 64.1646C53.6547 64.6319 53.0282 64.8371 53.162 65.3696C49.0431 65.369 44.9242 65.3682 40.8052 65.3676V65.3679Z" fill="var(--fill-0, #2A9D8F)" stroke="var(--stroke-0, #2A9D8F)"/>
<path id="Vector_21" d="M36.583 71.2914C36.8084 70.9493 37.0336 70.6072 37.2587 70.2648C38.2356 70.9567 39.3141 71.1999 40.5093 71.1691C42.3568 71.1218 44.2068 71.1742 46.0557 71.1842C46.1702 71.7241 45.4402 71.9222 45.5477 72.4593C43.5277 72.4661 41.506 72.5209 39.488 72.4604C38.4141 72.4282 37.3959 72.0728 36.583 71.2911V71.2914Z" fill="var(--fill-0, #2A9D8F)" stroke="var(--stroke-0, #2A9D8F)"/>
<path id="Vector_22" d="M28.6147 58.384C28.6665 58.7768 28.404 59.0009 28.1608 59.2324C27.9334 59.4484 27.7204 59.6685 27.7673 60.022C25.0841 60.9841 22.3117 61.4573 19.4712 61.5574C19.4116 61.0813 19.8658 60.7424 19.8101 60.2674C22.8225 60.0086 25.762 59.4023 28.6144 58.384H28.6147Z" fill="var(--fill-0, #2A9D8F)" stroke="var(--stroke-0, #2A9D8F)"/>
<path id="Vector_23" d="M74.2013 42.1439C74.201 39.4135 74.2005 36.6831 74.2002 33.9527C74.6827 33.9376 74.9506 33.3837 75.4625 33.4419C75.4619 36.2287 75.4614 39.0155 75.4608 41.8024C74.9712 41.6544 74.6646 42.1921 74.2016 42.1439H74.2013Z" fill="var(--fill-0, #2A9D8F)" stroke="var(--stroke-0, #2A9D8F)"/>
<path id="Vector_24" d="M25.5667 53.9523C25.565 54.5507 24.818 54.8033 24.889 55.4356C22.7273 56.1539 20.4867 56.3361 18.2334 56.4242C17.7944 56.4413 17.4151 56.2591 17.3883 55.7811C17.3611 55.2964 17.6932 55.1037 18.1621 55.094C20.6796 55.0422 23.1445 54.6354 25.5667 53.9526V53.9523Z" fill="var(--fill-0, #2A9D8F)" stroke="var(--stroke-0, #2A9D8F)"/>
<path id="Vector_25" d="M45.548 72.4595C45.4402 71.9224 46.1705 71.7243 46.056 71.1844C48.6518 71.185 51.2477 71.1855 53.8435 71.1861C53.9586 71.7255 53.2301 71.9224 53.3353 72.4581C50.7394 72.4587 48.1439 72.4592 45.548 72.4595Z" fill="var(--fill-0, #2A9D8F)" stroke="var(--stroke-0, #2A9D8F)"/>
<path id="Vector_26" d="M75.4583 55.6234C74.9959 55.5721 74.6916 56.1129 74.2031 55.9644C74.2031 53.519 74.2031 51.0737 74.2031 48.6284C74.6647 48.6771 74.969 48.1389 75.4572 48.2874C75.4572 50.7328 75.4578 53.1781 75.4581 55.6234H75.4583Z" fill="var(--fill-0, #2A9D8F)" stroke="var(--stroke-0, #2A9D8F)"/>
<path id="Vector_27" d="M48.4107 54.9654C46.445 53.6082 45.1168 51.7607 44.2847 49.5291C44.1226 49.0947 44.1854 48.7247 44.6244 48.5328C45.0475 48.3481 45.3527 48.5938 45.487 48.9738C46.1862 50.9502 47.3786 52.5534 49.0202 53.8308C49.0762 53.8744 49.0818 53.9836 49.111 54.062C48.8776 54.363 48.644 54.6644 48.4107 54.9654Z" fill="var(--fill-0, #2A9D8F)" stroke="var(--stroke-0, #2A9D8F)"/>
<path id="Vector_28" d="M19.8103 60.2674C19.8658 60.7424 19.4115 61.0813 19.4715 61.5574C16.9902 61.7184 14.5513 61.6338 12.3311 60.2945C12.5695 59.9493 12.7081 59.5211 13.1236 59.321C15.2505 60.3701 17.5341 60.2919 19.8103 60.2674Z" fill="var(--fill-0, #2A9D8F)" stroke="var(--stroke-0, #2A9D8F)"/>
<path id="Vector_29" d="M59.4291 12.8544C59.3985 13.3342 58.858 13.6067 58.9208 14.1247C56.9452 14.1247 54.9696 14.1247 52.994 14.1247C52.8733 13.5837 53.601 13.3875 53.5023 12.8553C54.4173 13.0041 54.3779 12.3681 54.3825 11.768C54.8491 11.8271 55.1557 11.2834 55.645 11.4274C55.6583 11.5682 55.7013 11.7139 55.6798 11.8493C55.5551 12.6321 55.869 12.881 56.6454 12.8302C57.5689 12.7698 58.5008 12.8408 59.4291 12.8547V12.8544Z" fill="var(--fill-0, #2A9D8F)" stroke="var(--stroke-0, #2A9D8F)"/>
<path id="Vector_30" d="M75.4622 33.4419C74.9506 33.3837 74.6825 33.9376 74.1999 33.9527C74.1994 31.62 74.1988 29.2873 74.1982 26.9548C74.657 26.8781 74.907 26.2766 75.4628 26.4431C75.4628 28.7761 75.4622 31.1089 75.4619 33.4419H75.4622Z" fill="var(--fill-0, #2A9D8F)" stroke="var(--stroke-0, #2A9D8F)"/>
<path id="Vector_31" d="M51.6401 1.8401C51.5756 1.32212 52.1206 1.05017 52.1455 0.568401C54.3471 0.498559 56.5489 0.497704 58.7505 0.568401C58.8948 1.06129 58.3463 1.36717 58.4125 1.83924C56.1549 1.83924 53.8974 1.83981 51.6401 1.8401Z" fill="var(--fill-0, #2A9D8F)" stroke="var(--stroke-0, #2A9D8F)"/>
<path id="Vector_32" d="M66.0515 43.1633C66.6571 45.2443 66.4441 47.2945 65.806 49.3231C65.6604 49.7866 65.4627 50.3296 64.8294 50.0985C64.21 49.8724 64.3845 49.3462 64.5534 48.8755C65.1617 47.1788 65.1535 45.4381 64.9162 43.6813C65.4132 43.7728 65.582 43.1336 66.0512 43.1636L66.0515 43.1633Z" fill="var(--fill-0, #2A9D8F)" stroke="var(--stroke-0, #2A9D8F)"/>
<path id="Vector_33" d="M32.649 30.4239C34.8829 30.6334 36.4634 31.7925 37.6408 33.5813C37.8413 33.8861 37.759 34.1945 37.4804 34.4095C37.2021 34.6241 36.9012 34.5959 36.6347 34.3613C36.5513 34.288 36.484 34.1942 36.4172 34.1036C35.4565 32.8005 34.2587 31.8886 32.5925 31.7535C32.1742 31.7195 31.8577 31.5243 31.88 31.0864C31.9041 30.6126 32.2618 30.4327 32.649 30.4239Z" fill="var(--fill-0, #2A9D8F)" stroke="var(--stroke-0, #2A9D8F)"/>
<path id="Vector_34" d="M32.8465 26.558C32.8012 26.0936 33.333 25.7863 33.1856 25.294C35.5026 25.4254 37.5384 26.2527 39.2838 27.7981C39.2213 28.2764 38.8723 28.5042 38.4984 28.71C37.0825 27.7907 35.6434 26.9249 33.9283 26.6951C33.568 26.647 33.2071 26.6036 32.8465 26.558Z" fill="var(--fill-0, #2A9D8F)" stroke="var(--stroke-0, #2A9D8F)"/>
<path id="Vector_35" d="M75.4582 48.2874C74.97 48.1389 74.6654 48.6771 74.2041 48.6284C74.2036 46.467 74.2027 44.3056 74.2021 42.1442C74.6651 42.1923 74.9717 41.6547 75.4613 41.8027C75.4602 43.9643 75.4593 46.126 75.4582 48.2877V48.2874Z" fill="var(--fill-0, #2A9D8F)" stroke="var(--stroke-0, #2A9D8F)"/>
<path id="Vector_36" d="M53.5023 12.8547C53.601 13.3869 52.8736 13.5831 52.9941 14.1241C50.9059 14.1241 48.8177 14.1244 46.7296 14.1247C46.6673 13.6535 47.1159 13.3208 47.0687 12.8536C49.2131 12.7863 51.3579 12.7835 53.5023 12.8547Z" fill="var(--fill-0, #2A9D8F)" stroke="var(--stroke-0, #2A9D8F)"/>
<path id="Vector_37" d="M43.8592 44.53C43.1911 44.386 43.009 45.3307 42.3525 45.2133C43.0135 43.1055 43.4098 40.9578 43.3099 38.7357C43.7916 38.7599 43.9788 38.0988 44.5007 38.2168C44.7244 40.3665 44.5855 42.4786 43.8592 44.53Z" fill="var(--fill-0, #2A9D8F)" stroke="var(--stroke-0, #2A9D8F)"/>
<path id="Vector_38" d="M57.0593 25.4517C59.0909 25.4517 61.1228 25.4517 63.1544 25.4514C63.3077 25.9462 62.7717 26.2541 62.8153 26.7194C60.7277 26.7918 58.6404 26.7903 56.5528 26.7194C56.5047 26.2088 57.0537 25.9405 57.0591 25.4519L57.0593 25.4517Z" fill="var(--fill-0, #2A9D8F)" stroke="var(--stroke-0, #2A9D8F)"/>
<path id="Vector_39" d="M71.9704 8.01364C71.4421 7.87766 71.2429 8.52391 70.7726 8.52562C70.763 7.61682 70.731 6.70773 70.7497 5.79979C70.7734 4.64754 70.5011 3.60931 69.7295 2.73244C70.098 2.52691 70.3755 2.2273 70.602 1.87495C71.3465 2.45592 71.7526 3.26809 71.9101 4.15693C72.1356 5.42891 72.1525 6.72455 71.9704 8.01335V8.01364Z" fill="var(--fill-0, #2A9D8F)" stroke="var(--stroke-0, #2A9D8F)"/>
<path id="Vector_40" d="M57.0586 25.4516C57.0532 25.9405 56.504 26.2088 56.5523 26.719C54.5207 26.7926 52.4894 26.7883 50.4578 26.719C50.3574 26.1874 51.0834 25.9912 50.9646 25.4519C52.996 25.4519 55.0273 25.4519 57.0586 25.4519V25.4516Z" fill="var(--fill-0, #2A9D8F)" stroke="var(--stroke-0, #2A9D8F)"/>
<path id="Vector_41" d="M53.3347 72.4578C53.2292 71.9225 53.9581 71.7252 53.8429 71.1859C55.8745 71.1859 57.9061 71.1859 59.9375 71.1861C59.9273 71.6745 59.3772 71.9439 59.4306 72.4578C57.3987 72.4578 55.3666 72.4578 53.3347 72.4578Z" fill="var(--fill-0, #2A9D8F)" stroke="var(--stroke-0, #2A9D8F)"/>
<path id="Vector_42" d="M58.4128 1.83932C58.3466 1.36753 58.895 1.06165 58.7508 0.568762C60.7824 0.49949 62.814 0.497779 64.8459 0.569902C64.8877 1.03285 64.367 1.34244 64.5065 1.83219C62.4754 1.83476 60.4441 1.83704 58.4131 1.8396L58.4128 1.83932Z" fill="var(--fill-0, #2A9D8F)" stroke="var(--stroke-0, #2A9D8F)"/>
<path id="Vector_43" d="M53.1623 65.3699C53.0285 64.8374 53.655 64.6319 53.6731 64.1646C55.9869 64.1652 58.3008 64.1661 60.615 64.1666C60.6079 64.6929 59.9155 64.8254 59.9356 65.3673C57.6777 65.3682 55.4201 65.3688 53.1623 65.3696V65.3699Z" fill="var(--fill-0, #2A9D8F)" stroke="var(--stroke-0, #2A9D8F)"/>
<path id="Vector_44" d="M48.4111 54.9655C48.6445 54.6644 48.8781 54.3631 49.1114 54.0621C50.8715 54.9686 52.6746 55.7366 54.6895 55.8241C54.6869 56.3024 54.1532 56.5604 54.1869 57.0536C52.0532 56.9436 50.1243 56.2571 48.4111 54.9655Z" fill="var(--fill-0, #2A9D8F)" stroke="var(--stroke-0, #2A9D8F)"/>
<path id="Vector_45" d="M44.5012 38.2164C43.9793 38.0984 43.7921 38.7595 43.3104 38.7352C43.0502 36.7933 42.6401 34.8911 41.8408 33.0917C42.3137 33.0749 42.4532 32.5612 42.8378 32.4127C43.9075 34.1972 44.3487 36.1648 44.5012 38.2164Z" fill="var(--fill-0, #2A9D8F)" stroke="var(--stroke-0, #2A9D8F)"/>
<path id="Vector_46" d="M74.5459 19.0814C74.1739 19.2861 73.8951 19.588 73.6623 19.9384C72.9235 19.1128 71.9916 18.7958 70.9018 18.7496C69.9857 18.7109 69.1703 18.3386 68.5518 17.6136C68.6847 17.2003 69.2241 17.0597 69.2427 16.5694C69.898 17.1518 70.6405 17.432 71.5348 17.4791C72.7513 17.5432 73.8289 18.0013 74.5461 19.0814H74.5459Z" fill="var(--fill-0, #2A9D8F)" stroke="var(--stroke-0, #2A9D8F)"/>
<path id="Vector_47" d="M35.8338 63.9856C35.239 63.8859 35.0979 64.6447 34.567 64.6661C34.558 62.8271 34.552 60.9881 34.5382 59.1491C34.5345 58.6734 34.6598 58.248 35.1949 58.2552C35.7077 58.2617 35.8765 58.6611 35.8712 59.1489C35.8533 60.7612 35.8454 62.3736 35.8338 63.9856Z" fill="var(--fill-0, #2A9D8F)" stroke="var(--stroke-0, #2A9D8F)"/>
<path id="Vector_48" d="M4.96974 66.3711C5.50119 66.4706 5.70172 65.732 6.24419 65.86C6.24787 67.6428 6.24787 69.4259 6.25833 71.2088C6.26116 71.678 6.16019 72.1164 5.63072 72.1404C5.04215 72.1672 4.91515 71.7145 4.92109 71.2079C4.94033 69.5958 4.9539 67.9835 4.96946 66.3714L4.96974 66.3711Z" fill="var(--fill-0, #2A9D8F)" stroke="var(--stroke-0, #2A9D8F)"/>
<path id="Vector_49" d="M64.5062 1.832C64.3668 1.34225 64.8875 1.03266 64.8456 0.56971C66.1325 0.513836 67.4307 0.388691 68.691 0.725073C69.4154 0.91835 70.1219 1.22822 70.6021 1.87504C70.3756 2.2271 70.0981 2.52671 69.7296 2.73253C68.8808 2.06233 67.924 1.79665 66.8444 1.85765C66.068 1.90155 65.2857 1.84426 64.5062 1.83228V1.832Z" fill="var(--fill-0, #2A9D8F)" stroke="var(--stroke-0, #2A9D8F)"/>
<path id="Vector_50" d="M42.8373 32.4131C42.4526 32.5616 42.3132 33.0753 41.8403 33.0922C40.9873 31.4291 39.8231 30.0071 38.498 28.7098C38.8717 28.5042 39.2207 28.2768 39.2832 27.7984C40.8716 29.0211 42.0799 30.5408 42.8373 32.4134V32.4131Z" fill="var(--fill-0, #2A9D8F)" stroke="var(--stroke-0, #2A9D8F)"/>
<path id="Vector_51" d="M59.936 65.3677C59.9159 64.8257 60.608 64.6932 60.6153 64.1669C62.7035 64.1669 64.7914 64.1669 66.8796 64.1669C66.8281 64.6182 66.3524 64.8865 66.3705 65.3677C64.2257 65.3677 62.0807 65.3677 59.936 65.3677Z" fill="var(--fill-0, #2A9D8F)" stroke="var(--stroke-0, #2A9D8F)"/>
<path id="Vector_52" d="M45.3755 26.7202C43.8601 26.7339 42.3444 26.7467 40.8289 26.7624C40.3642 26.7673 40.035 26.5452 40.0265 26.0837C40.0175 25.5976 40.3812 25.42 40.8303 25.4226C42.5149 25.4317 44.1995 25.4417 45.8843 25.4514C45.8781 25.9408 45.3314 26.2105 45.3758 26.7205L45.3755 26.7202Z" fill="var(--fill-0, #2A9D8F)" stroke="var(--stroke-0, #2A9D8F)"/>
<path id="Vector_53" d="M54.8575 35.4541C54.7019 34.9587 55.239 34.6508 55.1957 34.1859C57.1122 34.2805 58.9594 34.6286 60.6129 35.687C60.5215 36.1292 60.166 36.382 59.8993 36.6987C58.301 35.945 56.6334 35.4758 54.8572 35.4541H54.8575Z" fill="var(--fill-0, #2A9D8F)" stroke="var(--stroke-0, #2A9D8F)"/>
<path id="Vector_54" d="M62.815 26.7194C62.7715 26.2541 63.3074 25.9462 63.1541 25.4514C64.9603 25.4514 66.7662 25.4517 68.5724 25.4519C68.5662 25.9405 68.0166 26.2088 68.0661 26.7199C66.3157 26.7915 64.5655 26.7878 62.815 26.7196V26.7194Z" fill="var(--fill-0, #2A9D8F)" stroke="var(--stroke-0, #2A9D8F)"/>
<path id="Vector_55" d="M0.502929 61.0824C0.975828 61.0804 1.17777 60.4322 1.70893 60.5681C1.70724 62.5579 1.70554 64.5477 1.70384 66.5375C1.22981 66.5309 1.03522 67.1832 0.508303 67.052C0.506606 65.062 0.504626 63.0722 0.502929 61.0821V61.0824Z" fill="var(--fill-0, #2A9D8F)" stroke="var(--stroke-0, #2A9D8F)"/>
<path id="Vector_56" d="M0.508789 67.0524C1.03543 67.1835 1.2303 66.5313 1.70433 66.5378C1.92296 68.1644 1.76853 69.8022 1.84235 71.4333C1.8613 71.853 1.59685 72.1534 1.16496 72.1255C0.687823 72.0947 0.520668 71.7255 0.518405 71.286C0.510768 69.8749 0.511617 68.4635 0.509071 67.0524H0.508789Z" fill="var(--fill-0, #2A9D8F)" stroke="var(--stroke-0, #2A9D8F)"/>
<path id="Vector_57" d="M45.3756 26.7201C45.3312 26.2101 45.8779 25.9405 45.8841 25.451C47.5778 25.451 49.2714 25.4513 50.965 25.4516C51.0838 25.9909 50.3577 26.1868 50.4581 26.7187C48.764 26.7928 47.0698 26.7891 45.3756 26.7201Z" fill="var(--fill-0, #2A9D8F)" stroke="var(--stroke-0, #2A9D8F)"/>
<path id="Vector_58" d="M66.0512 43.1633C65.582 43.1333 65.4131 43.7725 64.9162 43.6809C64.5773 42.1461 63.9147 40.7573 63.043 39.4631C63.4429 39.3428 63.633 38.8074 64.1401 38.8998C65.158 40.1475 65.8444 41.5463 66.0512 43.1635V43.1633Z" fill="var(--fill-0, #2A9D8F)" stroke="var(--stroke-0, #2A9D8F)"/>
<path id="Vector_59" d="M64.1406 38.8995C63.6332 38.8072 63.4435 39.3425 63.0435 39.4628C62.1574 38.3548 61.0634 37.4867 59.9004 36.6988C60.1668 36.3821 60.5226 36.1292 60.6137 35.6871C62.0508 36.4665 63.2788 37.4787 64.1406 38.8995Z" fill="var(--fill-0, #2A9D8F)" stroke="var(--stroke-0, #2A9D8F)"/>
<path id="Vector_60" d="M39.2976 41.2909C38.7546 41.3291 38.5133 41.9765 37.9482 41.9702C38.1174 40.7051 38.2226 39.4405 38.0042 38.1674C37.9265 37.715 38.1143 37.3521 38.577 37.2811C39.0123 37.2144 39.2371 37.5137 39.3041 37.9302C39.4846 39.0508 39.5692 40.1712 39.2976 41.2909Z" fill="var(--fill-0, #2A9D8F)" stroke="var(--stroke-0, #2A9D8F)"/>
<path id="Vector_61" d="M54.383 11.7675C54.3731 9.80904 54.3666 7.85061 54.3516 5.89247C54.348 5.4107 54.4882 4.99564 55.0177 4.99592C55.5477 4.99592 55.6909 5.41612 55.6866 5.89418C55.6708 7.73858 55.6589 9.58298 55.6456 11.4271C55.1563 11.2831 54.8497 11.8265 54.383 11.7677V11.7675Z" fill="var(--fill-0, #2A9D8F)" stroke="var(--stroke-0, #2A9D8F)"/>
</g>
</svg>
