<svg preserveAspectRatio="none" width="100%" height="100%" overflow="visible" style="display: block;" viewBox="0 0 74 86" fill="none" xmlns="http://www.w3.org/2000/svg">
<g id="Layer_1" clip-path="url(#clip0_0_61)">
<path id="Vector" d="M40.5343 86.0001C39.5325 85.5691 38.4389 85.6005 37.3945 85.3828C31.263 84.0944 26.0166 81.2032 21.6533 76.7206C21.0818 76.1325 20.526 75.8923 19.7058 75.9036C16.1851 75.9529 12.6644 75.9283 9.14141 75.9238C3.89731 75.9148 0.105429 72.1954 0.0247506 66.9271C-0.0200707 63.9889 0.0113042 61.0483 0.0202684 58.1101C0.0225095 57.1179 0.484169 56.5411 1.24613 56.5186C2.04843 56.4939 2.52802 57.0775 2.5325 58.1213C2.53923 60.5006 2.53474 62.88 2.53474 65.2593C2.53474 65.5601 2.45631 65.8587 2.96279 65.8564C6.87345 65.8407 10.7819 65.8475 14.7911 65.8475C12.6218 59.623 12.429 53.3806 14.1412 47.0237C10.3605 47.0237 6.67399 47.0304 2.98744 47.0147C2.51009 47.0147 2.53026 47.2661 2.53026 47.5938C2.53699 49.1898 2.53923 50.7857 2.53026 52.3817C2.52354 53.4524 2.07757 53.9911 1.24613 53.9709C0.459517 53.9507 0.0202684 53.4097 0.0157863 52.3951C0.00682205 50.2111 0.0247506 48.027 0.0113042 45.8452C-0.00438328 43.4187 0.782231 41.2436 2.01258 39.1942C2.57508 38.2582 3.05915 37.2885 3.15328 36.1662C3.27654 34.6825 2.85746 33.3536 2.09101 32.1056C1.21476 30.6757 0.367634 29.2324 0.125599 27.5242C-0.188151 25.3312 0.307125 23.3042 1.34698 21.3873C2.51906 19.2257 4.1147 17.3963 5.87393 15.7038C6.26388 15.3289 6.48126 15.0977 5.96806 14.6039C5.27333 13.9372 5.05146 13.0192 5.04698 12.0674C5.03801 9.35137 5.0156 6.63533 5.05146 3.92152C5.08508 1.55115 6.6852 0.00681839 9.04952 0.00457372C16.4562 8.4386e-05 23.8607 8.4386e-05 31.2674 0.00457372C33.6744 0.00457372 35.279 1.57584 35.2969 3.97315C35.3193 6.63308 35.3036 9.29077 35.3014 11.9507C35.3014 12.9945 35.0347 13.9597 34.2884 14.7116C33.9366 15.0663 33.9859 15.2414 34.322 15.5601C35.967 17.1247 37.464 18.8216 38.645 20.7745C38.8467 21.109 39.0641 21.4524 38.9834 21.8699C38.8803 22.4064 38.5778 22.7902 38.0287 22.9226C37.399 23.0753 36.9351 22.8127 36.6191 22.2829C35.2677 20.0248 33.4727 18.1595 31.5453 16.3974C31.1868 16.0697 30.8327 15.9507 30.3576 15.9529C23.5671 15.9664 16.7767 15.9664 9.98405 15.9529C9.50894 15.9529 9.15485 16.0697 8.79628 16.3996C7.00343 18.0517 5.30246 19.7824 3.98471 21.8564C2.23668 24.6084 1.99465 27.3581 3.86146 30.1752C4.82511 31.6297 5.55122 33.1875 5.67 34.981C5.78653 36.7431 5.36745 38.3525 4.51809 39.8834C3.81439 41.1471 3.06588 42.3907 2.72748 43.834C2.58181 44.4535 2.77006 44.5141 3.30343 44.5119C6.99222 44.4939 10.681 44.4917 14.3698 44.5164C14.8785 44.5209 15.0668 44.3345 15.2618 43.8879C19.6049 33.9417 27.0386 27.6342 37.6679 25.4883C46.686 23.6679 54.9443 25.7509 62.2726 31.3761C63.0592 31.9799 63.1982 32.687 62.6962 33.3155C62.2121 33.9215 61.486 33.9485 60.7016 33.3334C56.9501 30.4086 52.7301 28.5613 48.0463 27.7644C35.8661 25.6926 23.4372 32.229 18.1998 43.4591C10.9701 58.9586 18.8609 76.9788 35.1624 82.2088C51.1009 87.3222 68.4266 76.7206 71.0531 60.2246C72.4515 51.4479 70.2373 43.6679 64.48 36.9024C64.3344 36.7318 64.1663 36.577 64.0498 36.3907C63.6755 35.7913 63.7091 35.1987 64.2492 34.7296C64.7848 34.265 65.4123 34.2515 65.9054 34.7655C66.5642 35.4479 67.1828 36.1774 67.752 36.9361C81.1693 54.8239 71.8599 80.0427 50.4442 85.1875C49.0862 85.513 47.7146 85.7577 46.3184 85.8497C46.2019 85.8564 46.1011 85.8744 46.0652 86.0068H40.532L40.5343 86.0001ZM20.2011 2.52309C16.5414 2.52309 12.884 2.52309 9.22433 2.52309C7.98726 2.52309 7.57714 2.93611 7.56818 4.18864C7.55921 5.39178 7.58611 6.59492 7.55697 7.79806C7.54577 8.26945 7.68023 8.42208 8.16206 8.41086C9.58514 8.37943 11.0105 8.3929 12.4358 8.40188C13.3681 8.40861 13.9037 8.85979 13.9216 9.62523C13.9395 10.4311 13.3949 10.9114 12.4223 10.9182C10.997 10.9271 9.57393 10.9159 8.14861 10.9249C7.94916 10.9249 7.70488 10.8171 7.57714 11.1134C7.111 12.1931 7.89313 13.4322 9.07417 13.4344C16.4764 13.4412 23.8787 13.4389 31.2809 13.4344C31.4736 13.4344 31.6776 13.4344 31.8613 13.3806C32.6009 13.1628 32.9886 12.3368 32.7757 11.2818C32.63 10.5568 32.0025 10.9428 31.6193 10.9406C27.5966 10.9092 23.5761 10.9204 19.5534 10.9204C18.9102 10.9204 18.267 10.9473 17.6261 10.9047C17.0412 10.8643 16.6445 10.5321 16.51 9.93948C16.3756 9.35138 16.5907 8.90244 17.086 8.57921C17.4109 8.36597 17.7785 8.39964 18.1415 8.39964C22.7783 8.39964 27.4151 8.39066 32.0518 8.4131C32.6211 8.41535 32.8272 8.29414 32.8003 7.68583C32.7488 6.56799 32.7869 5.4479 32.7846 4.33005C32.7824 2.91142 32.4037 2.52309 31.012 2.52309C27.4083 2.52309 23.8047 2.52309 20.2033 2.52309H20.2011ZM18.8049 73.4008C17.7068 71.8048 16.7453 70.2762 15.9901 68.6331C15.831 68.2874 15.5419 68.3682 15.2774 68.3682C11.2839 68.366 7.29253 68.3817 3.29895 68.3525C2.67593 68.348 2.69386 68.5702 2.83056 69.0281C3.57012 71.4995 6.02633 73.3716 8.67751 73.3963C11.9988 73.4255 15.3223 73.403 18.8049 73.403V73.4008Z" fill="var(--fill-0, #2A9D8F)"/>
<path id="Vector_2" d="M37.2062 53.6521C37.1569 55.2189 36.4397 56.3928 35.0301 57.055C33.5824 57.7351 32.1526 57.5443 30.9738 56.4691C29.6112 55.2256 28.3069 53.9125 27.0609 52.5544C25.6961 51.064 25.8148 48.7969 27.2312 47.3917C28.6117 46.0224 30.8684 45.8923 32.3251 47.2189C33.7079 48.4804 35.0054 49.8361 36.3008 51.1897C36.9395 51.8586 37.2196 52.7116 37.2062 53.6521ZM29.9339 48.8395C29.34 48.844 28.9725 49.1021 28.7506 49.5713C28.4862 50.1302 28.6565 50.6173 29.0577 51.0236C30.1737 52.1594 31.2965 53.2884 32.4349 54.4018C33.0938 55.046 33.811 55.064 34.3488 54.4961C34.8441 53.9753 34.8105 53.2458 34.2144 52.6352C33.123 51.5152 32.0069 50.4175 30.9021 49.3086C30.6174 49.0213 30.2992 48.8103 29.9362 48.8373L29.9339 48.8395Z" fill="var(--fill-0, #2A9D8F)"/>
<path id="Vector_3" d="M44.1221 46.3075C45.1261 46.3008 45.9956 46.6442 46.7038 47.3378C47.9431 48.5499 49.1892 49.7598 50.3792 51.0191C51.8583 52.5859 51.7866 54.9158 50.2738 56.3681C48.7835 57.8002 46.5268 57.78 44.9916 56.2873C43.768 55.0999 42.5466 53.9035 41.3835 52.6577C40.2652 51.4635 40.0254 50.0426 40.6843 48.541C41.332 47.0662 42.5332 46.3636 44.1221 46.3053V46.3075ZM44.1221 48.8417C43.582 48.835 43.201 49.0864 42.9836 49.5578C42.7349 50.1033 42.8649 50.6016 43.275 51.0146C44.4157 52.1661 45.5519 53.3221 46.7128 54.4512C47.3291 55.0505 48.0462 55.046 48.5684 54.505C49.0569 53.9978 49.0614 53.2817 48.5056 52.7071C47.3582 51.5241 46.1794 50.3704 45.014 49.2054C44.7653 48.9562 44.4695 48.8238 44.1221 48.8395V48.8417Z" fill="var(--fill-0, #2A9D8F)"/>
<path id="Vector_4" d="M66.3938 59.8765C66.4073 60.945 66.0039 61.8406 65.271 62.5859C64.1169 63.7598 62.965 64.9383 61.7795 66.0786C60.1861 67.6094 57.8643 67.596 56.383 66.0853C54.8949 64.5657 54.9375 62.2806 56.5018 60.6846C57.6738 59.4882 58.8369 58.2828 60.0583 57.1403C61.2483 56.0269 62.6647 55.7755 64.1595 56.4444C65.6184 57.0954 66.34 58.2828 66.3938 59.8788V59.8765ZM63.8726 59.9327C63.8592 59.3199 63.5947 58.954 63.1219 58.7385C62.5616 58.4826 62.082 58.6599 61.6741 59.064C60.5424 60.1841 59.4129 61.3086 58.3013 62.4489C57.6828 63.0819 57.6559 63.7598 58.1736 64.3053C58.6935 64.8552 59.4465 64.8328 60.0875 64.2043C61.2057 63.1089 62.3016 61.9933 63.4065 60.8866C63.6933 60.5993 63.9018 60.2806 63.8704 59.9349L63.8726 59.9327Z" fill="var(--fill-0, #2A9D8F)"/>
<path id="Vector_5" d="M51.0246 46.33C51.1075 44.835 51.8583 43.6745 53.2858 43.0572C54.7089 42.44 56.1141 42.624 57.2637 43.6925C58.6151 44.9472 59.9261 46.2536 61.1721 47.6117C62.5347 49.0954 62.4092 51.367 60.9861 52.7677C59.5698 54.1639 57.2929 54.2424 55.8317 52.8709C54.5072 51.6274 53.241 50.321 51.977 49.0146C51.2846 48.2985 51.0111 47.3962 51.0268 46.33H51.0246ZM54.803 45.2593C54.236 45.3019 53.8304 45.5398 53.6444 46.0247C53.4494 46.5275 53.5211 47.0168 53.92 47.4186C55.0832 48.5859 56.2351 49.7643 57.4139 50.9136C57.9853 51.4703 58.7025 51.468 59.209 50.9764C59.7491 50.4534 59.7491 49.7351 59.1507 49.1201C58.0212 47.9596 56.8648 46.826 55.7219 45.6745C55.4507 45.4007 55.1235 45.2772 54.8008 45.2593H54.803Z" fill="var(--fill-0, #2A9D8F)"/>
<path id="Vector_6" d="M30.093 74.8148C28.7753 74.7767 27.5853 74.1033 26.913 72.6801C26.2294 71.2346 26.3639 69.8025 27.4396 68.6173C28.6968 67.2301 30.028 65.9035 31.4041 64.6375C32.8809 63.2772 35.1601 63.4186 36.5495 64.8507C37.9144 66.2559 38.0152 68.4983 36.6795 69.9484C35.4313 71.3042 34.0978 72.5859 32.7756 73.8743C32.1078 74.523 31.2629 74.8013 30.0908 74.8148H30.093ZM35.1085 67.477C35.057 66.9719 34.8441 66.5679 34.3645 66.3479C33.811 66.0943 33.3291 66.2357 32.9145 66.6465C31.7671 67.789 30.613 68.927 29.4835 70.0875C28.8963 70.6914 28.8963 71.4321 29.4297 71.9461C29.9451 72.4444 30.6936 72.4108 31.2942 71.8227C32.4103 70.7273 33.5039 69.6072 34.6133 68.5051C34.9046 68.2155 35.0816 67.8855 35.1108 67.4748L35.1085 67.477Z" fill="var(--fill-0, #2A9D8F)"/>
<path id="Vector_7" d="M36.4016 43.0101C35.0794 42.945 33.8961 42.2492 33.2395 40.8283C32.5694 39.376 32.7465 37.9461 33.8222 36.7654C35.0637 35.4029 36.3747 34.0943 37.7306 32.844C39.1873 31.4994 41.4194 31.5937 42.8245 32.9562C44.2543 34.3412 44.4112 36.6173 43.0576 38.1145C41.8026 39.5017 40.4445 40.8013 39.0932 42.0988C38.4276 42.7385 37.5715 43.0146 36.4039 43.0101H36.4016ZM36.8005 40.5028C36.9014 40.5118 37.1838 40.4377 37.3855 40.2402C38.6606 38.9854 39.9492 37.7419 41.1729 36.4377C41.6502 35.9282 41.574 35.275 41.0653 34.7789C40.5857 34.3098 39.956 34.2267 39.4741 34.6824C38.1721 35.908 36.9193 37.1874 35.6733 38.4714C35.3125 38.8418 35.2968 39.3401 35.5343 39.8047C35.7517 40.2357 36.1193 40.4646 36.8005 40.5051V40.5028Z" fill="var(--fill-0, #2A9D8F)"/>
<path id="Vector_8" d="M49.9578 66.1975C49.9197 67.7621 49.2205 68.9383 47.8064 69.6117C46.3923 70.2851 44.9737 70.1481 43.8173 69.1066C42.3853 67.8182 41.0093 66.4512 39.7319 65.0123C38.4119 63.5264 38.6091 61.2884 40.0277 59.9259C41.4328 58.5746 43.6784 58.4871 45.1239 59.8249C46.4775 61.0774 47.7616 62.4085 49.0368 63.7419C49.6755 64.4108 49.969 65.257 49.9578 66.1975ZM47.4322 66.1033C47.4591 65.8451 47.3201 65.5668 47.1005 65.3446C45.9015 64.1324 44.7115 62.9113 43.4812 61.7306C42.9612 61.2323 42.1948 61.2862 41.7488 61.78C41.2715 62.3075 41.202 62.9248 41.695 63.4433C42.9097 64.7161 44.1624 65.9551 45.4264 67.1829C45.7984 67.5443 46.2892 67.5713 46.7554 67.3333C47.217 67.0999 47.4568 66.7093 47.4344 66.1033H47.4322Z" fill="var(--fill-0, #2A9D8F)"/>
<path id="Vector_9" d="M23.2981 57.0932C24.0444 57.1111 24.5598 57.6094 24.5016 58.4916C24.4411 59.3984 24.6831 59.7194 25.6243 59.6296C26.4804 59.5488 27.0048 60.0808 27.025 60.8193C27.0452 61.578 26.4849 62.1818 25.6087 62.1033C24.6562 62.018 24.4411 62.3524 24.5016 63.2413C24.5576 64.0763 23.9772 64.633 23.2735 64.6375C22.5698 64.642 21.9624 64.0808 22.0364 63.257C22.1238 62.2738 21.7764 62.0404 20.8554 62.1033C20.0306 62.1594 19.4995 61.5668 19.5085 60.835C19.5197 60.0898 20.0396 59.5555 20.8935 59.6296C21.8056 59.7082 22.1014 59.4456 22.0342 58.5073C21.9669 57.5825 22.5137 57.0752 23.3026 57.0932H23.2981Z" fill="var(--fill-0, #2A9D8F)"/>
<path id="Vector_10" d="M51.7866 39.4433C51.0291 39.4545 50.471 38.8597 50.5338 37.9035C50.5898 37.0819 50.3366 36.862 49.5343 36.9136C48.5751 36.9764 48.0081 36.4332 48.0126 35.6476C48.0193 34.8552 48.5617 34.3524 49.5544 34.4332C50.415 34.5028 50.5607 34.1751 50.5316 33.4052C50.489 32.303 51.233 31.6611 52.1227 31.9349C52.8152 32.1459 53.1021 32.7026 53.0169 33.367C52.8981 34.2896 53.2881 34.5477 54.1173 34.4153C54.2248 34.3973 54.3414 34.4085 54.4512 34.4265C55.0406 34.5185 55.4104 34.8552 55.5022 35.4501C55.5986 36.0763 55.3543 36.5455 54.7694 36.7991C54.5722 36.8844 54.3279 36.9607 54.124 36.9248C53.1939 36.7609 52.9385 37.1313 53.0057 38.0404C53.0684 38.8754 52.4902 39.4343 51.7843 39.4456L51.7866 39.4433Z" fill="var(--fill-0, #2A9D8F)"/>
<path id="Vector_11" d="M58.5523 73.6184C58.5546 74.3951 57.9719 74.945 57.0172 74.8754C56.197 74.8171 55.9796 75.0707 56.0289 75.8721C56.0872 76.8238 55.5202 77.4209 54.7649 77.4052C54.0097 77.3894 53.4942 76.8013 53.5503 75.8249C53.5928 75.0572 53.362 74.8305 52.6001 74.8754C51.6185 74.936 51.0537 74.431 51.0336 73.6521C51.0134 72.8283 51.5669 72.3367 52.6157 72.3861C53.315 72.4198 53.6018 72.2783 53.5548 71.4927C53.4875 70.3928 53.9469 69.8676 54.7716 69.8563C55.6031 69.8451 56.0984 70.3816 56.0334 71.4523C55.9841 72.2649 56.2866 72.422 57.015 72.3861C58.001 72.3367 58.5546 72.8283 58.5568 73.6139L58.5523 73.6184Z" fill="var(--fill-0, #2A9D8F)"/>
</g>
<defs>
<clipPath id="clip0_0_61">
<rect width="74" height="86" fill="white"/>
</clipPath>
</defs>
</svg>
