<svg preserveAspectRatio="none" width="100%" height="100%" overflow="visible" style="display: block;" viewBox="0 0 197.696 660.51" fill="none" xmlns="http://www.w3.org/2000/svg">
<path id="Ellipse 14" d="M170.487 659.4C169.675 660.572 168.067 660.864 166.901 660.045C113.498 622.535 70.2786 572.293 41.1703 513.854C11.6784 454.645 -2.37113 388.942 0.32661 322.85C3.02435 256.757 22.3819 192.419 56.6012 135.81C90.3754 79.938 137.546 33.3849 193.828 0.352373C195.057 -0.368849 196.636 0.0534267 197.349 1.28699C198.063 2.52056 197.641 4.09772 196.411 4.81854C140.83 37.4159 92.3417 83.3509 59.017 138.48C25.2476 194.344 6.14448 257.837 3.4822 323.06C0.819919 388.284 14.6848 453.122 43.789 511.553C72.5098 569.214 117.099 618.79 169.84 655.804C171.006 656.623 171.298 658.229 170.487 659.4Z" fill="url(#paint0_linear_0_70)"/>
<defs>
<linearGradient id="paint0_linear_0_70" x1="99.3203" y1="661.521" x2="99.3203" y2="-0.946576" gradientUnits="userSpaceOnUse">
<stop stop-color="#2A9D8F" stop-opacity="0"/>
<stop offset="0.5" stop-color="#2A9D8F" stop-opacity="0.5"/>
<stop offset="1" stop-color="#2A9D8F" stop-opacity="0"/>
</linearGradient>
</defs>
</svg>
