<svg width="101" height="59" viewBox="0 0 100.559 59.1645" fill="none" xmlns="http://www.w3.org/2000/svg">
<g id="Icon">
<path id="Vector 1" d="M39.5973 39.8183L50.3174 29.5358L62.1314 40.9122C70.1825 47.7381 78.6127 42.2978 81.8215 38.7244C90.0475 27.523 82.4778 19.3261 77.6647 16.6278C69.2636 12.0773 63.5915 16.8466 61.0376 19.2532L71.5389 8.31429C80.9901 0.263263 90.1653 5.90772 93.6355 10.5021C106.062 26.9542 99.3237 42.0061 92.3228 49.6633C77.0959 63.8401 62.1314 59.5083 54.2554 53.6013L39.5973 39.8183Z" fill="var(--fill-0, white)"/>
<path id="Vector 2" d="M60.9616 19.3462L50.2414 29.6287L38.4274 18.2523C30.3764 11.4264 21.9462 16.8667 18.7374 20.4401C10.5114 31.6415 18.0811 39.8384 22.8942 42.5366C31.2953 47.0872 37.0448 42.4429 39.5987 40.0363L29.02 50.8502C19.5688 58.9012 10.3936 53.2568 6.9234 48.6624C-5.50319 32.2103 1.23518 17.1584 8.23608 9.50115C23.463 -4.67566 38.4274 -0.34384 46.3034 5.56315L60.9616 19.3462Z" fill="var(--fill-0, #2A9D8F)"/>
</g>
</svg>
