<svg preserveAspectRatio="none" width="100%" height="100%" overflow="visible" style="display: block;" viewBox="0 0 60 87.0001" fill="none" xmlns="http://www.w3.org/2000/svg">
<g id="Group 7">
<path id="Vector" fill-rule="evenodd" clip-rule="evenodd" d="M3.00001 29.6869C3.00741 24.4092 4.59327 19.2544 7.55372 14.8846C10.5327 10.4767 14.7505 7.04923 19.6754 5.03448C29.7611 0.903353 41.3388 3.17829 49.1098 10.8182C54.8119 16.4447 57.6641 24.347 56.8689 32.3173C56.0738 40.2876 51.7167 47.4711 45.0152 51.8605C40.5301 54.6864 35.3093 56.124 30.009 55.9917C22.9083 56.1391 16.0391 53.4649 10.9082 48.5555C5.85459 43.5764 3.00643 36.7806 3.00001 29.6869Z" stroke="var(--stroke-0, #6B7280)" stroke-width="6" stroke-linecap="round" stroke-linejoin="round"/>
<path id="Vector_2" d="M31.0908 79.0997V79.9122H28.9092V79.0997H31.0908ZM37.9092 70.9249V73.0997H37.0908V70.9249H37.9092ZM22.9092 70.9249V73.0997H22.0908V70.9249H22.9092ZM31.0908 63.088V64.9249H28.9092V63.088H31.0908Z" fill="var(--fill-0, #6B7280)" stroke="var(--stroke-0, #6B7280)" stroke-width="6"/>
</g>
</svg>
