<svg preserveAspectRatio="none" width="100%" height="100%" overflow="visible" style="display: block;" viewBox="0 0 80 80" fill="none" xmlns="http://www.w3.org/2000/svg">
<g id="Group 6">
<path id="Vector" d="M28.5714 74.2857C34.6335 74.2857 40.4473 71.8776 44.7339 67.591C49.0204 63.3045 51.4286 57.4907 51.4286 51.4286C51.4286 45.3665 49.0204 39.5527 44.7339 35.2661C40.4473 30.9796 34.6335 28.5714 28.5714 28.5714C22.5093 28.5714 16.6955 30.9796 12.409 35.2661C8.12244 39.5527 5.71429 45.3665 5.71429 51.4286C5.71429 57.4907 8.12244 63.3045 12.409 67.591C16.6955 71.8776 22.5093 74.2857 28.5714 74.2857ZM28.5714 80C20.9938 80 13.7266 76.9898 8.36838 71.6316C3.0102 66.2734 0 59.0062 0 51.4286C0 43.851 3.0102 36.5837 8.36838 31.2255C13.7266 25.8673 20.9938 22.8571 28.5714 22.8571C36.149 22.8571 43.4163 25.8673 48.7745 31.2255C54.1327 36.5837 57.1429 43.851 57.1429 51.4286C57.1429 59.0062 54.1327 66.2734 48.7745 71.6316C43.4163 76.9898 36.149 80 28.5714 80ZM54.2857 0H77.1429C79.0476 0 80 0.952381 80 2.85714C80 4.7619 79.0476 5.71429 77.1429 5.71429H54.2857C52.381 5.71429 51.4286 4.7619 51.4286 2.85714C51.4286 0.952381 52.381 0 54.2857 0Z" fill="var(--fill-0, #2A9D8F)"/>
<path id="Vector_2" d="M77.1429 0C79.0476 0 80 0.952381 80 2.85714V25.7143C80 27.619 79.0476 28.5714 77.1429 28.5714C75.2381 28.5714 74.2857 27.619 74.2857 25.7143V2.85714C74.2857 0.952381 75.2381 0 77.1429 0Z" fill="var(--fill-0, #2A9D8F)"/>
<path id="Vector_3" d="M49.4286 34.6057L45.3943 30.5657L75.1201 0.834337L79.1658 4.87995L49.4286 34.6057Z" fill="var(--fill-0, #2A9D8F)"/>
</g>
</svg>
