<svg preserveAspectRatio="none" width="100%" height="100%" overflow="visible" style="display: block;" viewBox="0 0 84 84" fill="none" xmlns="http://www.w3.org/2000/svg">
<g id="no-svgrepo-com 1" clip-path="url(#clip0_0_15)">
<path id="Vector" fill-rule="evenodd" clip-rule="evenodd" d="M69.958 66.6587L17.3413 14.042C23.926 8.22732 32.5407 4.66668 42 4.66668C62.5847 4.66668 79.3333 21.4153 79.3333 42C79.3333 51.4547 75.7727 60.074 69.958 66.6587ZM4.66668 42C4.66668 32.5407 8.22268 23.926 14.042 17.3413L66.6587 69.958C60.074 75.7727 51.4547 79.3333 42 79.3333C21.4153 79.3333 4.66668 62.5847 4.66668 42ZM42 0C18.802 0 0 18.802 0 42C0 65.198 18.802 84 42 84C65.1933 84 84 65.198 84 42C84 18.802 65.1933 0 42 0Z" fill="var(--fill-0, #6B7280)"/>
</g>
<defs>
<clipPath id="clip0_0_15">
<rect width="84" height="84" fill="white"/>
</clipPath>
</defs>
</svg>
