<svg preserveAspectRatio="none" width="100%" height="100%" overflow="visible" style="display: block;" viewBox="0 0 53.942 89.7768" fill="none" xmlns="http://www.w3.org/2000/svg">
<g id="Group">
<path id="Vector" d="M25.8154 71.8936V65.9153C24.1037 65.7223 22.2148 65.6307 20.374 65.2824C9.595 63.2468 2.85103 56.1323 0.615199 44.9074C-0.935032 37.127 0.46575 29.9814 4.57748 23.303C6.23134 20.617 8.66524 18.7097 11.3128 17.0651C11.9082 16.6951 12.5156 16.3481 13.3544 15.8507C12.2492 15.3609 11.3504 14.9939 10.4788 14.5707C6.47486 12.6277 3.07675 10.0013 0.973233 5.96591C0.5911 5.27768 0.307075 4.53962 0.129086 3.77278C-0.10222 2.61624 0.103924 1.49941 1.33171 0.971099C2.50723 0.462221 3.50153 0.902694 4.26531 1.86494C4.60163 2.30501 4.90918 2.7662 5.18624 3.24579C6.93195 6.11049 9.5525 8.33805 12.6609 9.5998C16.6652 11.3342 20.9882 12.2114 25.3519 12.1751C29.0991 12.1442 32.7537 11.8454 36.2779 10.4066C39.3295 9.22714 41.8716 7.01604 43.4625 4.15725C44.0806 3.05861 44.8185 2.03186 45.6631 1.09602C46.4878 0.186046 47.5504 -0.334013 48.8583 0.241484C50.2286 0.845199 50.3484 2.00406 50.1444 3.22908C50.0051 4.24018 49.7368 5.22943 49.3459 6.17238C48.0099 9.13312 45.8342 11.4041 43.2061 13.2652C42.5029 13.763 41.7878 14.2449 41.0421 14.7584C53.1902 22.2223 57.4547 39.5658 50.8263 53.4051C47.6749 59.985 42.1707 63.4809 35.1871 64.9012C33.8029 65.1829 32.4077 65.41 30.7922 65.7056C30.9536 69.6786 31.1119 67.5862 31.2844 71.8386C33.4402 71.6328 35.3734 71.4305 37.3099 71.2705C38.2459 71.1542 39.1909 71.126 40.132 71.1887C40.7363 71.2085 41.3117 71.453 41.7455 71.8745C42.1793 72.296 42.4405 72.8634 42.478 73.4675C42.5709 74.0659 42.444 74.6777 42.1209 75.1901C41.7978 75.7033 41.3001 76.0811 40.72 76.2552C39.744 76.5597 38.7275 76.714 37.705 76.714C35.744 76.7817 33.7789 76.7337 31.6569 76.7337C31.804 79.7371 31.9522 79.4832 32.0678 82.23C32.121 83.4945 32.1691 84.7639 32.1062 86.0235C32.0554 86.729 31.8916 87.4219 31.6212 88.0753C31.4622 88.5715 31.1489 89.0043 30.7267 89.3102C30.3045 89.6154 29.7957 89.7789 29.2745 89.7747C28.7524 89.7965 28.2374 89.6478 27.8068 89.3518C27.3764 89.0557 27.0537 88.6279 26.8873 88.1324C26.5436 87.252 26.3335 86.3258 26.2641 85.3835C26.0619 82.3054 25.9592 82.2196 25.812 79.138C25.7792 78.4437 25.7196 77.7501 25.6521 76.7394C23.5884 76.7394 21.6329 76.7676 19.6788 76.726C18.8081 76.7274 17.9402 76.6273 17.0924 76.4286C16.5387 76.3249 16.0448 76.0155 15.7101 75.563C15.3754 75.1098 15.2248 74.5466 15.2882 73.987C15.3988 72.8374 16.136 72.1868 17.6173 72.1452C19.8323 72.0832 22.0506 72.124 24.267 72.1022C24.7864 72.0592 25.3032 71.9894 25.8154 71.8936ZM26.6153 61.2566C29.2915 60.7908 32.5182 60.41 35.6502 59.6426C40.9739 58.3375 44.4329 54.8776 46.2727 49.7384C47.8225 45.3181 48.2911 40.591 47.6388 35.9525C46.4823 26.8043 40.8876 20.4015 32.0118 18.5876C25.7877 17.3159 19.6409 17.3992 13.9608 20.947C11.0024 22.7975 8.64585 25.0842 7.05818 28.2429C3.47337 35.3761 4.12976 42.509 7.00264 49.5894C9.40547 55.5109 13.8809 59.1416 20.1655 60.4096C22.0956 60.7978 24.0759 60.9319 26.6153 61.2566Z" fill="var(--fill-0, #6B7280)"/>
</g>
</svg>
