<svg preserveAspectRatio="none" width="100%" height="100%" overflow="visible" style="display: block;" viewBox="0 0 1183.47 696.299" fill="none" xmlns="http://www.w3.org/2000/svg">
<g id="Icon">
<path id="Vector 1" d="M466.017 468.614L592.182 347.599L731.221 481.488C825.973 561.821 925.188 497.795 962.952 455.74C1059.76 323.911 970.676 227.442 914.031 195.686C815.159 142.131 748.403 198.261 718.347 226.584L841.937 97.8443C953.168 3.09201 1061.15 69.5215 1101.99 123.592C1248.24 317.216 1168.94 494.362 1086.54 584.48C907.336 751.326 731.221 700.345 638.528 630.826L466.017 468.614Z" fill="var(--fill-0, #1B4D7A)"/>
<path id="Vector 2" d="M717.455 227.684L591.29 348.7L452.251 214.811C357.499 134.477 258.284 198.504 220.52 240.558C123.708 372.388 212.796 468.857 269.441 500.612C368.313 554.168 435.979 499.509 466.035 471.186L341.535 598.454C230.304 693.207 122.322 626.777 81.4813 572.706C-64.7668 379.082 14.5368 201.937 96.9301 111.819C276.136 -55.0277 452.251 -4.04665 544.944 65.4726L717.455 227.684Z" fill="var(--fill-0, #2A9D8F)"/>
</g>
</svg>
