<svg preserveAspectRatio="none" width="100%" height="100%" overflow="visible" style="display: block;" viewBox="0 0 49.9217 50" fill="none" xmlns="http://www.w3.org/2000/svg">
<g id="Group 79">
<path id="Vector" d="M37.1857 23.5073C37.3863 24.5697 37.5794 25.5577 37.7429 26.5532C37.8023 26.9321 38.0623 26.8281 38.2703 26.8281C41.227 26.8578 43.9609 27.6601 46.4867 29.1979C48.9903 30.7357 49.9709 33.2838 49.1389 36.0994C47.8016 40.6236 45.5284 44.6204 42.3191 48.0749C39.9641 50.6156 36.0416 50.6527 33.6941 48.1194C30.4105 44.5758 28.1224 40.4602 26.7926 35.8245C26.0274 33.1798 26.9635 30.8843 29.5339 29.1905C31.2648 28.0464 33.2112 27.3704 35.269 27.0435C35.7296 26.9692 35.8113 26.8429 35.7222 26.3675C34.2141 18.7974 32.7357 11.2199 31.25 3.64236C31.0197 2.46859 30.0242 1.79998 28.8356 2.03028C24.7422 2.82518 20.6563 3.63493 16.5704 4.43726C14.4308 4.86071 12.2913 5.28416 10.1443 5.68532C9.79518 5.75218 9.75061 5.87847 9.81004 6.19049C10.1443 7.85457 10.4712 9.51865 10.7907 11.1827C11.2364 13.4857 9.84718 15.551 7.53678 16.0041C5.88756 16.331 4.24576 16.6653 2.59654 16.9625C2.2028 17.0367 2.1508 17.1705 2.21766 17.5271C4.09718 26.9767 5.96185 36.4263 7.82651 45.8759C8.08652 47.1982 9.07457 47.852 10.4044 47.5994C15.8423 46.5445 21.2803 45.497 26.7183 44.4495C27.0006 44.3975 27.2903 44.3455 27.5652 44.4792C27.9887 44.6873 28.1744 45.029 28.1224 45.497C28.0629 46.0245 27.7064 46.2696 27.2235 46.3662C23.4719 47.0942 19.7128 47.8148 15.9612 48.5429C14.208 48.8846 12.4547 49.2189 10.7015 49.5532C8.36882 49.9989 6.32586 48.6543 5.8727 46.3291C4.11947 37.5406 2.3811 28.7373 0.650153 19.9415C0.457001 18.9683 0.286135 17.9876 0.0632671 17.0219C-0.0778828 16.3979 0.0112645 15.9001 0.39014 15.3578C2.89369 11.7993 5.3601 8.21859 7.82651 4.63041C8.11624 4.21439 8.45054 3.97666 8.94828 3.88009C15.4486 2.63202 21.9415 1.34682 28.4418 0.083897C30.7448 -0.36184 32.7357 1.00509 33.2261 3.31549C33.5084 4.6527 33.5084 4.64527 34.9719 4.92757C38.8498 5.68532 42.7277 6.43564 46.5982 7.21568C49.0423 7.70599 50.2978 9.6078 49.8223 12.0445C48.9754 16.3979 48.1359 20.7586 47.289 25.112C47.2668 25.2383 47.237 25.3572 47.2073 25.4834C47.0587 26.0703 46.613 26.3898 46.0558 26.3081C45.521 26.2263 45.1421 25.7657 45.2387 25.164C45.4095 24.0794 45.6398 23.0022 45.8478 21.9176C46.5239 18.426 47.2073 14.9418 47.8685 11.4502C48.0839 10.2987 47.4748 9.39979 46.3381 9.17692C42.3414 8.38202 38.3372 7.60199 34.3404 6.81452C34.0135 6.74766 33.8947 6.79223 33.969 7.17111C34.4221 9.45179 34.8604 11.7399 35.2913 14.028C35.3359 14.2806 35.4622 14.3623 35.7148 14.4069C37.4383 14.7115 39.1544 15.0384 40.8779 15.3578C40.9819 15.3801 41.0933 15.4024 41.1973 15.4247C41.8808 15.5881 42.2225 16.071 42.0888 16.6727C41.9625 17.2596 41.5019 17.5271 40.7887 17.3933C39.5852 17.1705 38.3743 16.9476 37.1708 16.7099C35.7965 16.4424 35.7965 16.435 36.0491 17.7796C36.2496 18.842 36.4651 19.9043 36.6508 20.9741C36.6954 21.2564 36.8068 21.3752 37.0743 21.4272C37.624 21.5313 38.1663 21.6575 38.7086 21.7913C39.2955 21.9473 39.5852 22.3781 39.4812 22.9056C39.3772 23.4405 38.9538 23.7525 38.3743 23.7154C38.1812 23.7005 37.988 23.6485 37.7874 23.6114C37.6166 23.5816 37.4383 23.5519 37.1931 23.5073H37.1857ZM3.384 14.7115C4.76579 14.5629 6.13271 14.3177 7.46992 13.9686C8.44311 13.716 9.05229 12.7354 8.88142 11.7548C8.66598 10.4696 8.36882 9.19178 8.10881 7.90657C7.88594 7.98829 7.82651 8.17401 7.72993 8.31516C6.78646 9.6598 5.84298 10.997 4.91437 12.3565C4.38691 13.1291 3.7926 13.8572 3.34686 14.6818C3.332 14.7041 3.30971 14.7263 3.29486 14.7486C3.29486 14.7486 3.31714 14.7709 3.32457 14.7783C3.33943 14.7561 3.36172 14.7412 3.37657 14.7189L3.384 14.7115ZM38.9761 28.7893C35.321 28.7893 32.7952 29.5174 30.3956 31.0106C28.843 31.9838 28.2412 33.529 28.739 35.2971C29.935 39.5761 32.03 43.3575 35.0164 46.6485C36.5765 48.372 39.3252 48.4314 40.9002 46.7228C43.9535 43.4169 46.093 39.5984 47.3113 35.2674C47.7794 33.5959 47.2073 32.0209 45.7587 31.0552C43.4409 29.5099 40.863 28.8042 38.9835 28.7819L38.9761 28.7893Z" fill="var(--fill-0, #6B7280)"/>
<path id="Vector_2" d="M9.2232 28.4773C8.62889 28.4699 8.24258 28.0984 8.17572 27.5561C8.11629 27.0435 8.42087 26.6424 8.9929 26.5235C11.2513 26.0555 13.5171 25.5949 15.7755 25.1343C20.53 24.1685 25.2846 23.2102 30.0391 22.2444C30.7003 22.1107 31.2203 22.4004 31.3392 22.965C31.4654 23.5296 31.1163 24.0125 30.4477 24.1462C26.072 25.0451 21.689 25.944 17.3059 26.8355C14.728 27.363 12.1502 27.883 9.56493 28.403C9.42378 28.4327 9.28263 28.455 9.2232 28.4624V28.4773Z" fill="var(--fill-0, #6B7280)"/>
<path id="Vector_3" d="M8.16819 22.965C7.55902 22.965 7.18014 22.6159 7.10585 22.0735C7.03156 21.5387 7.33615 21.1375 7.94532 21.0112C9.76541 20.6398 11.5855 20.2757 13.4056 19.9043C18.4573 18.8791 23.509 17.8465 28.5681 16.8139C28.6572 16.799 28.7464 16.7767 28.8355 16.7618C29.5635 16.6356 30.0687 16.9253 30.1653 17.5122C30.2619 18.1139 29.9127 18.5522 29.1921 18.7008C25.8194 19.3917 22.4466 20.0826 19.0664 20.766C15.5823 21.4718 12.1055 22.1775 8.62136 22.8833C8.44306 22.9204 8.26477 22.9427 8.16819 22.9576V22.965Z" fill="var(--fill-0, #6B7280)"/>
<path id="Vector_4" d="M10.2631 33.9302C9.75049 33.9302 9.38648 33.6033 9.32705 33.0684C9.26019 32.4815 9.52763 32.1027 10.1219 31.9764C11.1991 31.7461 12.2763 31.5381 13.3535 31.3226C16.5331 30.6837 19.7201 30.0523 22.8997 29.4134C23.5386 29.2871 24.0512 29.5545 24.1849 30.0894C24.3335 30.6912 24.0066 31.1815 23.3009 31.33C19.059 32.1918 14.817 33.0461 10.5751 33.9005C10.4711 33.9227 10.3597 33.9227 10.2557 33.9376L10.2631 33.9302Z" fill="var(--fill-0, #6B7280)"/>
<path id="Vector_5" d="M37.1113 41.0694C36.4798 41.0694 36.0415 40.8688 35.6775 40.5196C34.9421 39.799 34.2066 39.0858 33.4786 38.3504C32.9957 37.8601 32.9957 37.3177 33.4563 36.872C33.8797 36.4634 34.422 36.4783 34.8901 36.9314C35.4844 37.5109 36.0861 38.0829 36.6433 38.6995C36.9404 39.0264 37.1039 39.0413 37.4233 38.6995C38.7828 37.2286 40.172 35.7874 41.5612 34.3387C42.0664 33.8113 42.5567 33.7667 43.0322 34.1827C43.4705 34.569 43.5522 35.1411 43.1362 35.5719C41.5167 37.2657 39.8749 38.9521 38.2256 40.6162C37.8988 40.9431 37.4605 41.0768 37.1039 41.0694H37.1113Z" fill="var(--fill-0, #6B7280)"/>
</g>
</svg>
