<svg preserveAspectRatio="none" width="100%" height="100%" overflow="visible" style="display: block;" viewBox="0 0 75 75" fill="none" xmlns="http://www.w3.org/2000/svg">
<g id="Layer_1" clip-path="url(#clip0_0_127)">
<path id="Vector" d="M0 19.9242C1.37008 18.1095 3.08463 16.6218 4.71111 15.0577C5.37658 14.4175 6.22602 14.5565 7.03828 14.9441C10.6827 16.6844 14.3349 18.4071 17.9832 20.1375C18.4667 20.3666 18.9599 20.5799 19.4336 20.8266C20.7743 21.5215 21.0405 23.0249 19.9914 24.1251C19.2535 24.9003 18.4628 25.6265 17.6486 26.4213C19.6371 27.3649 21.522 28.2575 23.4068 29.156C23.5947 29.2461 23.7591 29.25 23.9627 29.1854C26.7204 28.3064 29.5604 28.14 32.4258 28.236C32.9288 28.2536 33.1441 28.095 33.3066 27.6193C33.972 25.6657 34.6845 23.7277 35.4243 21.6586C34.3733 21.6586 33.4162 21.6723 32.4571 21.6547C31.7036 21.6409 30.9422 21.7506 30.1946 21.5783C28.8812 21.2768 28.1081 20.0064 28.5133 18.7301C28.9184 17.4557 29.3862 16.2009 29.854 14.948C30.1104 14.2609 30.6976 13.9947 31.3063 14.2257C31.8602 14.4352 32.1264 15.0224 31.9052 15.688C31.5685 16.704 31.1849 17.7043 30.8307 18.7144C30.7524 18.9376 30.6036 19.147 30.6662 19.4583C32.4884 19.4583 34.3126 19.4563 36.1368 19.4583C37.7045 19.4602 38.2643 20.2511 37.7398 21.7192C36.9725 23.8686 36.2014 26.0161 35.4185 28.2027C36.125 28.2732 36.6828 28.5374 37.2544 28.8232C37.8709 29.1325 38.2761 28.5746 38.5716 28.1675C39.1999 27.3003 39.7362 26.3685 40.3116 25.4641C42.353 22.2576 44.3964 19.0531 46.4378 15.8466C46.5787 15.6254 46.7118 15.3983 46.9212 15.0557C45.5707 15.0557 44.32 15.0518 43.0674 15.0577C42.6486 15.0596 42.2356 15.0342 41.8422 14.8893C40.6482 14.4508 40.0943 13.1843 40.5543 11.8747C41.5956 8.91485 42.6583 5.96089 43.7074 3.00302C43.7935 2.75832 43.956 2.52537 43.8973 2.20042C41.6308 2.20042 39.3643 2.21412 37.0978 2.18867C36.6222 2.1828 36.6104 2.51558 36.5126 2.78768C35.6083 5.30706 34.7138 7.8284 33.8155 10.3497C33.6922 10.6962 33.5747 11.0486 33.2342 11.2502C32.8153 11.5008 32.3965 11.493 32.0031 11.1974C31.5803 10.8802 31.4687 10.4398 31.6312 9.95823C31.9482 9.01273 32.2966 8.07897 32.6313 7.13934C33.2694 5.35209 33.9035 3.56288 34.5455 1.77758C35.0133 0.489509 35.7062 0.00599124 37.0763 0.00403368C39.2488 0.000118564 41.4214 0.000118564 43.5939 0.00403368C45.5942 0.0079488 46.6081 1.45654 45.9309 3.35342C44.8857 6.28584 43.8444 9.22218 42.7699 12.1448C42.5566 12.7262 42.627 12.8965 43.2749 12.8691C44.3964 12.8221 45.5198 12.8691 46.6433 12.8535C47.575 12.8417 48.3128 13.1745 48.7767 14.0006C49.2523 14.8482 49.1623 15.6743 48.6436 16.4847C46.2969 20.161 43.956 23.8412 41.623 27.5254C41.5016 27.7172 41.2158 27.9051 41.3529 28.1479C41.4625 28.3456 41.756 28.234 41.9655 28.2379C44.5471 28.2869 47.0524 28.7625 49.4774 29.6317C49.9628 29.8059 50.3366 29.7609 50.779 29.5475C52.9241 28.5081 55.083 27.496 57.3358 26.4252C56.5842 25.6931 55.86 25.006 55.1574 24.2974C53.8675 22.9995 54.1337 21.4961 55.7974 20.7072C59.8411 18.7849 63.8867 16.8704 67.9343 14.9598C69.0871 14.4156 69.8152 14.5409 70.7097 15.4277C71.888 16.5983 73.0643 17.7689 74.2308 18.9493C75.456 20.1884 75.1996 21.6918 73.6299 22.4514C71.6374 23.4145 69.6332 24.3561 67.6349 25.3094C67.398 25.421 67.1671 25.5424 66.8598 25.6951C67.5272 26.345 68.1359 26.942 68.7505 27.5352C69.367 28.1303 69.7252 28.8076 69.4727 29.6963C69.2163 30.6027 68.5724 31.0216 67.6936 31.2154C64.055 32.0121 60.4224 32.8441 56.7799 33.6232C56.2202 33.7426 56.2104 33.952 56.3728 34.3944C56.4589 34.6294 56.6116 34.5922 56.7721 34.6078C57.831 34.7057 58.6158 35.2656 59.3204 36.029C63.6871 40.7663 65.9457 46.3414 66.071 52.7877C66.1004 54.2793 65.5269 55.3893 64.1764 56.0431C63.8808 56.186 63.875 56.3054 63.9454 56.5932C64.4308 58.539 63.8339 60.1422 62.3522 61.4499C61.5067 62.1977 60.5966 62.8476 59.5553 63.29C59.203 63.4388 59.0405 63.6717 58.9231 64.0143C57.5158 68.1271 53.9576 70.7013 49.6301 70.7561C48.628 70.7698 47.6298 70.7561 46.6453 70.5369C46.5846 70.4899 46.518 70.4645 46.4711 70.5447C46.4613 70.5604 46.5141 70.6132 46.5396 70.6485C46.8116 71.9874 46.6218 73.1952 45.5688 74.1779C45.1382 74.5792 44.5823 74.73 44.0891 75.004H42.4783C41.2922 74.4344 40.4838 73.5182 39.973 72.3143C39.7009 71.6742 39.8438 71.0889 40.3801 70.7894C40.9262 70.486 41.5094 70.6543 41.8833 71.2436C42.1044 71.592 42.2747 71.9737 42.5037 72.3183C42.7523 72.6941 43.13 72.8723 43.5782 72.7783C44.0147 72.6882 44.4081 72.4201 44.4003 71.9659C44.3788 70.8716 44.2476 69.6795 43.5352 68.8847C42.4293 67.6534 41.5447 66.3712 41.2002 64.7503C41.1376 64.4606 41.0495 64.3334 40.7383 64.3412C40.0317 64.3608 39.3232 64.3627 38.6166 64.3412C38.1625 64.3275 38.1938 64.4959 38.372 64.8032C38.6518 65.2867 38.918 65.78 39.1764 66.2772C39.5404 66.978 39.3995 67.6123 38.828 67.9235C38.2467 68.2387 37.6419 68.0195 37.2485 67.3284C36.8394 66.6081 36.4108 65.8975 36.0683 65.1458C35.7923 64.537 35.4322 64.3118 34.7412 64.3275C32.5961 64.3764 30.447 64.3843 28.3019 64.3275C24.358 64.2198 20.9739 61.307 20.1812 57.4506C20.0853 56.9867 20.285 56.3348 19.872 56.096C19.5001 55.8806 18.9266 56.0157 18.4412 55.9981C12.1526 55.7573 7.64112 49.8748 9.25781 43.7907C10.395 39.5096 12.9492 36.0721 16.3685 33.2591C16.2452 33.218 16.1102 33.1592 15.9692 33.1279C13.094 32.4878 10.2208 31.8418 7.34166 31.2212C6.46481 31.0333 5.80717 30.6359 5.53511 29.7335C5.25914 28.8174 5.62906 28.1244 6.27104 27.5136C6.88562 26.9283 7.49041 26.3352 8.16175 25.6833C5.95592 24.636 3.8597 23.6122 1.73804 22.6471C0.978627 22.3026 0.375793 21.8484 0.00782901 21.0987V19.9261L0 19.9242ZM50.687 62.1448C50.4521 61.9275 50.368 61.8434 50.2779 61.767C50.1292 61.6417 49.9824 61.5125 49.8258 61.397C48.1015 60.1325 46.1736 59.4786 44.0323 59.4747C40.6639 59.4688 37.2955 59.4767 33.927 59.4708C33.0345 59.4708 32.508 58.9364 32.6568 58.1788C32.7938 57.48 33.2948 57.2685 33.9544 57.2705C37.4207 57.2783 40.8851 57.2666 44.3514 57.2881C45.0051 57.292 45.6666 57.3821 46.3106 57.4995C49.223 58.0261 51.5012 59.6274 53.4526 61.7709C53.6092 61.9432 53.7227 62.1409 54.028 62.1527C56.7956 62.2603 59.2284 61.4695 61.2053 59.4825C62.1702 58.5116 62.1506 57.1472 61.2131 56.1312C60.9489 55.8454 60.6553 55.5831 60.3911 55.2973C59.9174 54.7824 59.8802 54.1658 60.2775 53.7214C60.7199 53.2281 61.3266 53.1988 61.8923 53.7077C62.3131 54.0836 62.7378 54.295 63.278 54.0327C63.8299 53.7665 63.875 53.2692 63.8613 52.727C63.7301 46.7858 61.6124 41.6668 57.5276 37.3562C56.8152 36.6045 56.3082 36.6085 55.5527 37.3602C54.531 38.3742 53.5172 39.398 52.4955 40.412C51.8457 41.056 51.2018 41.1226 50.7105 40.6097C50.229 40.1066 50.2936 39.5174 50.9179 38.8851C51.8105 37.9827 52.7128 37.09 53.6092 36.1915C54.5467 35.2499 54.4802 34.6548 53.3489 33.9344C49.3169 31.3681 44.8955 30.2757 40.1394 30.4167C38.8613 30.4539 38.5931 30.6907 38.5892 31.9671C38.5853 33.4568 38.6049 34.9445 38.5814 36.4342C38.5677 37.3308 37.9003 37.8672 37.1545 37.6186C36.5537 37.4169 36.3834 36.9334 36.3853 36.3461C36.3912 34.8819 36.3893 33.4176 36.3853 31.9514C36.3814 30.7064 36.1074 30.4245 34.892 30.4226C33.4769 30.4186 32.0598 30.4304 30.6447 30.4206C27.2919 30.3991 24.1271 31.1606 21.1481 32.6992C20.1558 33.2121 20.0442 33.9246 20.835 34.7292C21.6042 35.5122 22.3929 36.2776 23.1621 37.0606C23.765 37.6734 23.8178 38.3135 23.3265 38.795C22.8392 39.2727 22.2129 39.212 21.5963 38.6052C20.6412 37.6616 19.7017 36.7044 18.7466 35.7608C18.0635 35.0855 17.5429 35.0737 16.8539 35.7041C14.7753 37.6068 13.1899 39.8658 12.0195 42.4244C11.1505 44.3232 10.7903 46.2729 11.4186 48.3186C12.4149 51.5662 15.3566 54.1697 19.8955 53.8154C20.2537 53.788 20.2615 53.5453 20.3202 53.3299C20.7371 51.8109 21.518 50.5052 22.667 49.4383C22.9997 49.129 23.0251 48.9763 22.6885 48.6553C21.6825 47.6961 20.7097 46.6997 19.7311 45.7111C19.0832 45.0553 19.0265 44.4309 19.5549 43.9317C20.0423 43.4717 20.6686 43.546 21.2832 44.1568C22.391 45.257 23.4988 46.3591 24.5929 47.4749C24.8434 47.7294 25.0411 47.8233 25.411 47.6667C26.4993 47.2067 27.654 46.9776 28.8343 47.0442C29.4469 47.0794 29.5467 46.8524 29.5369 46.3062C29.5056 44.4269 29.5173 42.5477 29.531 40.6684C29.5369 39.9285 29.9812 39.4469 30.5997 39.4371C31.2143 39.4273 31.6703 39.9109 31.7212 40.6352C31.733 40.8055 31.7251 40.9777 31.7251 41.148C31.7251 42.808 31.7741 44.47 31.7036 46.1261C31.6703 46.9209 31.9306 47.1108 32.6626 47.0422C33.3653 46.9776 34.0777 47.0227 34.7843 47.0285C35.6807 47.0364 36.1896 47.4612 36.1661 48.1718C36.1446 48.853 35.6612 49.223 34.7804 49.2249C32.6822 49.2288 30.5821 49.1936 28.4839 49.2386C24.3365 49.3287 21.3928 53.2105 22.3832 57.2353C23.1171 60.2186 25.64 62.135 28.9086 62.1409C35.9371 62.1527 42.9676 62.1448 49.9961 62.1448H50.6772H50.687ZM67.2454 29.0581C66.5133 28.3573 65.9046 27.7975 65.3233 27.2122C64.0687 25.9495 64.3349 24.4442 65.9477 23.6709C67.9656 22.7039 69.9933 21.7545 72.0113 20.7894C72.2109 20.6935 72.4712 20.6661 72.5985 20.3862C71.5396 19.3369 70.4709 18.2994 69.4336 17.2325C69.1478 16.9389 68.9364 16.9076 68.5645 17.0857C64.834 18.873 61.0937 20.6348 57.3573 22.4103C57.1557 22.5062 56.8856 22.5297 56.7975 22.79C56.8191 22.8253 56.8289 22.8507 56.8445 22.8664C57.7057 23.7316 58.5689 24.5929 59.43 25.4601C60.4772 26.5153 60.3186 27.4549 58.9857 28.0872C57.095 28.9838 55.2004 29.8705 53.3136 30.773C53.1649 30.8434 52.9281 30.8356 52.8791 31.1645C53.5191 31.2565 53.8832 32.0141 54.6367 31.8477C58.7685 30.9374 62.9003 30.0213 67.2473 29.0581H67.2454ZM7.75464 29.0484C11.491 29.8842 15.0219 30.677 18.5548 31.462C18.7622 31.509 18.9854 31.5834 19.1733 31.3896C19.6234 30.9315 20.2439 30.7456 20.7704 30.3971C20.7214 30.354 20.6901 30.3129 20.6471 30.2914C19.048 29.524 17.443 28.7665 15.8459 27.9913C14.7107 27.4412 14.5463 26.4957 15.4232 25.5952C16.2413 24.7574 17.0653 23.9254 17.9089 23.113C18.2181 22.8155 18.2612 22.6882 17.8188 22.4788C13.9904 20.6817 10.1699 18.8632 6.34933 17.0485C6.12816 16.9428 5.94222 16.8449 5.70735 17.0857C4.60933 18.2133 3.48978 19.3193 2.33696 20.4742C2.61293 20.6074 2.82823 20.715 3.04549 20.8188C5.0869 21.7878 7.13615 22.745 9.16973 23.7316C10.6064 24.4285 10.8725 25.9593 9.76474 27.1025C9.15603 27.7309 8.50622 28.3182 7.75268 29.0444L7.75464 29.0484ZM43.3434 64.3197C43.8601 66.3027 44.9933 67.5868 46.8155 68.2622C47.802 68.6283 48.8335 68.593 49.8532 68.5441C52.609 68.4149 54.7229 67.162 56.1751 64.813C56.2671 64.6642 56.4531 64.5213 56.3474 64.3197H43.3414H43.3434Z" fill="var(--fill-0, #2A9D8F)"/>
<path id="Vector_2" d="M38.5011 54.52C36.1348 54.52 33.7665 54.5317 31.4002 54.5161C29.9401 54.5063 28.6796 54.9428 27.6345 55.9921C27.0121 56.6166 26.3955 56.6537 25.9082 56.1585C25.4404 55.6828 25.5148 55.0133 26.098 54.4241C27.5327 52.9794 29.2805 52.3177 31.3024 52.3197C35.7434 52.3236 40.1844 52.2786 44.6254 52.3354C47.3283 52.3706 49.5694 51.4623 51.4131 49.4989C52.0649 48.8059 52.748 48.1423 53.4311 47.4787C54.0143 46.9129 54.625 46.8836 55.1045 47.369C55.5606 47.831 55.5234 48.4888 54.9695 49.0525C54.0809 49.9569 53.1962 50.8692 52.2645 51.7305C50.2662 53.5823 47.8959 54.52 45.1636 54.52C42.9421 54.52 40.7226 54.52 38.5011 54.52Z" fill="var(--fill-0, #2A9D8F)"/>
<path id="Vector_3" d="M43.7916 43.6262C43.7916 44.6011 43.8092 45.5759 43.7818 46.5508C43.772 46.9364 43.8836 47.0617 44.2692 47.0343C44.7056 47.003 45.148 47.0089 45.5844 47.0343C46.2538 47.0774 46.7138 47.5531 46.702 48.1521C46.6903 48.755 46.2225 49.2131 45.5453 49.2189C43.7916 49.2326 42.0359 49.2326 40.2803 49.2189C39.5972 49.2131 39.1333 48.7726 39.1138 48.1677C39.0922 47.5374 39.5659 47.0754 40.2822 47.0284C41.1565 46.9697 41.5936 46.5038 41.5936 45.6307C41.5936 44.0216 41.5897 42.4125 41.5936 40.8053C41.5956 39.9538 42.0046 39.4448 42.676 39.435C43.3493 39.4233 43.7818 39.9381 43.7877 40.776C43.7936 41.7274 43.7877 42.6768 43.7877 43.6281L43.7916 43.6262Z" fill="var(--fill-0, #2A9D8F)"/>
<path id="Vector_4" d="M60.4694 48.0052C60.4185 49.5733 59.8998 50.9631 58.8057 52.1044C57.9269 53.0186 57.0246 53.9112 56.1184 54.798C55.5527 55.352 54.9029 55.3892 54.4391 54.9272C53.9713 54.4613 54.0104 53.8172 54.5663 53.2495C55.3864 52.4137 56.228 51.5993 57.0461 50.7595C58.4906 49.2796 58.6687 47.5256 57.5707 45.7697C57.3769 45.4604 57.1557 45.1629 56.9972 44.8379C56.7212 44.2761 56.8582 43.775 57.371 43.4304C57.8936 43.08 58.4318 43.1642 58.8037 43.6555C59.7726 44.9397 60.5065 46.3276 60.4733 48.0052H60.4694Z" fill="var(--fill-0, #2A9D8F)"/>
</g>
<defs>
<clipPath id="clip0_0_127">
<rect width="75" height="75" fill="white"/>
</clipPath>
</defs>
</svg>
