<svg preserveAspectRatio="none" width="100%" height="100%" overflow="visible" style="display: block;" viewBox="0 0 75 75" fill="none" xmlns="http://www.w3.org/2000/svg">
<g id="Layer_1" clip-path="url(#clip0_0_75)">
<path id="Vector" d="M2.04008e-10 30.7619C0.346497 30.0102 0.34454 29.1782 0.534428 28.3873C2.77394 19.0769 11.3404 12.6755 20.8858 13.2041C30.0239 13.7111 37.7976 20.7546 39.2795 29.8203C39.996 34.2014 39.2031 38.2967 37.1613 42.1983C36.9264 42.6466 36.7424 42.7346 36.3 42.4547C35.3662 41.8655 34.5068 41.196 33.7336 40.4071C33.4595 40.1271 33.391 39.9039 33.5789 39.5261C38.2752 30.0728 31.7857 19.3569 22.1719 17.7536C14.1163 16.4087 6.11166 22.031 4.67282 30.0983C3.13218 38.7235 8.76423 46.734 17.3836 48.1533C19.0554 48.4293 20.737 48.4196 22.4088 48.0985C22.6476 48.0535 22.8688 47.985 23.0665 48.2355C24.0081 49.4218 25.0868 50.479 26.2809 51.5185C25.0065 52 23.7517 52.2702 22.4773 52.4287C22.0682 52.4796 21.9605 52.6225 21.9624 53.0199C21.9781 55.7293 21.9859 58.4386 21.9566 61.1479C21.9507 61.6569 22.1602 61.6765 22.5536 61.6726C24.4819 61.6569 26.4101 61.6628 28.3384 61.6667C29.7635 61.6706 30.7502 62.5672 30.758 63.8494C30.7658 65.1336 29.7772 66.0537 28.3638 66.0596C26.4591 66.0655 24.5543 66.0909 22.6515 66.0439C22.0447 66.0302 21.9487 66.2338 21.9585 66.7722C21.9898 68.6025 21.9272 70.4348 21.984 72.2633C22.027 73.6277 21.5024 74.538 20.2123 74.9941H19.1865C17.9258 74.4147 17.4952 73.4241 17.5559 72.0597C17.6342 70.2567 17.5559 68.4479 17.5872 66.641C17.595 66.1536 17.4541 66.04 16.9842 66.0478C15.0814 66.0752 13.1767 66.0615 11.2719 66.0576C9.79197 66.0557 8.79163 65.1689 8.78772 63.8651C8.7838 62.5613 9.7861 61.6667 11.2621 61.6648C13.1904 61.6608 15.1186 61.653 17.0469 61.6726C17.4423 61.6765 17.5872 61.5982 17.5833 61.1636C17.5617 58.4543 17.5676 55.7449 17.5793 53.0356C17.5793 52.6695 17.5324 52.4875 17.0919 52.4268C8.72116 51.2679 2.15729 45.1347 0.391522 36.8814C0.268193 36.3039 0.323006 35.6833 -0.00587283 35.1528V30.758L2.04008e-10 30.7619Z" fill="var(--fill-0, #2A9D8F)"/>
<path id="Vector_2" d="M35.2331 14.3943C39.4165 12.8713 43.5275 12.7989 47.662 14.1261C49.8369 14.825 51.8278 15.8899 53.6346 17.2896C53.9048 17.4991 54.0712 17.5461 54.3433 17.2759C58.6794 13.0181 63.0253 8.77206 67.3751 4.51817C67.1872 4.295 66.9542 4.40658 66.7565 4.40463C64.4622 4.39484 62.1679 4.40071 59.8735 4.39679C58.4092 4.39484 57.4069 3.47867 57.4226 2.17099C57.4383 0.896586 58.4308 0.00391522 59.8559 0.00391522C64.1039 0 68.35 0 72.598 0.00391522C74.0975 0.00391522 74.9941 0.914204 74.9961 2.4294C75 6.67741 75 10.9235 74.9961 15.1715C74.9961 16.5868 74.0799 17.5774 72.7996 17.5774C71.5174 17.5774 70.6071 16.5868 70.6052 15.1695C70.5993 12.8987 70.6052 10.6298 70.6052 8.359C70.6052 8.12604 70.6052 7.89309 70.6052 7.51331C69.3856 8.70158 68.2756 9.78218 67.1676 10.8667C63.9747 13.991 60.7917 17.1252 57.5812 20.23C57.1936 20.6039 57.2171 20.8035 57.5224 21.2127C66.2906 33.0092 59.7776 49.7116 45.3696 52.4072C34.9551 54.355 24.6365 47.4173 22.4166 36.991C21.4261 32.3339 22.1543 27.941 24.3468 23.7478C24.5993 23.2662 24.8029 23.1899 25.263 23.4835C26.1968 24.0747 27.0522 24.7501 27.8196 25.5429C28.0741 25.8072 28.1309 26.0127 27.9586 26.3612C23.3386 35.6598 29.4738 45.9334 38.4573 47.9889C46.7262 49.8819 55.3847 44.2205 56.849 35.8536C58.3701 27.1638 52.832 19.2492 44.1735 17.7692C42.5271 17.4873 40.8651 17.4932 39.2207 17.8025C38.8096 17.8808 38.5571 17.824 38.2889 17.4854C37.4119 16.3735 36.3881 15.3947 35.239 14.3943H35.2331Z" fill="var(--fill-0, #2A9D8F)"/>
</g>
<defs>
<clipPath id="clip0_0_75">
<rect width="75" height="75" fill="white"/>
</clipPath>
</defs>
</svg>
