<svg preserveAspectRatio="none" width="100%" height="100%" overflow="visible" style="display: block;" viewBox="0 0 73 75" fill="none" xmlns="http://www.w3.org/2000/svg">
<g id="Layer_1" clip-path="url(#clip0_0_132)">
<path id="Vector" d="M58.5052 56.8703C60.0835 59.6078 60.2663 62.4598 60.2112 65.369C60.1636 68.0069 60.2062 70.6449 60.1987 73.2828C60.1937 74.6292 59.8229 74.9975 58.4676 74.9975C43.4117 75 28.3558 75 13.2998 74.9975C11.9746 74.9975 11.5738 74.5894 11.5738 73.2779C11.5688 70.5777 11.6139 67.8775 11.5613 65.1774C11.5061 62.3901 11.7191 59.6675 13.2121 57.0047C11.1805 57.0968 9.3918 57.5024 7.6407 58.1121C7.37766 58.2042 7.11963 58.3212 6.85158 58.3933C5.9873 58.6223 5.22574 58.1395 5.2082 57.261C5.16311 55.0511 5.54389 52.9308 6.91421 51.1091C7.24489 50.6686 7.33758 50.3501 7.10209 49.8026C5.34097 45.6789 5.01531 41.5129 6.68123 37.2399C7.82358 34.3108 8.01397 31.2025 8.03401 28.0892C8.04653 26.2277 8.00395 24.3662 7.8336 22.5097C7.79602 22.0866 7.6407 21.7432 7.43778 21.3923C5.94221 18.8116 5.24578 16.0193 5.18816 13.0529C5.17563 12.4531 5.28837 11.9454 5.84451 11.6194C6.41819 11.2835 6.89918 11.5174 7.41273 11.8061C11.3283 14.021 15.4618 13.8941 19.6704 12.8986C19.9435 12.8339 20.0838 12.6721 20.1815 12.4158C22.1906 7.13741 26.3391 4.49696 31.645 3.38206C36.976 2.25968 42.1416 2.82958 47.0166 5.3207C50.0629 6.87859 52.3876 9.1308 53.3772 12.5079C53.4874 12.8812 53.7254 12.9932 54.0385 13.0579C58.1144 13.904 62.0901 13.899 65.8228 11.7165C66.935 11.067 67.8695 11.6518 67.8619 12.9757C67.8469 15.9447 67.143 18.7394 65.6649 21.3326C65.4971 21.6287 65.2892 21.9075 65.2591 22.2608C64.8608 27.1659 64.6954 32.0686 66.2411 36.8268C66.9476 38.9969 67.5713 41.1396 67.4661 43.4491C67.3634 45.7088 66.8273 47.8565 65.9205 49.9171C65.7351 50.3351 65.7551 50.6039 66.0557 50.9847C67.4912 52.8064 67.892 54.954 67.8519 57.1988C67.8319 58.2863 66.9776 58.7144 65.8328 58.2639C63.5431 57.363 61.1456 57.0321 58.5102 56.8728L58.5052 56.8703ZM35.8286 72.479C39.8569 72.479 43.8852 72.4666 47.9109 72.4915C48.5072 72.494 48.7201 72.3645 48.6976 71.7324C48.6475 70.401 48.6775 69.0646 48.685 67.7307C48.69 66.683 49.1284 66.138 49.9526 66.1305C50.7743 66.123 51.2478 66.6755 51.2603 67.7058C51.2754 69.0696 51.2854 70.4358 51.2528 71.7996C51.2403 72.3148 51.3781 72.5014 51.9267 72.489C53.6127 72.4541 55.2986 72.4566 56.9846 72.489C57.5182 72.4989 57.6735 72.3372 57.6685 71.8096C57.6409 68.863 57.7562 65.9115 57.6234 62.9699C57.4305 58.692 55.3813 55.5015 51.4858 53.5778C49.8975 52.7939 48.2466 52.1394 46.6534 51.3704C46.1198 51.1141 45.9143 51.2609 45.6463 51.7114C44.8522 53.0428 44.0205 54.3518 43.1762 55.6534C39.6465 61.091 32.1035 61.0686 28.5837 55.6135C27.727 54.2846 26.8852 52.9457 26.056 51.5994C25.8506 51.2659 25.6878 51.1091 25.2669 51.3057C23.4682 52.1543 21.6044 52.8785 19.8533 53.8167C16.3085 55.7156 14.372 58.7368 14.1967 62.7261C14.0639 65.7597 14.1691 68.8058 14.1466 71.8444C14.1441 72.3123 14.2543 72.4964 14.7678 72.489C16.4839 72.4591 18.2024 72.4616 19.9184 72.489C20.4069 72.4964 20.5673 72.3546 20.5572 71.8618C20.5272 70.4657 20.5397 69.0696 20.5497 67.6735C20.5547 66.6755 20.9781 66.1529 21.7722 66.1305C22.5989 66.1056 23.0799 66.6481 23.095 67.6809C23.1125 69.0148 23.1375 70.3487 23.0849 71.6827C23.0574 72.3596 23.3079 72.4964 23.9367 72.4939C27.9023 72.4691 31.868 72.4815 35.8311 72.4815L35.8286 72.479ZM51.2052 18.279C51.2227 18.279 51.2378 18.279 51.2553 18.279C51.2553 17.5349 51.2253 16.7883 51.2603 16.0467C51.4081 12.8165 50.0629 10.3054 47.4024 8.55344C42.114 5.07433 36.3547 4.54176 30.3874 6.33109C26.1813 7.59034 23.2202 10.2358 22.1956 14.673C21.7071 16.7883 21.9476 18.9335 21.885 21.0688C21.8699 21.6063 22.2131 21.4844 22.5012 21.4471C24.6807 21.1733 26.6698 20.4591 28.3407 18.9808C29.4831 17.9679 30.1344 18.0924 30.911 19.4163C32.2087 21.6262 34.0149 23.2961 36.3823 24.299C41.5353 26.4841 46.3026 25.4836 50.8119 22.4898C51.1651 22.2559 51.2052 21.9796 51.2027 21.6287C51.1977 20.5113 51.2027 19.3964 51.2027 18.279H51.2052ZM65.1864 14.9069C61.6091 16.2359 58.0693 16.4051 54.4794 15.7083C53.8256 15.5813 53.773 15.8501 53.7755 16.3827C53.788 18.9883 53.7805 21.5964 53.7504 24.202C53.7454 24.7221 53.8707 24.9934 54.3943 25.2298C56.2781 26.0759 57.2226 27.9026 56.937 29.9507C56.684 31.7525 55.0281 33.3577 53.0841 33.614C52.5755 33.6812 52.3651 33.8604 52.1973 34.3506C50.5464 39.1686 47.47 42.8045 42.9508 45.221C42.5574 45.4325 42.2468 45.6018 42.2593 46.1667C42.2719 46.7465 42.6827 46.8013 43.0209 46.9556C46.0772 48.3442 49.1385 49.7254 52.2048 51.0992C53.7279 51.781 55.1082 52.6695 56.2631 53.874C56.5687 54.195 56.8819 54.312 57.3228 54.3095C59.2618 54.2995 61.1857 54.4862 63.0971 54.8296C63.7585 54.9491 64.3923 55.2378 65.1388 55.2104C64.9159 54.0457 64.5702 53.0005 63.7184 52.2041C62.5485 51.1091 62.556 51.1041 63.2525 49.6085C64.8182 46.2463 65.6048 42.7398 64.2921 39.1562C62.7665 34.9927 62.4082 30.7123 62.4408 26.3522C62.4408 26.0734 62.5886 25.7549 62.308 25.4712C61.9097 25.7673 61.5389 26.0411 61.1707 26.3148C60.5143 26.8001 59.853 26.8972 59.2467 26.2576C58.7582 25.74 58.8534 24.9983 59.4747 24.3588C60.126 23.6893 60.7598 22.995 61.4688 22.3903C63.7284 20.4566 64.6579 17.8858 65.1864 14.9119V14.9069ZM10.702 25.4264C10.6469 25.516 10.6218 25.5384 10.6218 25.5633C10.6218 25.8743 10.6168 26.1829 10.6218 26.494C10.6669 30.8566 10.3337 35.1619 8.70789 39.2806C8.35467 40.1765 8.2269 41.1347 8.17931 42.1027C8.04403 44.9 8.73044 47.5056 10.0081 49.9743C10.4239 50.7781 10.3914 51.4451 9.60223 52C8.67783 52.6496 8.3221 53.645 8.02399 54.6654C7.86867 55.193 8.07159 55.3199 8.57262 55.173C10.5016 54.6106 12.4882 54.424 14.4848 54.3319C14.9282 54.312 15.2313 54.1577 15.5344 53.8491C16.7018 52.662 18.0746 51.7661 19.6003 51.0867C22.6666 49.7204 25.7254 48.3343 28.7816 46.9431C29.1173 46.7913 29.5958 46.7515 29.5332 46.1617C29.4781 45.6266 29.5908 45.1339 28.9545 44.7432C24.9513 42.2894 22.2357 38.7978 20.7902 34.3531C20.6449 33.9052 20.4696 33.7111 19.9936 33.6289C17.9419 33.2731 16.3311 31.6554 16.0856 29.7691C15.8325 27.8279 16.8396 26.1157 18.8162 25.1402C19.0642 25.0183 19.3072 24.9585 19.3097 24.5803C19.3272 21.5814 19.2345 18.5802 19.4124 15.5565C15.5194 16.3877 11.7391 16.3454 7.90875 14.9119C8.28452 17.3707 8.98596 19.5507 10.5817 21.34C11.5337 22.4052 12.5984 23.3733 13.6155 24.3787C14.1741 24.9312 14.3395 25.5384 13.8485 26.2028C13.4 26.8101 12.7161 26.8524 11.942 26.3397C11.5312 26.066 11.1454 25.7549 10.702 25.4264ZM51.2954 25.2845C50.847 25.511 50.5489 25.6529 50.2583 25.8121C42.595 29.9831 33.8946 27.9698 29.5683 21.997C29.2927 21.6188 29.1023 21.6312 28.7491 21.8676C26.9278 23.0871 24.9087 23.7764 22.7242 23.9432C22.0603 23.9929 21.8524 24.202 21.8574 24.8888C21.8775 26.8574 21.8399 26.8574 19.976 27.4322C19.0266 27.7234 18.4604 28.679 18.6809 29.6148C18.8863 30.4858 19.9335 31.2398 20.7802 31.1279C22.3409 30.9213 22.5739 31.0955 22.9722 32.6136C24.3876 38.0239 27.7495 41.7618 32.8951 43.9493C34.5811 44.666 36.3322 44.8925 38.1083 44.3848C44.1833 42.6502 48.194 38.8028 49.9927 32.7554C50.5113 31.0134 50.5238 30.9611 52.3451 31.1403C53.2118 31.2249 54.2014 30.4709 54.4018 29.5675C54.6072 28.6492 54.0235 27.584 53.039 27.4571C51.7589 27.2904 51.0699 26.7703 51.2929 25.2845H51.2954ZM39.7467 46.6047C36.9534 47.3737 34.9944 47.4433 32.617 46.53C32.0559 46.3135 32.0333 46.5823 32.0784 46.9854C32.1861 47.9386 31.7177 48.4886 30.8584 48.8245C30.0768 49.1282 29.3228 49.4965 28.5537 49.8324C28.2706 49.9569 28.1027 50.0813 28.3307 50.4297C29.3177 51.9328 30.1745 53.533 31.2768 54.9441C33.604 57.9255 38.2536 57.9105 40.5358 54.9167C41.6932 53.3962 42.6326 51.7114 43.6948 50.0614C42.8255 49.6632 42.0539 49.2576 41.2422 48.9515C40.1751 48.5483 39.4035 47.9908 39.7442 46.6022L39.7467 46.6047Z" fill="var(--fill-0, #2A9D8F)"/>
<path id="Vector_2" d="M69.0168 66.1206C68.15 66.1206 67.4711 66.1405 66.7948 66.1156C65.8478 66.0807 65.3117 65.5731 65.3393 64.7842C65.3643 64.0226 65.8754 63.5772 66.7973 63.5697C68.3555 63.5548 69.9162 63.5747 71.4744 63.5622C72.0856 63.5573 72.5766 63.7364 72.8597 64.3063C73.1503 64.8937 72.9223 65.3814 72.5491 65.8393C71.4794 67.1508 70.4122 68.4649 69.2348 69.9107C70.1316 69.9107 70.8656 69.8908 71.5996 69.9157C72.4489 69.9456 73.0526 70.4981 72.9925 71.2198C72.9248 72.0186 72.4263 72.4566 71.6347 72.4715C69.9813 72.4989 68.3304 72.4865 66.677 72.4765C66.1108 72.474 65.6299 72.265 65.3844 71.7225C65.1414 71.1874 65.2791 70.6996 65.6424 70.2567C66.7196 68.9377 67.7943 67.6187 69.0143 66.1206H69.0168Z" fill="var(--fill-0, #2A9D8F)"/>
<path id="Vector_3" d="M3.78797 2.52351C2.81598 2.52351 2.07195 2.54342 1.33042 2.51853C0.553827 2.49116 0.105406 2.06062 0.095385 1.29164C0.0853644 0.522647 0.52126 0.0473178 1.29535 0.032386C3.00887 3.37048e-05 4.7249 -0.0198754 6.43842 0.032386C7.63838 0.0697155 8.12438 1.18711 7.37033 2.15768C6.30815 3.52892 5.18835 4.85536 3.95832 6.36845C4.84765 6.36845 5.57164 6.35601 6.29562 6.37094C7.16992 6.39085 7.73358 6.89107 7.73859 7.61526C7.7436 8.34194 7.18746 8.86704 6.31316 8.87949C4.69233 8.90188 3.0715 8.88446 1.45067 8.88695C0.879496 8.88695 0.406023 8.71026 0.137973 8.1752C-0.152625 7.59286 0.0553027 7.10011 0.43358 6.63971C1.50829 5.32322 2.583 4.00425 3.78797 2.52102V2.52351Z" fill="var(--fill-0, #2A9D8F)"/>
<path id="Vector_4" d="M69.1521 6.36842C68.4482 6.36344 67.8494 5.7363 67.8795 5.03451C67.9095 4.36009 68.4882 3.80761 69.1621 3.8101C69.8711 3.81508 70.4548 4.42977 70.4272 5.13903C70.3997 5.80847 69.8135 6.37339 69.1496 6.36842H69.1521Z" fill="var(--fill-0, #2A9D8F)"/>
<path id="Vector_5" d="M43.5595 34.0669C41.9462 34.0719 40.4105 33.0192 39.8569 31.5584C39.5838 30.8342 39.7717 30.2718 40.4231 29.896C41.0493 29.5351 41.7257 29.784 42.1516 30.4783C43.051 31.9416 44.0806 31.9043 44.9624 30.3763C45.3432 29.7168 45.9219 29.4704 46.6208 29.7541C47.3348 30.0453 47.5227 30.6575 47.3172 31.3717C46.8813 32.8948 45.2455 34.0595 43.5595 34.0644V34.0669Z" fill="var(--fill-0, #2A9D8F)"/>
<path id="Vector_6" d="M29.4806 34.0694C27.9023 34.0719 26.4193 33.0789 25.813 31.643C25.4949 30.8939 25.6577 30.2991 26.3516 29.896C26.9729 29.5326 27.6894 29.7715 28.0702 30.4883C28.3858 31.0781 28.7741 31.5285 29.4806 31.5235C30.1845 31.5186 30.6004 31.093 30.8684 30.4684C31.1916 29.7143 31.8028 29.4928 32.5519 29.7541C33.2383 29.993 33.4688 30.7446 33.1656 31.5435C32.587 33.0615 31.124 34.0644 29.4831 34.0669L29.4806 34.0694Z" fill="var(--fill-0, #2A9D8F)"/>
</g>
<defs>
<clipPath id="clip0_0_132">
<rect width="73" height="75" fill="white"/>
</clipPath>
</defs>
</svg>
