<svg preserveAspectRatio="none" width="100%" height="100%" overflow="visible" style="display: block;" viewBox="0 0 64 86" fill="none" xmlns="http://www.w3.org/2000/svg">
<g id="Layer_1" clip-path="url(#clip0_0_64)">
<path id="Vector" d="M0 40.594C0 32.2698 0 23.943 0 15.6187C0 11.033 2.79807 8.25223 7.40788 8.2471C10.6783 8.24453 13.9462 8.22913 17.2141 8.26251C17.8838 8.27021 18.1926 8.14439 18.2601 7.41519C18.3536 6.43436 18.5431 5.44839 18.8 4.4958C19.6306 1.44033 22.6649 -0.439173 25.8056 0.0871901C36.702 1.91534 47.5957 3.74605 58.4947 5.56393C62.3051 6.2007 64.5191 9.09185 63.8936 12.8483C62.4738 21.3959 60.9943 29.9358 59.533 38.4757C58.0742 46.9848 56.5947 55.4914 55.1516 64.0031C54.8375 65.8595 54.0822 67.4231 52.4625 68.4656C51.9849 68.7711 51.9771 69.1434 51.9693 69.5979C51.92 72.5738 52.1355 75.5548 51.8577 78.5255C51.4476 82.9033 47.8813 86.0179 43.3805 85.9999C38.8226 85.9819 35.3107 82.8289 34.9006 78.4049C34.763 76.9336 34.7968 75.4598 34.8383 73.9911C34.8617 73.208 34.68 72.9846 33.8468 72.9872C25.0762 73.0206 16.303 73.0103 7.53247 73.0077C2.77471 73.0103 0 70.2706 0 65.5693C0 57.2451 0 48.9183 0 40.594ZM3.10954 40.6248C3.10954 49.0749 3.10435 57.5275 3.11214 65.9776C3.11214 68.3423 4.61759 69.924 6.90952 69.9291C15.9708 69.9445 25.0295 69.9291 34.0908 69.9497C34.7007 69.9497 34.8305 69.7802 34.8305 69.2025C34.8123 58.4801 34.8149 47.7551 34.8253 37.0327C34.8253 36.586 34.7397 36.2958 34.3114 36.0211C32.6035 34.9324 31.9208 33.0786 32.4867 31.2838C33.0395 29.5301 34.6177 28.4209 36.6137 28.4081C38.3943 28.3952 40.1749 28.3593 41.9529 28.4261C42.7601 28.4569 42.8951 28.177 42.8899 27.4581C42.8561 23.4577 42.8769 19.4548 42.8717 15.4544C42.8691 12.7661 41.4 11.3257 38.6616 11.3257C28.2429 11.3257 17.8215 11.3257 7.40269 11.3257C4.53973 11.3257 3.11214 12.7353 3.10954 15.5623C3.10954 23.9173 3.10954 32.2724 3.10954 40.6274V40.6248ZM21.2581 8.2471C21.6863 8.2471 22.0393 8.2471 22.3897 8.2471C27.7964 8.2471 33.2005 8.24453 38.6071 8.2471C43.1572 8.24967 45.9787 11.0484 45.9813 15.5571C45.9839 19.5601 45.9968 23.563 45.9657 27.5633C45.9605 28.2206 46.111 28.4517 46.8093 28.4184C48.0032 28.3593 49.205 28.3875 50.4016 28.4081C52.2575 28.4389 53.82 29.5866 54.3391 31.2761C54.8816 33.0349 54.2509 34.8965 52.6702 35.8978C52.1381 36.2368 51.9538 36.5706 51.9564 37.1868C51.9797 45.4802 51.9719 53.7736 51.9719 62.0671V63.0248C52.2549 62.4317 52.3483 61.8385 52.4495 61.248C55.245 44.9539 58.0405 28.6597 60.8385 12.3656C61.1682 10.4501 60.0936 8.9609 58.1469 8.63481C54.5156 8.02372 50.8844 7.41262 47.2531 6.80153C39.9257 5.56907 32.5983 4.33147 25.2709 3.11185C23.7265 2.85509 22.1847 3.7897 21.8031 5.24041C21.5514 6.193 21.4475 7.18667 21.2607 8.2471H21.2581ZM48.865 63.8541C48.865 59.3069 48.8468 54.7622 48.8832 50.2149C48.8883 49.5011 48.6158 49.2521 47.9747 49.1827C46.638 49.0338 45.5011 49.4087 44.5199 50.3305C42.934 51.8197 41.034 52.5309 38.8511 52.2742C38.0153 52.1766 37.9089 52.4488 37.9115 53.1703C37.9349 61.1427 37.9245 69.1152 37.9297 77.0877C37.9297 77.5036 37.9582 77.9196 38.0101 78.3304C38.3476 80.9314 40.5928 82.9264 43.2351 82.9881C46.4251 83.0625 48.839 80.6515 48.8572 77.3008C48.8832 72.8177 48.8624 68.3346 48.8624 63.8541H48.865ZM37.9271 42.8304C37.9271 44.6226 37.9608 46.4174 37.9089 48.207C37.8907 48.8772 38.1711 49.1006 38.7681 49.1956C40.097 49.4087 41.2728 49.1339 42.2618 48.207C43.9255 46.6511 45.8826 45.8859 48.1772 46.1273C48.7923 46.1914 48.8728 45.9681 48.8676 45.452C48.8494 42.7637 48.8416 40.0754 48.8728 37.3871C48.8806 36.7991 48.7118 36.6245 48.1149 36.6296C44.9768 36.6579 41.8361 36.6656 38.698 36.6245C38.0101 36.6168 37.9011 36.8607 37.9115 37.4538C37.9427 39.246 37.9219 41.0382 37.9219 42.8304H37.9271ZM43.4428 31.4764C41.2131 31.4764 38.9835 31.4918 36.7565 31.4687C36.0037 31.461 35.4249 31.6921 35.4041 32.4829C35.3834 33.2763 35.9674 33.569 36.7071 33.569C41.1664 33.569 45.6231 33.569 50.0823 33.569C50.8221 33.569 51.4061 33.2737 51.3879 32.4829C51.3698 31.6946 50.7883 31.461 50.0356 31.4687C47.8397 31.4918 45.6412 31.4764 43.4454 31.4764H43.4428Z" fill="var(--fill-0, #2A9D8F)"/>
<path id="Vector_2" d="M18.364 56.0692C22.0186 56.0692 25.6706 56.0666 29.3252 56.0692C30.5971 56.0692 31.259 56.5853 31.2745 57.5584C31.2927 58.5752 30.6023 59.1401 29.2993 59.1401C21.9926 59.1427 14.6834 59.1452 7.37673 59.1401C5.90242 59.1401 5.06404 58.0694 5.6195 56.9371C5.96212 56.2412 6.5669 56.0615 7.30405 56.0641C10.9898 56.0769 14.6756 56.0692 18.3614 56.0692H18.364Z" fill="var(--fill-0, #2A9D8F)"/>
<path id="Vector_3" d="M16.8845 44.2504C13.6477 44.2504 10.411 44.2453 7.17427 44.2504C6.27359 44.2504 5.66622 43.8576 5.48712 42.9846C5.33398 42.2374 5.69737 41.67 6.36963 41.3362C6.74859 41.1487 7.18465 41.1667 7.60774 41.1667C10.4551 41.1718 13.3051 41.1667 16.1525 41.1667C19.4204 41.1667 22.6908 41.1667 25.9587 41.1667C26.2806 41.1667 26.6102 41.159 26.9269 41.2078C27.7834 41.3439 28.3545 42.0115 28.3129 42.7894C28.2714 43.5828 27.6614 44.2042 26.7867 44.2273C25.3643 44.2658 23.9393 44.2427 22.5143 44.2427C20.6377 44.2427 18.7611 44.2427 16.8819 44.2427L16.8845 44.2504Z" fill="var(--fill-0, #2A9D8F)"/>
<path id="Vector_4" d="M16.8248 66.5811C13.7827 66.5811 10.7406 66.5836 7.69858 66.5785C7.34558 66.5785 6.9796 66.5734 6.63957 66.4938C5.83494 66.3038 5.43002 65.7312 5.46895 64.948C5.50529 64.2137 5.93097 63.6873 6.70447 63.5487C7.01853 63.4922 7.34818 63.4999 7.67263 63.4999C13.8216 63.4999 19.9706 63.4973 26.1222 63.4999C26.4441 63.4999 26.7763 63.4922 27.0878 63.5538C27.8561 63.7053 28.2714 64.2317 28.3051 64.9686C28.3389 65.7132 27.9521 66.2678 27.2046 66.4707C26.8386 66.5708 26.4363 66.5734 26.0522 66.5734C22.9764 66.5811 19.9032 66.5785 16.8274 66.5785L16.8248 66.5811Z" fill="var(--fill-0, #2A9D8F)"/>
<path id="Vector_5" d="M16.5574 51.6914C13.5179 51.6914 10.4759 51.694 7.43643 51.6914C6.19832 51.6914 5.48453 51.1496 5.45338 50.2048C5.41964 49.2393 6.19053 48.6205 7.44681 48.618C13.5595 48.6154 19.6747 48.6128 25.7874 48.618C27.2643 48.618 28.1079 49.6758 27.555 50.8107C27.215 51.5065 26.6154 51.6991 25.8757 51.6965C22.7713 51.6837 19.6644 51.6914 16.56 51.6914H16.5574Z" fill="var(--fill-0, #2A9D8F)"/>
<path id="Vector_6" d="M14.3148 33.772C16.6119 33.772 18.909 33.7668 21.2087 33.772C22.4443 33.7771 23.1191 34.3394 23.0983 35.3254C23.0802 36.2626 22.4053 36.8403 21.2425 36.8428C16.6145 36.8531 11.9865 36.8531 7.35856 36.8428C6.18275 36.8428 5.42483 36.1932 5.44559 35.2612C5.46636 34.342 6.16198 33.7771 7.32222 33.772C9.65308 33.7643 11.9813 33.772 14.3122 33.772H14.3148Z" fill="var(--fill-0, #2A9D8F)"/>
<path id="Vector_7" d="M40.9432 58.3133C41.7893 58.3338 42.5057 59.0631 42.4642 59.8667C42.4227 60.6858 41.6803 61.3354 40.8264 61.2969C40.0036 61.2584 39.3728 60.6062 39.378 59.7974C39.3832 58.9552 40.0814 58.2928 40.9432 58.3133Z" fill="var(--fill-0, #2A9D8F)"/>
<path id="Vector_8" d="M41.5791 68.666C42.4019 68.6865 43.1105 69.4363 43.0768 70.2502C43.0404 71.0898 42.3163 71.7445 41.4675 71.706C40.668 71.6675 40.0114 70.9794 40.014 70.1886C40.0191 69.3695 40.7615 68.6454 41.5765 68.666H41.5791Z" fill="var(--fill-0, #2A9D8F)"/>
<path id="Vector_9" d="M45.8645 76.9953C45.0365 76.9697 44.3772 76.2456 44.4031 75.3931C44.4317 74.5381 45.1325 73.8988 45.989 73.9424C46.8015 73.9861 47.4088 74.6434 47.4011 75.4702C47.3933 76.3201 46.6847 77.0184 45.8645 76.9953Z" fill="var(--fill-0, #2A9D8F)"/>
<path id="Vector_10" d="M45.9268 66.7967C45.1013 66.8121 44.4031 66.1112 44.4005 65.2587C44.3979 64.4345 45.0131 63.7824 45.8255 63.7464C46.6873 63.7079 47.3777 64.3472 47.3985 65.2074C47.4218 66.0573 46.7522 66.7788 45.9242 66.7967H45.9268Z" fill="var(--fill-0, #2A9D8F)"/>
</g>
<defs>
<clipPath id="clip0_0_64">
<rect width="64" height="86" fill="white"/>
</clipPath>
</defs>
</svg>
