<svg preserveAspectRatio="none" width="100%" height="100%" overflow="visible" style="display: block;" viewBox="0 0 77 74.6962" fill="none" xmlns="http://www.w3.org/2000/svg">
<g id="Group 112">
<path id="Vector" d="M38.4851 38.5481C34.8392 38.5481 31.1913 38.5668 27.5454 38.5294C26.9336 38.5232 26.6412 38.7389 26.3509 39.2325C23.2546 44.4669 22.0268 50.1265 22.4312 56.1677C22.7568 61.0475 23.6818 65.8506 24.3081 70.691C24.4512 71.7923 24.6067 72.8914 24.7872 73.9885C24.839 74.3058 24.7415 74.4012 24.4491 74.4281C24.0903 74.4613 23.7316 74.5256 23.3749 74.5775C22.3441 74.7268 22.3566 74.7247 22.2176 73.7375C21.5685 69.1087 20.8883 64.4819 20.262 59.8488C19.2022 51.9889 20.1707 44.496 24.4242 37.6294C24.6544 37.2581 24.5694 36.9865 24.4471 36.6339C23.4474 33.716 23.1426 30.7918 24.4636 27.8801C24.6067 27.5669 24.5404 27.3575 24.3517 27.1107C23.7565 26.3309 23.1467 25.5594 22.5972 24.7465C20.6083 21.8057 20.6311 17.994 22.6283 15.0511C22.846 14.7318 23.0762 14.4186 23.3085 14.1075C24.9303 11.9486 24.922 11.9486 24.8556 9.26295C24.8452 8.86891 24.7602 8.75278 24.3454 8.74033C20.1396 8.61383 17.4 11.258 17.398 15.4742C17.398 17.1561 17.371 18.838 17.4125 20.5179C17.427 21.0819 17.2507 21.1877 16.724 21.1794C14.9135 21.1566 14.8886 21.1773 14.9197 19.3295C14.9529 17.3925 14.76 15.4493 15.0524 13.5206C15.6559 9.55744 19.1608 6.44248 23.1758 6.27657C24.4657 6.22265 25.766 6.39686 27.0477 6.17288C29.9366 5.66686 31.9545 3.52662 32.2531 0.621126C32.3029 0.13584 32.4335 -0.0134787 32.8836 0.0570329C33.0101 0.0777716 33.1407 0.0591068 33.2714 0.0591068C34.8848 0.0591068 34.9014 0.0611806 34.6173 1.64769C34.3477 3.15125 33.7152 4.49927 32.7052 5.64612C32.4128 5.97794 32.2801 6.30353 32.2842 6.74942C32.305 8.94772 32.2925 11.146 32.2946 13.3443C32.2946 14.5202 32.7135 14.9516 33.8583 14.9537C36.9608 14.9578 40.0654 14.9578 43.1679 14.9537C44.2712 14.9537 44.7005 14.5119 44.7046 13.392C44.7088 11.1668 44.6943 8.94357 44.715 6.72038C44.7191 6.29731 44.5843 5.9966 44.3147 5.68759C43.0518 4.23796 42.4026 2.52909 42.2326 0.621126C42.1952 0.202204 42.2699 0.0114077 42.7469 0.0466635C43.3379 0.0902148 44.0223 -0.12132 44.5055 0.110954C44.997 0.347375 44.7544 1.11678 44.8996 1.6394C45.6296 4.3064 48.0332 6.19362 50.8226 6.26206C52.4194 6.30146 54.0225 6.1397 55.6028 6.55447C59.2321 7.50638 61.9489 10.8038 62.0629 14.541C62.1252 16.5816 62.0754 18.6265 62.092 20.6692C62.094 21.0073 62.0484 21.1545 61.644 21.1732C59.6013 21.2644 59.6282 21.279 59.595 19.2424C59.5639 17.3842 59.7962 15.5115 59.4478 13.6699C58.8547 10.5239 55.607 8.26334 52.4692 8.73619C52.1747 8.77974 52.1519 8.90417 52.154 9.1323C52.1602 10.0116 52.1685 10.8909 52.1498 11.7703C52.1436 12.0648 52.3054 12.2473 52.4568 12.4526C53.1017 13.3257 53.7778 14.176 54.3875 15.0719C56.3847 18.0022 56.3826 21.8306 54.3875 24.7651C53.8504 25.5553 53.2594 26.3081 52.6849 27.0713C52.5086 27.3056 52.3676 27.5089 52.5211 27.8365C53.8691 30.742 53.5621 33.6724 52.5605 36.5862C52.3987 37.0591 52.4298 37.3764 52.6766 37.7849C56.113 43.4673 57.4776 49.6475 57.0525 56.2465C56.7144 61.5141 55.6982 66.6968 55.0242 71.9229C54.9226 72.7172 54.7733 73.5053 54.682 74.2996C54.6426 74.6397 54.5286 74.76 54.1988 74.6646C54.0993 74.6355 53.9956 74.6252 53.894 74.6044C53.3236 74.4924 52.5128 74.6708 52.2473 74.2208C52.0233 73.8392 52.3531 73.1341 52.4298 72.572C53.0893 67.8125 53.811 63.0613 54.3875 58.2913C55.2005 51.5907 54.176 45.2177 50.7126 39.3279C50.3829 38.7679 50.049 38.5066 49.3397 38.517C45.7208 38.5668 42.0998 38.5398 38.4789 38.5398L38.4851 38.5481ZM29.8101 7.89834C29.0863 8.2426 28.4517 8.4728 27.7943 8.55991C27.3567 8.61798 27.3194 8.81914 27.3256 9.16548C27.338 10.1215 27.3028 11.0797 27.3401 12.0357C27.3629 12.6434 27.1763 13.1307 26.8092 13.5994C26.0916 14.514 25.3865 15.4389 24.7229 16.3929C23.2235 18.5477 23.2235 21.281 24.7125 23.4399C25.2102 24.1616 25.7743 24.8398 26.2679 25.5657C26.5583 25.9908 26.8859 26.1463 27.4127 26.1443C34.0325 26.1235 40.6502 26.1339 47.27 26.1297C48.2758 26.1297 49.46 26.4284 50.2356 25.9991C51.1046 25.518 51.6314 24.3877 52.2535 23.5022C53.8006 21.2997 53.7882 18.5228 52.239 16.3245C51.6293 15.4597 50.9988 14.6052 50.331 13.7861C49.8478 13.1929 49.6197 12.5708 49.6653 11.7972C49.7193 10.8951 49.6819 9.9888 49.6736 9.08252C49.6736 8.89795 49.7649 8.63664 49.4393 8.60346C48.6699 8.52465 47.9731 8.17831 47.1954 7.96263C47.1954 9.82912 47.1995 11.6396 47.1954 13.448C47.1891 15.8745 45.6441 17.4361 43.2363 17.4402C40.082 17.4464 36.9276 17.4464 33.7733 17.4402C31.3696 17.4361 29.8225 15.8703 29.8163 13.4459C29.8122 11.6375 29.8163 9.82704 29.8163 7.89834H29.8101ZM38.5826 28.6163C34.9118 28.6163 31.2431 28.6329 27.5724 28.5997C26.971 28.5935 26.7159 28.8133 26.5271 29.336C25.8365 31.246 26.0419 33.1353 26.5313 35.0453C26.7221 35.7961 27.0041 36.2316 27.8752 36.0781C28.3252 35.9972 28.8022 36.0636 29.2688 36.0636C35.9881 36.0636 42.7075 36.0636 49.4268 36.0594C49.7338 36.0594 50.0843 36.1901 50.2419 35.7173C50.9594 33.5604 51.2415 31.4036 50.4264 29.2012C50.2564 28.7408 50.0054 28.5997 49.516 28.6039C45.8722 28.6267 42.2284 28.6163 38.5846 28.6163H38.5826Z" fill="var(--fill-0, #2A9D8F)"/>
<path id="Vector_2" d="M38.3939 54.5501C38.3297 55.5954 38.2633 56.6406 38.2031 57.6879C37.8983 63.109 37.5893 68.528 37.3093 73.9512C37.2803 74.4946 37.1392 74.6211 36.598 74.5879C34.7875 74.4759 34.7958 74.5008 34.8932 72.7276C35.2271 66.6615 35.5527 60.5955 35.8825 54.5294C35.9053 54.1167 35.9364 53.704 35.98 53.2934C36.1251 51.9661 37.1579 50.9914 38.4437 50.9644C39.7689 50.9354 40.8722 51.8707 41.0236 53.2457C41.1501 54.4008 41.1916 55.5663 41.2559 56.7277C41.5732 62.3811 41.8718 68.0344 42.2161 73.6857C42.2596 74.3929 42.0585 74.5505 41.3948 74.5588C39.7834 74.5775 39.7482 74.6128 39.6549 73.0055C39.3562 67.8685 39.0866 62.7316 38.8025 57.5946C38.7465 56.5804 38.6781 55.5663 38.6158 54.5501C38.5412 54.5501 38.4645 54.5522 38.3898 54.5543L38.3939 54.5501Z" fill="var(--fill-0, #2A9D8F)"/>
<path id="Vector_3" d="M4.23727 34.8234C5.14977 35.7256 5.9171 36.5116 6.71762 37.2644C7.02662 37.5547 7.05981 37.7227 6.73836 38.0525C5.37375 39.4523 5.38619 39.4648 3.98218 38.0628C2.86644 36.9471 1.75069 35.8355 0.639099 34.7156C-0.202893 33.8695 -0.213262 33.3012 0.610065 32.4717C2.04933 31.0241 3.51141 29.5952 4.93201 28.129C5.27835 27.7723 5.45048 27.8158 5.77815 28.1414C7.11788 29.477 7.13239 29.4687 5.80511 30.7877C5.3302 31.2585 4.84076 31.7147 4.34926 32.1855C4.58568 32.4364 4.83039 32.3286 5.04193 32.3286C8.09259 32.3369 11.1433 32.3472 14.1919 32.3224C14.7269 32.3182 14.9467 32.3825 14.9322 33.013C14.8887 34.8172 14.9239 34.8193 13.1487 34.8193H4.23727V34.8234Z" fill="var(--fill-0, #2A9D8F)" fill-opacity="0.847059"/>
<path id="Vector_4" d="M72.7952 34.8235H67.5711C65.9431 34.8235 64.313 34.809 62.685 34.8338C62.2371 34.8401 62.0691 34.7696 62.0691 34.2573C62.0691 32.339 62.0463 32.339 63.9688 32.339C66.812 32.339 69.6553 32.3348 72.5007 32.3307C72.5214 32.3307 72.5401 32.3099 72.6811 32.2332C71.8764 31.4431 71.1133 30.6633 70.3148 29.9229C69.9809 29.6118 69.9 29.4065 70.2941 29.0809C70.769 28.6869 71.1693 27.9299 71.6483 27.8905C72.1523 27.849 72.5504 28.6413 72.9901 29.0726C74.1162 30.1759 75.2257 31.2979 76.3373 32.4157C77.2125 33.295 77.2208 33.855 76.3622 34.7177C74.9395 36.1487 73.5024 37.561 72.0921 39.0023C71.781 39.3196 71.5861 39.4358 71.2522 39.0314C70.8582 38.5544 70.095 38.1624 70.0514 37.6813C70.0058 37.1773 70.8063 36.7854 71.2315 36.3395C71.6877 35.8646 72.1751 35.4208 72.7972 34.8214L72.7952 34.8235Z" fill="var(--fill-0, #2A9D8F)" fill-opacity="0.847059"/>
<path id="Vector_5" d="M13.804 51.0287C13.8745 49.9476 14.3992 49.4595 15.378 49.5646C16.0583 49.6379 16.3714 50.0243 16.3175 50.7239C16.2511 51.5742 15.7942 51.9737 14.9467 51.9226C14.8699 51.9184 14.7911 51.906 14.7144 51.9122C13.9574 51.9827 13.4763 51.8106 13.804 51.0287Z" fill="var(--fill-0, #2A9D8F)"/>
<path id="Vector_6" d="M61.8018 51.9328C61.7292 51.9391 61.5446 51.9328 61.3704 51.9743C60.9494 52.0759 60.7876 51.9328 60.7275 51.4911C60.4994 49.7822 60.4932 49.8237 62.1585 49.4753C62.8677 49.3281 63.1498 49.5085 63.1436 50.2074C63.1436 50.2841 63.1581 50.3608 63.1643 50.4376C63.2431 51.3722 62.7882 51.8706 61.7997 51.9328H61.8018Z" fill="var(--fill-0, #2A9D8F)"/>
<path id="Vector_7" d="M61.0717 58.8845C61.6855 59.4113 62.8033 58.6107 62.9216 59.6518C62.9879 60.2346 63.2243 61.3711 62.3243 61.5287C61.7353 61.6324 60.5822 61.8211 60.3645 60.9231C60.2297 60.3652 60.1446 59.3594 61.0737 58.8845H61.0717Z" fill="var(--fill-0, #2A9D8F)"/>
<path id="Vector_8" d="M14.8223 56.7089C14.1006 56.7546 13.7252 56.4041 13.6962 55.6575C13.663 54.7892 14.0757 54.3489 14.9343 54.3364C15.7362 54.3254 16.1523 54.716 16.1827 55.5082C16.1827 55.56 16.1869 55.6119 16.1889 55.6637C16.2221 56.3356 15.8945 56.6841 15.2059 56.7089C15.0774 56.7131 14.9488 56.7089 14.8181 56.7089H14.8223Z" fill="var(--fill-0, #2A9D8F)"/>
<path id="Vector_9" d="M61.6647 69.0485C61.59 69.4509 61.563 69.6541 61.5133 69.8532C61.4117 70.2638 61.5817 70.9897 61.2229 71.0332C60.5116 71.1203 59.7609 70.8984 59.0309 70.7782C58.8919 70.7553 58.9189 70.5749 58.9375 70.4463C58.979 70.1415 59.006 69.8345 59.0578 69.5318C59.1892 68.752 59.6606 68.4298 60.4722 68.5653C60.7003 68.6027 60.9285 68.6524 61.1566 68.6607C61.5589 68.6752 61.7227 68.8474 61.6647 69.0485Z" fill="var(--fill-0, #2A9D8F)"/>
<path id="Vector_10" d="M16.033 59.0193C16.3731 58.9156 16.4499 59.1022 16.51 59.4486C16.8356 61.3005 16.8418 61.2674 15.0127 61.5577C14.4548 61.6469 14.2661 61.5784 14.1769 60.9915C13.9094 59.2142 13.8824 59.2184 15.6825 59.0462C15.7862 59.0359 15.8878 59.0297 16.0309 59.0193H16.033Z" fill="var(--fill-0, #2A9D8F)"/>
<path id="Vector_11" d="M61.7104 66.3401C61.5134 66.3152 61.3848 66.3007 61.2583 66.2799C59.4644 66 59.4748 66.002 59.7983 64.1998C59.8709 63.7996 59.9995 63.586 60.435 63.7187C60.4599 63.727 60.4847 63.727 60.5117 63.7311C62.4943 64.0153 62.486 64.0132 62.092 65.9771C62.0319 66.2758 61.9302 66.3857 61.7104 66.338V66.3401Z" fill="var(--fill-0, #2A9D8F)"/>
<path id="Vector_12" d="M19.1173 41.0719C18.8062 41.7729 18.5719 42.3764 18.2712 42.9426C18.1364 43.1976 17.8813 42.9778 17.7278 42.8886C17.1658 42.563 16.1392 42.6253 16.0666 42.0176C15.9941 41.4037 16.5706 40.709 16.8754 40.0557C16.9439 39.9085 17.0725 39.9437 17.2031 40.0122C17.7755 40.3087 18.352 40.5949 18.9265 40.8832C19.0551 40.9475 19.1277 41.0367 19.1173 41.0699V41.0719Z" fill="var(--fill-0, #2A9D8F)"/>
<path id="Vector_13" d="M15.6081 66.3214C14.9258 66.3588 14.4841 65.7034 14.7267 64.3533C14.8657 63.5798 16.1141 63.6772 16.7363 63.7871C17.6322 63.9448 17.3564 65.0709 17.3025 65.6287C17.1946 66.7217 15.9856 65.8237 15.6102 66.3194L15.6081 66.3214Z" fill="var(--fill-0, #2A9D8F)"/>
<path id="Vector_14" d="M61.0799 42.0799C60.578 42.4926 59.9392 42.6066 59.3834 42.8597C59.1906 42.9468 58.9023 43.2558 58.7115 42.9094C58.4129 42.3702 58.1868 41.7916 57.9338 41.2275C57.8508 41.0429 57.9545 40.9475 58.1142 40.8708C58.67 40.5991 59.2237 40.3212 59.7754 40.0433C59.8895 39.9853 60.0263 39.8754 60.1051 40.035C60.4266 40.68 60.7273 41.3333 61.0819 42.082L61.0799 42.0799Z" fill="var(--fill-0, #2A9D8F)"/>
<path id="Vector_15" d="M16.4625 47.3911C16.3879 47.3724 16.3132 47.3538 16.2385 47.3372C14.2704 46.8913 14.2808 46.8934 14.9175 44.9854C15.0481 44.5914 15.2306 44.496 15.5853 44.6598C15.633 44.6805 15.6786 44.7013 15.7284 44.7179C17.5783 45.284 17.5658 45.2799 16.9561 47.0945C16.8524 47.3994 16.7259 47.4533 16.4646 47.3932L16.4625 47.3911Z" fill="var(--fill-0, #2A9D8F)"/>
<path id="Vector_16" d="M62.5212 46.6694C62.5979 46.883 62.4652 46.9411 62.2972 46.9784C62.1458 47.0116 61.9986 47.0552 61.8472 47.0863C60.1611 47.4533 60.186 47.445 59.6945 45.7797C59.5638 45.3359 59.6592 45.1742 60.0616 45.0829C60.2876 45.0311 60.5074 44.9605 60.7273 44.8921C61.5375 44.6432 62.0552 44.9377 62.2806 45.7756C62.3615 46.0742 62.4403 46.3708 62.5212 46.6673V46.6694Z" fill="var(--fill-0, #2A9D8F)"/>
<path id="Vector_17" d="M18.2377 70.3633C17.5906 71.1763 16.6574 71.112 16.0311 71.0332C15.0377 70.9067 15.3819 69.7992 15.4276 69.2331C15.5126 68.1215 16.6594 68.5591 17.2443 68.5528C18.4865 68.5404 17.5201 69.8117 18.2397 70.3633H18.2377Z" fill="var(--fill-0, #2A9D8F)"/>
<path id="Vector_18" d="M62.1168 54.3364C62.9381 54.3475 63.3349 54.7768 63.3072 55.6243C63.2823 56.3903 62.8682 56.7553 62.065 56.7193C61.2133 56.6806 60.7999 56.2603 60.8248 55.4584C60.8483 54.6994 61.279 54.3254 62.1168 54.3364Z" fill="var(--fill-0, #2A9D8F)"/>
</g>
</svg>
