<svg preserveAspectRatio="none" width="100%" height="100%" overflow="visible" style="display: block;" viewBox="0 0 73 75" fill="none" xmlns="http://www.w3.org/2000/svg">
<g id="Layer_1" clip-path="url(#clip0_0_78)">
<path id="Vector" d="M0.651383 74.9998C0.0489176 74.5746 -0.0899624 74.0261 0.0508736 73.2973C0.582921 70.5468 0.90567 67.7452 1.59811 65.0397C2.86759 60.0852 6.15768 56.9526 10.9754 55.3951C12.5012 54.9014 14.0582 54.5076 15.58 54.0061C16.9629 53.5497 18.1268 53.7769 19.0442 54.9269C19.2515 55.1875 19.4432 55.1404 19.6721 55.0699C20.5327 54.8113 21.3895 54.537 22.2541 54.2921C22.5592 54.2059 22.6785 54.0375 22.7079 53.7299C22.7842 52.9286 22.8741 52.1293 22.9856 51.332C23.0247 51.0518 22.9211 50.8814 22.7392 50.6933C19.0755 46.8887 16.9082 42.2868 15.6719 37.2128C15.4978 36.4938 15.2416 36.0804 14.5628 35.7239C10.2282 33.4454 9.96808 27.9188 12.3408 25.5777C12.3701 25.5503 12.3662 25.4895 12.3897 25.3955C10.8229 25.0017 9.25412 24.6099 7.74208 24.03C6.55671 23.5755 5.40264 23.0583 4.4207 22.2355C2.69155 20.7877 2.69155 18.9579 4.45395 17.5395C6.16159 16.1662 8.21154 15.5236 10.2791 14.9594C11.709 14.5696 13.1604 14.26 14.6137 13.9681C15.0264 13.8858 15.2455 13.7389 15.3883 13.3432C15.5546 12.8828 15.2064 12.7378 14.9795 12.5105C14.0993 11.6309 13.2053 10.7689 12.3329 9.88144C11.7168 9.25453 11.6679 8.63546 12.1491 8.1496C12.6577 7.63632 13.2738 7.70293 13.9213 8.37686C14.7311 9.21927 15.5194 10.0813 16.3996 11.0197C17.8842 8.44739 19.7327 6.50592 22.3245 5.22664C19.1791 3.93559 16.1375 2.72683 12.8611 2.26644C12.2312 2.17828 11.6014 2.16065 10.9696 2.26448C10.3378 2.37028 10.1559 2.73271 10.3652 3.3126C10.4884 3.65544 10.641 3.98653 10.7779 4.32545C11.0341 4.96216 10.8385 5.56556 10.2967 5.8222C9.749 6.07884 9.15044 5.86334 8.81792 5.27561C8.49125 4.69964 8.2624 4.08252 8.14503 3.43211C7.84967 1.8041 8.74163 0.5013 10.4023 0.152581C12.3251 -0.250992 14.1834 0.195681 16.0201 0.6737C19.0853 1.47105 22.0096 2.66218 24.8908 3.96302C25.3446 4.16677 25.7828 4.28039 26.2894 4.24905C28.5076 4.11387 30.6025 4.53312 32.4705 5.80261C32.7131 5.96717 32.893 5.9417 33.1297 5.82808C38.192 3.40664 43.2973 3.64369 48.4261 5.59494C49.2144 5.89469 49.5332 6.48437 49.2809 7.10932C49.0246 7.74799 48.4339 7.94978 47.6241 7.63632C44.1325 6.28455 40.5706 5.81828 36.8932 6.74493C35.9015 6.9957 34.9528 7.36988 34.0334 7.82048C33.7459 7.96153 33.6011 8.13589 33.5444 8.4709C33.2901 9.98332 33.0045 11.4918 32.715 13.0003C32.6466 13.3588 32.7229 13.6449 32.9048 13.9622C35.2599 18.0685 38.593 20.9366 43.1839 22.2982C45.1125 22.8702 47.0725 23.4403 48.7273 24.6511C49.3591 25.1134 49.9538 25.2878 50.7303 25.2114C52.9368 24.9978 55.1432 24.8137 57.3398 24.5041C57.6332 24.463 57.8171 24.4258 57.8288 24.0477C57.9814 19.0128 56.755 14.4873 53.0189 10.8806C52.7216 10.5926 52.3832 10.3497 52.0741 10.0734C51.5323 9.58954 51.4541 8.94108 51.8668 8.45522C52.2697 7.98112 52.8644 7.92235 53.4316 8.35139C55.1256 9.63264 56.4968 11.2038 57.5413 13.0532C57.7526 13.4274 57.999 13.5841 58.4352 13.6507C62.0657 14.213 65.6844 14.834 69.1094 16.2446C70.1031 16.654 71.0596 17.132 71.8596 17.8687C73.3717 19.2577 73.3873 21.0032 71.8479 22.3628C70.3104 23.7185 68.3915 24.316 66.4805 24.892C64.5459 25.4758 62.5703 25.8872 60.5771 26.2203C60.3874 26.2516 60.1859 26.2438 59.9903 26.4319C60.4715 26.8766 60.9566 27.3135 61.428 27.7621C63.5679 29.7996 65.657 31.8781 67.1612 34.4602C67.5172 35.0715 67.8028 35.7141 67.9417 36.4174C68.2898 38.1845 67.4331 39.4912 65.6531 39.8477C63.7303 40.2337 61.8779 39.7811 60.0372 39.3012C59.0064 39.0328 57.9932 38.6958 56.9232 38.3765C56.9897 39.3266 57.0425 40.2415 56.7432 41.1407C55.6674 44.3772 52.571 46.3226 49.1713 45.87C48.8525 45.8269 48.5884 45.8054 48.3263 46.1031C46.5854 48.0818 44.4572 49.5844 42.2332 50.9578C41.8127 51.2183 41.6953 51.4789 41.7481 51.951C41.9867 54.1021 41.975 54.1041 44.025 54.731C44.2343 54.7956 44.4514 54.8368 44.6529 54.921C45.1438 55.1267 45.4979 55.115 45.8949 54.6272C46.4602 53.9297 47.3366 53.5575 48.1933 53.8004C51.0844 54.6193 54.083 55.1757 56.7295 56.6862C60.4734 58.8235 62.6173 62.1148 63.3743 66.3367C63.7909 68.6621 64.1645 70.9973 64.6203 73.315C64.7689 74.0712 64.5812 74.5864 63.9689 74.99H63.2373C62.7992 74.6922 62.5488 74.316 62.4569 73.7597C62.0637 71.3813 61.6373 69.0089 61.1894 66.6403C60.3463 62.1677 57.7976 59.1272 53.4884 57.6402C51.814 57.0623 50.1005 56.6 48.4026 56.0926C47.5498 55.8379 47.3131 55.9966 47.2075 56.8958C47.0353 58.3729 46.9297 59.8579 46.7067 61.3253C46.0769 65.4766 45.0714 69.5261 43.356 73.3776C43.0939 73.9673 42.822 74.5511 42.3251 74.99H41.4469C40.9266 74.5315 40.5901 74.032 40.9481 73.2993C43.1173 68.8717 44.1365 64.1268 44.778 59.28C44.8602 58.6531 45.1204 57.9047 44.8798 57.4208C44.6333 56.9232 43.7668 56.9879 43.1819 56.7724C43.0235 56.7136 42.8474 56.692 42.6968 56.6176C42.3173 56.4315 42.1511 56.5196 42.0826 56.9565C41.6366 59.7384 39.9231 61.5447 37.4722 62.6712C34.5889 63.9975 31.5571 64.0955 28.5584 63.1845C25.4287 62.2343 23.1538 60.332 22.5729 56.8919C22.5142 56.5451 22.3988 56.5098 22.0937 56.6137C21.4736 56.8233 20.8437 57.0133 20.208 57.1759C19.807 57.2798 19.6995 57.4463 19.7523 57.8871C19.94 59.4877 20.255 61.0628 20.5445 62.6438C20.6853 63.4156 20.3958 63.9113 19.7757 64.0798C19.1244 64.2581 18.5649 63.8545 18.3948 63.0317C17.9723 61.002 17.6123 58.9626 17.4578 56.8938C17.3952 56.0612 17.1057 55.8477 16.3331 56.0749C14.6548 56.5706 12.9628 57.0192 11.308 57.5873C7.22569 58.9881 4.55567 61.7602 3.60503 66.0115C3.05733 68.4584 2.68764 70.9444 2.27295 73.4188C2.16928 74.03 2.00889 74.5766 1.52574 74.9861H0.651383V74.9998ZM40.2537 27.8875C41.2082 28.4262 42.0337 28.8847 42.8494 29.3568C43.6161 29.7996 43.845 30.3677 43.5144 30.9652C43.1682 31.5941 42.5305 31.7097 41.7481 31.2591C39.9368 30.2149 38.1255 29.1687 36.3259 28.103C35.9758 27.8953 35.6335 27.8013 35.2305 27.7836C32.7972 27.6837 30.3639 27.5779 27.9305 27.4467C25.2312 27.2997 22.5396 27.0431 19.8618 26.665C19.3356 26.5906 19.0833 26.7042 18.962 27.2645C18.7175 28.3812 18.3674 29.4743 18.1053 30.5871C17.6769 32.3993 17.3502 34.2447 17.7082 36.0941C18.6021 40.7254 20.5601 44.8767 23.635 48.4599C26.663 51.9883 30.4441 53.1363 34.9391 51.8746C38.861 50.7756 42.198 48.6362 45.2886 46.0561C46.9121 44.7004 48.0857 43.0195 48.8701 41.0604C49.5039 39.4775 49.9694 37.8397 50.4878 36.2175C50.5993 35.8649 50.4956 35.7062 50.167 35.5554C49.0403 35.0401 47.9273 34.4935 46.8162 33.9489C46.0006 33.5493 45.7424 32.9576 46.0788 32.317C46.3918 31.7214 47.0079 31.5941 47.7904 31.9722C48.7097 32.4169 49.631 32.8557 50.5425 33.3161C50.9181 33.5062 51.0629 33.4611 51.0374 33.0085C50.924 31.0749 50.2706 29.3548 49.054 27.8483C48.8877 27.6426 48.7175 27.5388 48.4398 27.5505C45.7658 27.6681 43.0939 27.7738 40.2576 27.8894L40.2537 27.8875ZM31.3986 8.04969C31.5258 7.7284 31.2304 7.5991 30.98 7.45217C29.3135 6.47262 27.5002 6.22969 25.6302 6.53335C22.3343 7.07014 20.1024 9.0743 18.4613 11.8738C18.2148 12.295 18.2481 12.5027 18.6178 12.8162C20.6814 14.5598 22.8018 16.2309 24.9573 17.8589C25.2488 18.0783 25.4718 18.1155 25.8023 17.9412C27.8112 16.8852 29.1531 15.1651 30.3932 13.3432C30.4323 13.2844 30.4597 13.2119 30.4714 13.1433C30.7766 11.4683 31.0798 9.79328 31.3967 8.04773L31.3986 8.04969ZM25.0317 52.6132C24.9339 53.4772 24.84 54.1981 24.7715 54.921C24.5192 57.652 25.4776 59.4916 27.9814 60.6259C30.9018 61.9483 33.9024 61.9248 36.8091 60.571C38.4639 59.7992 39.6258 58.5062 39.9427 56.6098C40.0952 55.7027 39.8918 54.8093 39.794 53.918C39.6356 52.4859 39.6121 52.4878 38.2526 53.0422C38.0962 53.1069 37.9397 53.1755 37.7812 53.2362C35.0173 54.3039 32.1889 54.8779 29.2157 54.3548C27.7369 54.0943 26.4029 53.4674 25.0317 52.6132ZM58.8969 15.9409C59.7732 18.5113 60.1468 21.0522 60.0235 23.6558C59.9942 24.2573 60.3658 24.0496 60.624 24.0026C62.6799 23.6264 64.7239 23.1994 66.7113 22.545C67.8869 22.1591 69.0586 21.7438 70.0698 20.9973C70.997 20.3136 70.9931 19.9198 70.0561 19.2283C69.5456 18.8502 68.9803 18.5661 68.3955 18.3251C65.389 17.0831 62.2163 16.5032 58.8929 15.9409H58.8969ZM27.4259 19.5535C27.4689 19.6201 27.4885 19.673 27.5237 19.6985C30.3463 21.732 33.2608 23.6264 36.2086 25.4719C36.4042 25.5953 36.6076 25.6247 36.8306 25.6228C38.9979 25.6051 41.1633 25.5934 43.3306 25.5738C43.6709 25.5718 44.0113 25.5385 44.3516 25.5287C44.692 25.5209 45.0323 25.5287 45.3727 25.5287C45.3962 25.4484 45.4177 25.3681 45.4411 25.2878C39.5906 23.8439 34.5576 21.203 31.4495 15.6862C30.2387 17.2633 29.0044 18.5916 27.4259 19.5515V19.5535ZM59.2352 28.7279C58.3844 31.3649 57.2088 33.6257 54.9613 35.2615C55.9237 35.6279 56.796 35.9903 57.69 36.292C59.8103 37.0051 61.9346 37.728 64.2017 37.7927C65.9426 37.8416 66.2379 37.4008 65.4242 35.8923C63.9102 33.081 61.5923 30.9574 59.2372 28.7299L59.2352 28.7279ZM15.0421 23.6931C14.0856 21.3578 14.0973 19.0794 14.4455 16.7912C14.5237 16.274 14.4279 16.1819 13.9702 16.3288C13.8313 16.3739 13.6846 16.3876 13.5418 16.4209C11.1006 16.9851 8.65361 17.5454 6.45304 18.811C4.99578 19.6495 4.99774 20.1471 6.4726 20.9856C9.08785 22.4745 11.9867 23.0799 15.0421 23.6931ZM22.8996 19.0716C21.0472 17.6532 19.2848 16.2798 17.5928 14.8223C17.2994 14.5696 17.2368 14.6773 17.1312 14.9888C16.5111 16.8421 16.3057 18.7424 16.4993 20.678C16.5971 21.6497 16.8377 22.592 17.4304 23.407C17.7571 23.8576 17.9723 24.0339 18.4026 23.4325C19.6095 21.7398 21.0159 20.2274 22.9015 19.0696L22.8996 19.0716ZM20.3097 24.5198C24.261 25.0135 28.0655 25.3152 32.0969 25.4719C29.7497 23.9281 27.596 22.5117 25.5265 20.9719C25.061 20.6251 24.6757 20.6075 24.2003 20.868C22.6277 21.732 21.4834 23.0426 20.3097 24.5218V24.5198ZM51.4365 27.3742C52.6688 29.3157 53.2419 31.3629 53.2556 33.6178C53.4277 33.5473 53.5236 33.5257 53.5979 33.4748C55.865 31.931 56.7569 29.5684 57.3926 27.0568C57.4631 26.7825 57.3261 26.7355 57.0719 26.7649C55.2429 26.9706 53.4121 27.1626 51.4345 27.3742H51.4365ZM15.3981 33.6472C15.4685 32.6637 15.5976 31.7449 15.8167 30.8457C16.1453 29.4979 16.5052 28.1598 16.8319 26.8119C16.8788 26.6141 17.1468 26.3026 16.6343 26.2242C15.3981 26.0342 13.9095 26.7884 13.4029 27.9012C12.507 29.872 13.4068 32.5442 15.3981 33.6472ZM50.0418 43.7268C51.9529 43.8188 53.7153 42.6806 54.4859 40.9076C55.2547 39.1386 54.4723 37.391 52.6081 36.7504C51.8844 39.115 51.2017 41.4953 50.0437 43.7268H50.0418Z" fill="var(--fill-0, #2A9D8F)"/>
<path id="Vector_2" d="M22.2951 75C21.902 74.5808 21.6457 74.0871 21.4677 73.5424C20.9259 71.8831 20.3625 70.2316 19.8266 68.5722C19.5508 67.7141 19.809 67.1127 20.4897 66.9207C21.1587 66.7326 21.6496 67.0539 21.9137 67.8963C22.4868 69.7222 23.0462 71.5559 23.7563 73.3348C24.0575 74.091 23.7485 74.5788 23.1714 75H22.2932H22.2951Z" fill="var(--fill-0, #2A9D8F)"/>
<path id="Vector_3" d="M29.6871 43.8132C31.3477 43.9307 32.8656 44.4656 33.8887 45.9662C34.3835 46.6931 34.2955 47.3885 33.7068 47.7568C33.1317 48.1154 32.584 47.9253 32.0715 47.1907C31.3888 46.2092 29.8494 45.7605 28.7403 46.219C27.8953 46.5677 27.2772 46.4051 27.021 45.7664C26.7667 45.1375 27.0601 44.5929 27.8503 44.2148C28.4098 43.9484 29.0083 43.8602 29.6871 43.8171V43.8132Z" fill="var(--fill-0, #2A9D8F)"/>
<path id="Vector_4" d="M42.1374 38.3826C41.7285 38.3551 41.4723 38.1847 41.2297 37.9712C40.2811 37.1386 39.3226 36.3177 38.3739 35.4831C37.7832 34.962 37.6971 34.3253 38.1274 33.8238C38.5675 33.3105 39.1759 33.2948 39.794 33.8198C40.7935 34.6681 41.7794 35.5321 42.7613 36.4C43.1584 36.7507 43.3266 37.1777 43.0939 37.7047C42.8943 38.1592 42.5227 38.3356 42.1354 38.3826H42.1374Z" fill="var(--fill-0, #2A9D8F)"/>
<path id="Vector_5" d="M29.2606 30.7343C30.0294 30.6833 30.4675 30.9596 30.6162 31.5982C30.7551 32.1899 30.3893 32.7463 29.7184 32.8677C28.3354 33.1185 26.9466 33.3301 25.5539 33.5201C24.9514 33.6024 24.437 33.1694 24.349 32.6032C24.259 32.0253 24.6072 31.4709 25.2155 31.3651C26.6004 31.1261 27.9912 30.9302 29.2626 30.7343H29.2606Z" fill="var(--fill-0, #2A9D8F)"/>
<path id="Vector_6" d="M34.0021 41.1194C32.6075 41.0665 31.426 40.7492 30.3658 40.0458C29.7105 39.6109 29.5345 38.9919 29.8964 38.4394C30.2543 37.8928 30.8431 37.7694 31.4886 38.171C32.2534 38.6451 33.073 38.8782 33.963 38.9213C34.8139 38.9625 35.3009 39.3954 35.2677 40.0576C35.2325 40.7217 34.6946 41.1312 34.0021 41.1194Z" fill="var(--fill-0, #2A9D8F)"/>
</g>
<defs>
<clipPath id="clip0_0_78">
<rect width="73" height="75" fill="white"/>
</clipPath>
</defs>
</svg>
