<svg preserveAspectRatio="none" width="100%" height="100%" overflow="visible" style="display: block;" viewBox="0 0 50.1146 29.4851" fill="none" xmlns="http://www.w3.org/2000/svg">
<g id="Icon">
<path id="Vector 1" d="M19.7336 19.8437L25.0761 14.7192L30.9638 20.3888C34.9761 23.7906 39.1774 21.0794 40.7765 19.2985C44.8761 13.7161 41.1036 9.63113 38.705 8.28642C34.5182 6.01858 31.6914 8.39546 30.4186 9.5948L35.6521 4.14326C40.3622 0.130934 44.9348 2.94392 46.6642 5.23357C52.8571 13.4327 49.499 20.934 46.01 24.7501C38.4215 31.8153 30.9638 29.6564 27.0387 26.7126L19.7336 19.8437Z" fill="var(--fill-0, #1B4D7A)"/>
<path id="Vector 2" d="M30.381 9.6414L25.0385 14.7658L19.1508 9.09625C15.1385 5.69449 10.9372 8.40572 9.33805 10.1866C5.2385 15.7689 9.01096 19.8539 11.4096 21.1987C15.5964 23.4665 18.4617 21.1519 19.7345 19.9526L14.4625 25.3418C9.75236 29.3541 5.17981 26.5412 3.45039 24.2515C-2.74255 16.0524 0.615595 8.5511 4.10458 4.73502C11.6931 -2.33017 19.1508 -0.171357 23.0759 2.77247L30.381 9.6414Z" fill="var(--fill-0, #2A9D8F)"/>
</g>
</svg>
