<svg preserveAspectRatio="none" width="100%" height="100%" overflow="visible" style="display: block;" viewBox="0 0 48.9998 49.9996" fill="none" xmlns="http://www.w3.org/2000/svg">
<g id="Group 78">
<path id="Vector" d="M36.0879 26.9466C36.9089 24.9536 37.7298 22.9606 38.5477 20.966C39.9918 17.4503 41.4327 13.933 42.8783 10.4189C43.373 9.21554 44.2404 8.86003 45.4324 9.3634C45.9194 9.56946 46.4064 9.77238 46.8888 9.98632C47.9649 10.4629 48.3159 11.3171 47.8768 12.4166C47.43 13.5335 46.9878 14.6535 46.4977 15.7514C46.3029 16.1872 46.4173 16.3413 46.8192 16.4829C47.3697 16.6779 47.9031 16.9233 48.4349 17.1656C48.9838 17.4157 49.1245 17.7539 48.8925 18.3249C48.002 20.5193 47.1022 22.7105 46.1962 24.8985C45.9828 25.4161 45.5777 25.6064 45.1634 25.4286C44.7614 25.2556 44.6176 24.8183 44.8279 24.3008C45.5839 22.4431 46.34 20.5853 47.1238 18.7402C47.2753 18.3847 47.1996 18.2714 46.8718 18.133C45.7354 17.6516 45.7401 17.6375 45.2654 18.7905C42.2459 26.1397 39.2264 33.4888 36.2023 40.8348C36.0384 41.2328 35.9627 41.6276 35.9673 42.0602C35.9828 43.5782 35.9812 45.0961 35.9719 46.6141C35.958 48.6606 34.6423 49.9961 32.6247 49.9961C22.8596 50.0008 13.0961 50.0008 3.33104 49.9961C1.32731 49.9961 0.00231912 48.6401 0.00231912 46.5952C-0.000773041 32.2036 -0.000773041 17.8121 0.00231912 3.42053C0.00231912 1.33943 1.32267 0.00235953 3.37278 0.00235953C13.1177 -0.00078651 22.8642 -0.00078651 32.6092 0.00235953C34.6562 0.00235953 35.9704 1.33785 35.9719 3.4284C35.9781 11.0764 35.9735 18.7229 35.9735 26.3709V26.9293C36.0106 26.9356 36.0492 26.9419 36.0863 26.9482L36.0879 26.9466ZM34.4769 42.9741C33.7502 43.6489 33.1241 44.2278 32.501 44.8098C32.2242 45.0694 31.9397 45.2739 31.5409 45.0867C31.1559 44.9074 31.0817 44.5723 31.0709 44.1838C31.0322 42.8388 30.9874 41.4955 30.9255 40.1521C30.907 39.7589 30.9688 39.3986 31.1203 39.0353C32.1871 36.4587 33.24 33.8773 34.3068 31.3007C34.4351 30.9924 34.4892 30.6873 34.4892 30.3553C34.4846 21.4206 34.4861 12.4843 34.4846 3.54952C34.4846 2.14324 33.8739 1.53133 32.4731 1.53133C22.821 1.53133 13.1688 1.53133 3.51657 1.53133C2.08798 1.53133 1.4881 2.14324 1.4881 3.59356C1.4881 17.8514 1.4881 32.1093 1.4881 46.3671C1.4881 47.8851 2.07871 48.4781 3.58769 48.4781C13.2012 48.4781 22.8163 48.4781 32.4299 48.475C32.7112 48.475 33.0004 48.4624 33.2709 48.3947C33.9311 48.2327 34.449 47.6428 34.466 46.9554C34.497 45.675 34.4753 44.393 34.4753 42.9725L34.4769 42.9741ZM32.5334 42.7209C32.9323 42.3528 33.2539 42.0869 33.5384 41.7849C33.9868 41.3083 34.5542 40.9685 34.8278 40.2953C37.7778 33.0625 40.7555 25.8424 43.7255 18.6175C44.6331 16.409 45.5345 14.1989 46.4559 11.9966C46.609 11.6333 46.5611 11.4429 46.1823 11.3155C45.8267 11.196 45.485 11.0292 45.1371 10.8814C44.663 10.679 44.3285 10.8137 44.1337 11.2856C40.4308 20.2943 36.7589 29.3156 32.9942 38.2975C32.3866 39.7494 32.4268 41.1431 32.5319 42.7209H32.5334Z" fill="var(--fill-0, #6B7280)"/>
<path id="Vector_2" d="M17.9516 38.8634C14.9692 38.8634 11.9852 38.8634 9.00284 38.8634C8.83277 38.8634 8.66116 38.8697 8.49418 38.8508C8.07674 38.8037 7.84792 38.5567 7.83091 38.132C7.81391 37.6978 8.05819 37.454 8.45089 37.3628C8.61323 37.325 8.78948 37.3439 8.95955 37.3439C14.9815 37.3439 21.0051 37.3439 27.0271 37.3439C27.2327 37.3439 27.4507 37.3376 27.6424 37.3989C28.0119 37.5169 28.1835 37.8032 28.1387 38.1996C28.0985 38.5693 27.8867 38.7926 27.5249 38.843C27.3394 38.8697 27.1477 38.8619 26.959 38.8619C23.9566 38.8619 20.9556 38.8619 17.9531 38.8619L17.9516 38.8634Z" fill="var(--fill-0, #6B7280)"/>
<path id="Vector_3" d="M18.0388 31.442C21.0212 31.442 24.0036 31.442 26.986 31.442C27.1561 31.442 27.3277 31.4325 27.4946 31.4545C27.8812 31.5049 28.1084 31.7361 28.1378 32.1341C28.1687 32.5619 27.9507 32.8262 27.5565 32.9316C27.4143 32.9694 27.2566 32.9521 27.105 32.9521C21.0258 32.9521 14.9482 32.9521 8.86899 32.9521C8.71747 32.9521 8.55977 32.9709 8.41754 32.9332C8.02638 32.8278 7.80065 32.5698 7.82848 32.1404C7.85476 31.7424 8.08049 31.5096 8.46546 31.4545C8.63244 31.4309 8.80406 31.442 8.97412 31.442C11.9952 31.442 15.0147 31.442 18.0357 31.442H18.0388Z" fill="var(--fill-0, #6B7280)"/>
<path id="Vector_4" d="M25.2713 45.0297C25.48 44.7371 25.6331 44.5074 25.8016 44.2904C26.468 43.4236 27.4698 43.4142 28.1532 44.2636C28.5134 44.7104 28.6866 45.305 29.2865 45.5708C29.5539 45.6888 29.557 46.0647 29.455 46.351C29.3591 46.6184 29.1551 46.7883 28.8613 46.8166C28.5258 46.8497 28.232 46.7458 27.9646 46.5414C27.7033 46.34 27.5208 46.0726 27.3508 45.7957C27.1127 45.4109 26.8668 45.3978 26.6133 45.7564C26.0134 46.6011 25.4692 46.8371 24.7657 46.5618C24.2416 46.3573 23.9602 45.9389 23.8257 45.4182C23.6819 44.8645 23.5984 44.2935 23.4546 43.7382C23.3634 43.3843 23.2119 43.0587 22.7898 42.9627C22.3616 42.8652 22.0616 43.043 21.7988 43.3528C21.1695 44.0953 20.8665 45.0045 20.5418 45.9027C20.4769 46.082 20.4398 46.2755 20.3501 46.4407C20.1522 46.8025 19.843 46.9519 19.4457 46.8056C19.0529 46.6609 18.8535 46.3353 18.971 45.9436C19.3482 44.6773 19.7812 43.4283 20.633 42.3917C21.2932 41.5895 22.1219 41.2481 23.1501 41.4872C24.0793 41.7027 24.591 42.3477 24.8446 43.2317C25.0054 43.7933 25.1167 44.3674 25.2713 45.0313V45.0297Z" fill="var(--fill-0, #6B7280)"/>
</g>
</svg>
