<svg preserveAspectRatio="none" width="100%" height="100%" overflow="visible" style="display: block;" viewBox="0 0 43.0001 50.3035" fill="none" xmlns="http://www.w3.org/2000/svg">
<g id="Group 75">
<path id="Vector" d="M21.5477 0.00288413C23.5951 0.00288413 25.6411 -0.00512379 27.6885 0.00555344C28.7175 0.0108921 29.3047 0.821027 28.9791 1.74728C28.7895 2.28781 28.3678 2.56809 27.6938 2.57076C26.2123 2.57743 24.7309 2.58277 23.2507 2.56542C22.9064 2.56142 22.7996 2.6495 22.8063 3.00452C22.8276 4.26844 22.8303 5.53369 22.8063 6.79894C22.7983 7.18466 22.9438 7.25673 23.2881 7.29277C27.1653 7.70651 30.7889 8.86632 34.0161 11.0979C38.6433 14.2997 41.4621 18.7321 42.5271 24.2175C43.7644 30.5905 42.5965 36.5244 38.7541 41.8203C35.8032 45.8856 31.7658 48.3748 26.9197 49.58C20.835 51.0921 15.092 50.262 9.82811 46.8252C4.59627 43.4098 1.38376 38.5744 0.317368 32.4043C-1.42169 22.3664 4.12514 12.4846 13.5505 8.69816C14.6836 8.24304 15.6178 8.85965 15.5124 9.99277C15.455 10.5974 15.0359 10.8723 14.5354 11.0685C12.9819 11.6811 11.5338 12.4859 10.2098 13.5016C5.92692 16.7888 3.4111 21.1064 2.69973 26.4637C2.56626 27.4727 2.57427 27.4701 3.60596 27.45C4.15316 27.4394 4.70438 27.3753 5.24358 27.5288C5.90957 27.7183 6.23789 28.1534 6.20453 28.7981C6.1725 29.4067 5.8028 29.8137 5.15549 29.9525C4.46147 30.102 3.76211 30.0326 3.06676 29.9819C2.67971 29.9539 2.58761 30.0753 2.63433 30.4557C3.55124 37.8216 7.36301 43.0775 14.1097 46.1752C15.9181 47.0054 17.8467 47.4325 19.8273 47.6354C20.2171 47.6754 20.3118 47.562 20.2918 47.1896C20.2584 46.5596 20.201 45.927 20.2865 45.2957C20.3932 44.5203 20.8617 44.0545 21.541 44.0612C22.2457 44.0692 22.6742 44.4976 22.7983 45.2904C22.8877 45.8563 22.8303 46.4195 22.809 46.984C22.7823 47.6767 22.7836 47.6861 23.4563 47.614C26.7769 47.255 29.8279 46.1526 32.5306 44.1866C37.1658 40.8139 39.7804 36.2508 40.4464 30.5598C40.4998 30.1073 40.401 29.9338 39.9192 29.9846C39.2746 30.0526 38.6259 30.0927 37.98 29.9632C37.3033 29.8271 36.9123 29.4173 36.8802 28.7981C36.8469 28.1414 37.1939 27.689 37.8972 27.5195C38.5872 27.3526 39.2906 27.4367 39.9846 27.4754C40.4357 27.5008 40.4891 27.3433 40.4518 26.9455C39.663 18.5386 33.25 11.5383 24.9818 10.0769C24.3932 9.97275 23.7953 9.9247 23.208 9.81526C22.845 9.7472 22.7889 9.89668 22.7969 10.2077C22.8156 10.855 22.9037 11.5009 22.8023 12.1509C22.6715 12.9917 22.2124 13.4268 21.4596 13.3828C20.7536 13.3428 20.2785 12.7942 20.2771 11.9841C20.2718 9.05451 20.2638 6.12628 20.2865 3.19671C20.2905 2.72024 20.2131 2.5454 19.6805 2.56275C18.2511 2.60813 16.819 2.58677 15.3869 2.57476C14.3753 2.56676 13.7827 1.7366 14.1097 0.817023C14.2992 0.275154 14.7343 0.00555344 15.4564 0.00421879C17.4864 0.000214826 19.5164 0.00288413 21.5477 0.00288413Z" fill="var(--fill-0, #6B7280)"/>
<path id="Vector_2" d="M21.537 30.8307C20.3265 30.8307 19.4216 29.9352 19.4109 28.726C19.4002 27.5715 20.3772 26.5879 21.5397 26.6319C21.8266 26.6426 21.9614 26.5051 22.1229 26.3436C24.1796 24.2869 26.2377 22.2315 28.293 20.1722C28.568 19.8959 28.8549 19.6597 29.2727 19.6437C29.8039 19.6223 30.2149 19.8238 30.4725 20.2883C30.7301 20.7514 30.6941 21.2145 30.3938 21.6483C30.291 21.7964 30.1562 21.9246 30.0268 22.054C28.0074 24.0774 25.9868 26.1007 23.9621 28.1187C23.7566 28.3242 23.6324 28.5124 23.6324 28.8381C23.6351 30.0032 22.7382 30.8307 21.537 30.8307Z" fill="var(--fill-0, #6B7280)"/>
</g>
</svg>
