<svg width="230" height="51" viewBox="0 0 230 51.1704" fill="none" xmlns="http://www.w3.org/2000/svg">
<g id="Social Icons">
<g id="Layer_1" clip-path="url(#clip0_0_71)">
<path id="Vector" d="M89.4053 25.5541C89.4053 21.3624 89.4053 17.1706 89.4053 12.9789C89.4053 7.48308 92.6034 2.8256 97.6024 0.869459C99.1239 0.279512 100.707 6.29127e-05 102.353 6.29127e-05C110.768 6.29127e-05 119.213 6.29127e-05 127.628 6.29127e-05C134.241 6.29127e-05 139.489 4.59544 140.451 11.1159C140.544 11.7369 140.575 12.389 140.575 13.01C140.575 21.3934 140.575 29.7458 140.575 38.1293C140.575 44.2772 136.601 49.4004 130.764 50.7666C129.739 51.015 128.652 51.1392 127.597 51.1392C119.213 51.1392 110.83 51.1392 102.415 51.1392C96.081 51.1392 90.8957 46.9164 89.6537 40.7685C89.4674 39.8681 89.4053 38.9366 89.4053 38.0051C89.4053 33.8444 89.4053 29.6837 89.4053 25.523V25.5541ZM114.99 11.6438C107.29 11.6438 101.049 17.8537 101.018 25.5541C101.018 33.2545 107.259 39.5265 114.959 39.5265C122.66 39.5265 128.901 33.3166 128.932 25.6162C128.932 17.9158 122.691 11.6438 114.99 11.6438ZM128.87 16.3012C131.385 16.3633 133.527 14.314 133.589 11.7369C133.682 9.22187 131.633 7.07943 129.025 6.98628C126.479 6.89313 124.336 9.00452 124.274 11.5817C124.212 14.0967 126.293 16.2081 128.87 16.3012Z" fill="var(--fill-0, white)"/>
<path id="Vector_2" d="M114.996 16.3008C120.15 16.3008 124.311 20.4305 124.311 25.5848C124.311 30.739 120.181 34.8376 115.027 34.8687C109.873 34.8687 105.712 30.739 105.712 25.5848C105.712 20.4305 109.842 16.3319 114.996 16.3008Z" fill="var(--fill-0, white)"/>
</g>
<path id="Vector_3" d="M226.003 6.29127e-05H182.828C180.619 6.29127e-05 178.83 1.78903 178.83 3.99775V47.1727C178.83 49.3815 180.619 51.1704 182.828 51.1704H226.003C228.211 51.1704 230 49.3815 230 47.1727V3.99775C230 1.78903 228.211 6.29127e-05 226.003 6.29127e-05ZM197.259 36.289H192.272V20.3283H197.259V36.289ZM194.631 18.3294H194.591C192.782 18.3294 191.613 17.1102 191.613 15.561C191.613 13.982 192.822 12.7927 194.661 12.7927C196.5 12.7927 197.629 13.982 197.669 15.561C197.679 17.1002 196.51 18.3294 194.631 18.3294ZM217.208 36.289H211.551V28.0338C211.551 25.8751 210.672 24.3959 208.723 24.3959C207.234 24.3959 206.404 25.3954 206.024 26.3548C205.884 26.6946 205.904 27.1743 205.904 27.664V36.289H200.298C200.298 36.289 200.368 21.6575 200.298 20.3283H205.904V22.8368C206.234 21.7375 208.023 20.1784 210.882 20.1784C214.429 20.1784 217.208 22.477 217.208 27.4142V36.289Z" fill="var(--fill-0, white)"/>
<g id="Layer_1_2" clip-path="url(#clip1_0_71)">
<path id="Vector_4" d="M45.5554 51.1543H35.1654V33.5758C36.649 33.5758 38.0612 33.5595 39.4747 33.5871C39.8588 33.5946 40.0214 33.4595 40.1552 33.1192C41.0534 30.8301 41.9703 28.5485 42.8822 26.2657C42.966 26.0556 43.0473 25.8442 43.1536 25.574H35.1654C35.1654 24.0892 35.1654 22.6457 35.1654 21.2009C35.1654 20.4854 35.1466 19.7687 35.1816 19.0544C35.2242 18.2063 35.5769 17.8298 36.415 17.681C36.7077 17.6284 37.0092 17.6034 37.3069 17.6022C38.4553 17.5934 39.6036 17.5972 40.7532 17.5972C41.0134 17.5972 41.2723 17.5972 41.5187 17.5972V9.63035C39.1658 9.63035 36.8528 9.61659 34.5399 9.64036C34.0296 9.64536 33.5104 9.74043 33.0138 9.86426C28.4881 10.9963 25.5897 14.7101 25.576 19.3809C25.571 21.261 25.576 23.1423 25.576 25.0223V25.6065H19.2076V33.5846H25.576V51.1556H5.59404C5.52149 51.1243 5.45143 51.078 5.37513 51.0642C2.88333 50.5964 1.21463 49.1554 0.337744 46.79C0.190137 46.3935 0.110079 45.9719 0 45.5617C0 32.2449 0 18.9268 0 5.61005C0.026269 5.57002 0.0713015 5.53124 0.0763051 5.48871C0.4153 2.68175 2.96464 -0.0138763 6.76113 -0.000116731C19.3102 0.0461655 31.8605 0.0148937 44.4108 0.0236498C44.9887 0.0236498 45.5816 0.0599251 46.1421 0.188765C49.1817 0.88425 51.1469 3.41351 51.1482 6.60449C51.1519 16.8716 51.1494 27.1388 51.1494 37.406C51.1494 39.8527 51.1632 42.2981 51.1444 44.7448C51.1231 47.548 49.4082 49.9259 46.79 50.8153C46.386 50.9529 45.9669 51.043 45.5541 51.1543H45.5554Z" fill="var(--fill-0, white)"/>
</g>
</g>
<defs>
<clipPath id="clip0_0_71">
<rect width="51.1702" height="51.1702" fill="white" transform="translate(89.4053 6.29127e-05)"/>
</clipPath>
<clipPath id="clip1_0_71">
<rect width="51.1544" height="51.1544" fill="white"/>
</clipPath>
</defs>
</svg>
