<svg preserveAspectRatio="none" width="100%" height="100%" overflow="visible" style="display: block;" viewBox="0 0 75.0029 75" fill="none" xmlns="http://www.w3.org/2000/svg">
<g id="Group 110">
<path id="Vector" d="M39.5959 21.854C39.2566 21.2599 38.9434 20.7243 38.8 20.1019C38.2788 17.8526 39.7596 15.7509 42.0626 15.763C45.5494 15.7833 48.9575 16.3087 52.2322 17.6384C54.6039 18.6024 57.119 19.1602 59.5816 19.8594C62.529 20.694 65.4643 21.5872 68.4825 22.143C69.4986 22.3309 70.5249 22.4502 71.5592 22.2339C72.4744 22.0419 72.737 21.5994 72.4562 20.7122C72.2016 19.9059 71.5794 19.4411 70.8946 19.049C69.4663 18.2366 67.9088 17.7415 66.3512 17.2545C61.0806 15.6054 55.7877 14.0231 50.6019 12.1113C49.9675 11.8769 49.5474 11.505 49.5938 10.7937C49.6302 10.2319 49.9776 9.87822 50.5069 9.71453C50.8685 9.60338 51.2059 9.74484 51.5332 9.8661C54.9958 11.1433 58.5068 12.273 62.03 13.3703C64.7613 14.2211 67.5189 14.9971 70.1835 16.048C71.1916 16.4461 72.1693 16.9028 73.0461 17.5495C73.8784 18.1618 74.5168 18.9278 74.7996 19.9382C75.543 22.6098 74.2097 24.463 71.4239 24.657C68.8481 24.8368 66.3613 24.3134 63.9027 23.6586C61.1634 22.9291 58.4503 22.1086 55.6624 21.3104C55.5735 21.9308 55.6665 22.5512 55.5251 23.1575C55.1533 24.7499 54.2806 25.8958 52.6948 26.3949C52.2847 26.5243 52.2908 26.6395 52.4019 27.0073C53.1049 29.3333 52.0322 31.5684 49.7797 32.4677C49.4484 32.599 49.4362 32.7243 49.5009 33.0093C49.6403 33.6297 49.608 34.2663 49.5312 34.8887C49.1676 37.7947 47.5413 39.3387 44.5737 39.7914C42.2565 40.145 40.0101 39.854 37.7737 39.3003C32.0647 37.8877 26.4486 36.178 20.9335 34.1349C19.1538 33.4761 17.6629 32.3869 16.2811 31.1177C15.1679 30.0972 14.0669 29.0605 12.9235 28.0723C11.7417 27.0497 10.3983 26.5323 8.7761 26.595C6.36198 26.6859 3.94181 26.6213 1.52366 26.6172C0.55801 26.6172 0.016602 26.1848 0.00246078 25.4289C-0.0116805 24.6448 0.543869 24.2002 1.55598 24.1982C4.12565 24.1962 6.69531 24.2386 9.26296 24.1841C11.3033 24.1416 12.9862 24.952 14.4791 26.2151C15.8609 27.3852 17.174 28.6401 18.5134 29.8628C19.7436 30.9884 21.2042 31.6836 22.7598 32.2333C28.3739 34.2218 34.0485 36.0002 39.8727 37.2774C41.5697 37.6492 43.2646 37.6311 44.9595 37.2208C47.0403 36.7176 47.3837 35.0302 47.0605 33.0315C47.01 32.7142 46.7555 32.502 46.4787 32.3727C44.3959 31.3926 42.2686 30.5681 39.9071 30.6913C39.4586 30.7156 38.8505 30.6307 38.7212 31.2269C38.5798 31.8736 38.8869 32.401 39.501 32.7142C40.7515 33.3508 42.1333 33.5266 43.4747 33.8439C44.41 34.0642 44.8727 34.5977 44.7211 35.3151C44.5615 36.073 43.9151 36.3781 42.9353 36.1902C41.5272 35.9194 40.1252 35.6344 38.798 35.0666C37.1435 34.3592 36.3111 33.1103 36.2768 31.3057C36.2566 30.2528 36.6525 29.4202 37.5677 28.919C38.0626 28.6482 38.1414 28.5209 37.7636 28.0318C36.5738 26.4879 36.596 24.5054 37.7273 23.0685C38.204 22.4643 38.8162 22.0601 39.598 21.856L39.5959 21.854ZM42.9191 18.1497C42.2585 18.1396 41.5293 18.0487 41.204 18.7883C40.8646 19.5583 41.3454 20.1403 41.8545 20.6516C42.703 21.5044 43.7353 22.0824 44.8626 22.4663C46.1676 22.9109 47.4928 23.305 48.814 23.7011C49.6787 23.9598 50.5453 24.2346 51.4706 24.1922C52.0625 24.1659 52.5938 23.9658 52.8503 23.4222C53.3958 22.2723 53.4806 21.1447 52.2079 20.405C51.8403 20.1908 51.4706 19.9705 51.0786 19.8068C48.4686 18.7196 45.711 18.3437 42.9191 18.1477V18.1497ZM40.7171 24.2043C40.2222 24.1356 39.798 24.2326 39.5434 24.6994C39.2343 25.2673 39.1656 25.8594 39.5535 26.4111C40.2586 27.4114 41.2323 28.0985 42.3939 28.4098C43.5595 28.721 44.7211 29.0201 45.8504 29.4545C46.5757 29.7334 47.309 30.0143 48.0605 30.1942C49.1635 30.4569 49.8544 29.9719 50.1009 28.8645C50.3534 27.7408 50.1009 27.1952 48.8484 26.5222C46.309 25.1581 43.5434 24.5499 40.7151 24.2043H40.7171Z" fill="var(--fill-0, #2A9D8F)"/>
<path id="Vector_2" d="M48.7555 42.3417C51.4302 42.3478 53.7615 44.0797 54.5574 46.6887C54.8948 47.7941 55.1978 48.9096 55.4604 50.0353C55.5756 50.5243 55.7776 50.595 56.2261 50.4758C61.3674 49.0935 66.5149 47.7274 71.6582 46.3532C73.0057 45.9935 73.4279 46.2299 73.7895 47.5597C74.1269 48.7964 74.4723 50.0292 74.8037 51.268C75.1511 52.5593 74.8865 53.0262 73.6198 53.3637C68.4987 54.7278 63.3816 56.104 58.2523 57.4357C57.6281 57.5974 57.5372 57.7833 57.7129 58.3795C58.0665 59.5799 58.5028 60.7783 58.424 62.0636C58.2604 64.717 56.6927 66.7803 54.1352 67.5947C50.0928 68.882 46.0383 70.1289 41.9818 71.3738C38.2627 72.5156 34.588 73.809 30.8062 74.7467C28.2486 75.3832 26.6365 74.4173 25.9396 71.8548C24.2002 65.4546 22.4649 59.0545 20.7396 52.6503C20.0952 50.2576 21.3113 48.3276 23.7174 47.7921C31.4668 46.0662 39.2142 44.3202 46.9615 42.5822C47.5514 42.4488 48.1393 42.3155 48.7514 42.3417H48.7555ZM48.5393 44.7628C48.4504 44.7769 48.1999 44.8032 47.9575 44.8577C40.1091 46.6179 32.2627 48.3781 24.4163 50.1444C23.0487 50.4516 22.78 50.8941 23.1376 52.2178C24.7759 58.2825 26.4163 64.3452 28.0608 70.4078C28.7072 72.7945 28.8809 72.9339 31.2829 72.1801C38.6606 69.8662 45.9858 67.3785 53.4322 65.2828C55.3635 64.7392 56.4018 62.8315 55.8887 60.8712C54.713 56.3748 53.4928 51.8884 52.2524 47.4081C51.8039 45.7894 50.3453 44.7547 48.5393 44.7607V44.7628ZM57.0685 55.2512C57.323 55.1885 57.4705 55.1562 57.616 55.1158C59.9392 54.4933 62.2624 53.8729 64.5836 53.2464C65.1593 53.0908 65.9694 53.0787 66.2381 52.6968C66.5189 52.2986 65.9957 51.5954 65.9048 51.0093C65.826 50.5142 65.6098 50.4495 65.1351 50.5829C62.7694 51.2397 60.3917 51.8541 58.02 52.4826C56.7379 52.8221 56.3318 53.6291 56.8018 54.9036C56.8099 54.9278 56.816 54.9521 56.82 54.9763C56.8463 55.1966 56.9574 55.2896 57.0705 55.2512H57.0685ZM68.9189 52.1006C69.8623 51.852 70.8017 51.5833 71.7532 51.363C72.2017 51.2599 72.3108 51.0962 72.135 50.6516C71.9168 50.0959 71.9512 49.2754 71.5673 49.0006C71.1754 48.7176 70.4583 49.1824 69.8886 49.33C67.927 49.8413 67.929 49.8534 68.6138 51.7874C68.63 51.8338 68.632 51.8864 68.6461 51.9349C68.6845 52.0763 68.7694 52.143 68.9189 52.1006Z" fill="var(--fill-0, #2A9D8F)"/>
<path id="Vector_3" d="M7.4546 8.47158C9.14145 8.42308 11.2101 8.60092 13.2687 8.39681C15.9313 8.13005 18.3535 7.06504 20.7595 5.97174C23.5231 4.71475 26.1918 3.25567 29.0523 2.20885C30.9149 1.52781 32.8159 1.1782 34.8058 1.19033C37.3492 1.20649 39.8946 1.05088 42.434 1.19841C45.4299 1.37018 48.3551 1.0529 51.242 0.256675C51.9693 0.0545868 52.7268 2.28503e-05 53.4864 2.28503e-05C56.4642 -0.0080607 57.0763 2.13004 56.753 4.10849C56.5389 5.42004 55.7126 6.38198 54.7005 7.17619C52.6298 8.80098 50.2299 9.54467 47.6339 9.6639C45.1956 9.77505 42.8643 10.3288 40.5896 11.1715C40.1855 11.321 39.828 11.5433 39.4805 11.798C38.8482 12.2628 38.1694 12.1819 37.7431 11.6262C37.3189 11.0745 37.4098 10.3955 38.0118 9.89226C38.8381 9.20314 39.826 8.81513 40.834 8.50391C43.0724 7.81075 45.3491 7.32978 47.7087 7.2348C49.7329 7.15396 51.6177 6.55578 53.2298 5.27454C53.8904 4.74911 54.4177 4.12869 54.4238 3.19302C54.4278 2.63728 54.1874 2.43721 53.6642 2.40286C52.7147 2.34021 51.8056 2.55442 50.9127 2.79895C48.5632 3.44361 46.1855 3.70835 43.7491 3.64772C41.1573 3.58305 38.5553 3.7427 35.9694 3.60528C32.8765 3.43957 30.0604 4.24186 27.313 5.52715C24.3352 6.91954 21.4302 8.46754 18.3373 9.60732C16.0525 10.448 13.7172 10.9411 11.2626 10.9027C8.14146 10.8542 5.01827 10.8906 1.89507 10.8906C1.74356 10.8906 1.59204 10.8926 1.44255 10.8906C0.541548 10.8764 0.0102413 10.4339 0.000140446 9.69422C-0.00996045 8.95255 0.525387 8.47764 1.41023 8.4736C3.29909 8.46552 5.18796 8.47158 7.4546 8.47158Z" fill="var(--fill-0, #2A9D8F)"/>
<path id="Vector_4" d="M6.05489 36.2932C7.56396 36.2932 9.07505 36.2891 10.5841 36.2932C11.6912 36.2972 12.17 36.7984 12.0649 37.8796C11.6629 41.986 11.2488 46.0904 10.8366 50.1949C10.4548 53.9739 10.067 57.753 9.68515 61.532C9.58616 62.5202 9.25687 62.882 8.25688 62.9002C6.6973 62.9305 5.13772 62.9244 3.57815 62.888C2.87916 62.8719 2.48523 62.4253 2.41452 61.7321C2.10746 58.7291 1.80847 55.724 1.50746 52.721C1.02262 47.889 0.549898 43.0571 0.0488934 38.2292C-0.10464 36.7459 0.258992 36.2932 1.74988 36.2912C3.18421 36.2912 4.61854 36.2912 6.05287 36.2912L6.05489 36.2932ZM6.07105 38.7122C5.08924 38.7122 4.10541 38.7385 3.12361 38.7001C2.65694 38.6819 2.51351 38.795 2.57614 39.278C2.71957 40.3754 2.80846 41.4808 2.91957 42.5842C3.4529 47.8688 3.98824 53.1555 4.51955 58.4401C4.58622 59.109 4.40844 60.0305 4.83268 60.368C5.25692 60.7035 6.13165 60.4468 6.80437 60.4933C7.25285 60.5256 7.38416 60.3923 7.42659 59.9234C7.71345 56.7648 8.0387 53.6081 8.35587 50.4515C8.73162 46.7189 9.1094 42.9864 9.50131 39.2558C9.54575 38.8395 9.47303 38.6819 9.01243 38.698C8.03062 38.7344 7.04881 38.7081 6.06499 38.7081L6.07105 38.7122Z" fill="var(--fill-0, #2A9D8F)"/>
<path id="Vector_5" d="M66.4886 41.1332C62.7897 41.1271 60.7998 38.3504 61.9412 34.7977C62.3069 33.662 62.9372 32.6636 63.521 31.639C64.2685 30.3315 65.0402 29.0402 65.3432 27.5286C65.4584 26.9546 65.8927 26.6313 66.4927 26.6252C67.0927 26.6192 67.5472 26.9223 67.6624 27.5003C68.0038 29.218 68.925 30.6569 69.7815 32.1321C70.4118 33.2194 71.0401 34.3046 71.2825 35.5636C71.6987 37.7381 70.7411 39.9004 68.9917 40.6765C68.1977 41.0281 67.3533 41.1392 66.4907 41.1332H66.4886ZM66.4967 31.2894C65.723 32.8294 64.6988 34.0884 64.226 35.6323C63.9533 36.5276 63.9614 37.4471 64.6099 38.1928C65.1634 38.8294 67.2381 38.9122 68.125 38.411C68.7735 38.0453 69.1209 36.855 68.8664 35.8283C68.7331 35.2908 68.5028 34.7896 68.228 34.3086C67.6826 33.3528 67.1311 32.3989 66.4947 31.2894H66.4967Z" fill="var(--fill-0, #2A9D8F)"/>
<path id="Vector_6" d="M6.11127 65.3253C8.77184 65.3536 10.9153 67.5664 10.8789 70.2502C10.8425 72.9076 8.61831 75.0457 5.93753 74.9993C3.31534 74.9548 1.18809 72.7561 1.20829 70.1128C1.22849 67.4512 3.43453 65.297 6.11329 65.3253H6.11127ZM8.46073 70.133C8.44457 68.8275 7.35772 67.7503 6.05066 67.7463C4.70926 67.7423 3.6123 68.8497 3.62645 70.1936C3.64059 71.4991 4.72946 72.5782 6.03652 72.5823C7.37186 72.5863 8.4769 71.4688 8.46073 70.133Z" fill="var(--fill-0, #2A9D8F)"/>
<path id="Vector_7" d="M24.8264 24.1921C24.6749 24.1921 24.5738 24.1921 24.4728 24.1921C23.5314 24.1982 22.9759 23.7475 22.9779 22.9836C22.9779 22.246 23.5011 21.7933 24.4042 21.7751C26.2041 21.7367 27.9536 21.4457 29.6304 20.7728C32.6404 19.5622 34.8303 17.4969 36.1555 14.5282C36.2262 14.3686 36.299 14.2069 36.3818 14.0533C36.7293 13.4006 37.3373 13.154 37.9454 13.4147C38.5959 13.6936 38.8525 14.3241 38.5676 15.0435C37.6989 17.2342 36.3778 19.1075 34.5737 20.6293C31.7455 23.0159 28.4162 24.0345 24.8284 24.1941L24.8264 24.1921Z" fill="var(--fill-0, #2A9D8F)"/>
<path id="Vector_8" d="M32.3677 69.3064C31.0081 69.3064 30.1253 68.587 29.7799 67.3138C28.7678 63.5812 27.7617 59.8466 26.7516 56.112C26.6264 55.6513 26.4951 55.1925 26.3799 54.7298C26.0163 53.2788 26.7233 51.9793 28.1657 51.6499C32.9657 50.5526 37.7737 49.4876 42.5858 48.4347C43.7878 48.172 45.0039 48.8914 45.3453 50.1181C46.4484 54.0871 47.5211 58.0642 48.5635 62.0494C48.8928 63.3104 48.1534 64.4644 46.812 64.8867C42.9353 66.1073 39.0505 67.3078 35.1657 68.5041C34.1859 68.8052 33.2303 69.2135 32.3677 69.3064ZM46.1332 62.3242C46.115 62.2252 46.1009 62.1242 46.0746 62.0272C45.111 58.4401 44.1433 54.855 43.1838 51.266C43.0908 50.9204 42.9797 50.8092 42.5696 50.9062C40.4686 51.4054 38.3575 51.852 36.2485 52.3168C33.9192 52.8301 31.592 53.3454 29.2627 53.8567C28.8991 53.9376 28.6688 53.978 28.8183 54.5176C29.9193 58.4563 30.9718 62.4091 32.0243 66.362C32.1172 66.7116 32.1718 66.8692 32.6101 66.7318C36.9919 65.3657 41.3838 64.0299 45.7696 62.6799C45.9312 62.6294 46.214 62.6415 46.1312 62.3202L46.1332 62.3242Z" fill="var(--fill-0, #2A9D8F)"/>
<path id="Vector_9" d="M53.1838 60.271C53.1474 60.9662 52.8605 61.3845 52.2868 61.528C51.7373 61.6654 51.1818 61.5785 50.9373 61.0066C50.5353 60.0629 50.2788 59.0625 50.1333 58.0481C50.0464 57.4478 50.4343 57.0437 50.9959 56.8901C51.5858 56.7284 52.1616 56.878 52.3777 57.4822C52.7151 58.4199 52.9393 59.4 53.1858 60.269L53.1838 60.271Z" fill="var(--fill-0, #2A9D8F)"/>
<path id="Vector_10" d="M51.232 53.1777C51.2482 53.9841 50.929 54.3903 50.3108 54.5216C49.6926 54.655 49.1734 54.4105 48.9734 53.8284C48.6644 52.9332 48.4159 52.0117 48.2341 51.0841C48.1108 50.4576 48.4926 50.0474 49.0967 49.8635C49.6805 49.6856 50.2239 49.8473 50.434 50.3828C50.8037 51.3326 51.1047 52.3168 51.234 53.1777H51.232Z" fill="var(--fill-0, #2A9D8F)"/>
</g>
</svg>
