<svg preserveAspectRatio="none" width="100%" height="100%" overflow="visible" style="display: block;" viewBox="0 0 75.0001 75.0016" fill="none" xmlns="http://www.w3.org/2000/svg">
<g id="Group 108">
<path id="Vector" d="M39.26 75.0015C37.9933 74.1363 37.9209 73.4922 38.9957 72.0612C37.312 72.0612 35.689 72.071 34.0679 72.0612C18.2781 71.9398 4.28957 60.617 0.867311 45.1969C0.544272 43.7424 0.317166 42.2762 0.150752 40.7982C0.135089 40.6651 0.193823 40.4948 0 40.4341C0 39.2595 0 38.0889 0 36.9163C0.0861438 36.8399 0.18795 36.7734 0.258431 36.6833C0.695024 36.1254 1.24517 35.8885 1.9304 36.1293C2.60585 36.3662 2.92497 36.8791 2.93085 37.5877C2.95042 39.5179 3.12075 41.4325 3.48686 43.3294C4.94739 50.9014 8.68094 57.1286 14.6209 62.0148C19.4705 66.0024 25.0678 68.2791 31.3054 68.9662C33.833 69.2442 36.3722 69.117 38.9194 69.1405C38.9781 68.8175 38.6825 68.7333 38.5572 68.5551C38.1069 67.917 38.146 67.1574 38.6825 66.621C39.2052 66.0983 40.0471 66.0024 40.605 66.5231C41.6936 67.5372 42.7449 68.5923 43.765 69.6729C44.2583 70.1956 44.2779 70.9649 43.7884 71.4778C42.6216 72.6994 41.5096 73.9855 40.1391 74.9996H39.26V75.0015Z" fill="var(--fill-0, #2A9D8F)"/>
<path id="Vector_2" d="M51.1517 48.5014C50.5938 48.2547 50.2139 48.6326 49.7891 49.0985C48.3247 50.6978 46.5842 51.9429 44.6087 52.8395C44.2132 53.0196 44.0919 53.2114 44.0919 53.6401C44.0938 57.3596 41.1277 60.3312 37.4745 60.2979C33.8212 60.2647 30.904 57.3302 30.9158 53.6538C30.9158 53.182 30.7513 52.9902 30.348 52.8062C28.2806 51.8646 26.4833 50.5412 24.9797 48.8381C24.7076 48.5308 24.4511 48.4427 24.0399 48.4779C22.0136 48.6502 20.2986 47.6675 19.5115 45.9389C18.7362 44.2319 19.1023 42.3017 20.5394 40.9157C20.8781 40.5887 20.8311 40.2834 20.7821 39.9329C20.2398 36.0549 20.9446 32.4177 22.8887 29.0232C23.7541 27.51 24.8329 26.1592 26.1426 25.0042C26.4343 24.7458 26.5714 24.5089 26.5322 24.0763C26.3423 22.0345 27.3036 20.3334 29.0324 19.5288C30.7435 18.732 32.6524 19.1079 34.1188 20.5663C34.3361 20.7817 34.5279 20.8639 34.8197 20.813C35.8084 20.6407 36.8088 20.5722 37.8092 20.627C38.3476 20.6564 38.2302 20.3079 38.2674 20.0143C38.6198 17.2717 40.6637 15.1203 43.2206 14.7914C46.0379 14.4292 48.5674 15.8465 49.5659 18.4071C50.3608 20.4469 50.0906 22.3849 48.773 24.139C48.4911 24.5148 48.5028 24.6812 48.8454 25.0042C53.1644 29.0584 54.9558 34.0386 54.2196 39.9173C54.1668 40.344 54.202 40.6671 54.5583 41.0096C55.8994 42.3017 56.246 44.2534 55.4981 45.9252C54.7659 47.5657 53.1213 48.5699 51.1537 48.5014H51.1517ZM51.4669 37.5133C51.4669 37.5133 51.4846 37.5133 51.4944 37.5133C51.4552 36.9045 51.4552 36.2898 51.3691 35.6889C50.2609 28.0914 43.7434 22.9507 36.0668 23.5889C35.5362 23.6339 35.2895 23.7925 35.1779 24.3621C34.5945 27.3534 31.3641 28.8509 28.7309 27.3534C28.306 27.1126 28.0867 27.1517 27.7617 27.4806C24.5607 30.7185 23.2079 34.6063 23.6073 39.1284C23.6464 39.5649 23.8285 39.7137 24.2592 39.7998C27.3995 40.4282 28.8581 43.5917 27.2938 46.3735C27.0961 46.7239 27.147 46.9059 27.4035 47.1702C28.5703 48.3722 29.9055 49.3334 31.3994 50.089C31.7185 50.2515 31.8653 50.2143 32.0944 49.9089C34.9371 46.1014 40.0588 46.1033 42.9152 49.9148C43.1502 50.228 43.3009 50.2417 43.6122 50.0851C45.0903 49.351 46.3982 48.3918 47.5572 47.2172C47.8528 46.9177 47.9076 46.718 47.6707 46.3069C46.2964 43.9167 47.4123 40.9392 49.9673 39.9741C50.4195 39.8037 51.093 40.0015 51.3005 39.4729C51.4885 38.9933 51.4239 38.4158 51.4669 37.8814C51.4767 37.76 51.4669 37.6367 51.4669 37.5153V37.5133ZM41.1747 53.6499C41.163 51.6336 39.5008 49.9833 37.4921 49.9911C35.4481 49.999 33.8094 51.6786 33.831 53.7439C33.8525 55.7504 35.5519 57.4066 37.5488 57.3655C39.5791 57.3243 41.1865 55.678 41.1747 53.6499ZM47.054 20.6936C47.054 18.9924 45.8226 17.7121 44.2191 17.6377C42.6999 17.5692 41.3333 18.7771 41.1767 20.3079C41.1277 20.7895 41.2335 21.0322 41.7777 21.1536C42.9152 21.4061 43.9979 21.8446 45.0414 22.3752C46.1104 22.9174 46.4236 22.7902 46.8661 21.6508C46.9992 21.3063 47.0638 20.95 47.054 20.6916V20.6936ZM51.5002 45.5806C52.3284 45.5689 52.9568 44.9072 52.9333 44.0733C52.9118 43.2805 52.2696 42.6462 51.4846 42.6403C50.6877 42.6344 49.9888 43.3294 49.9947 44.1261C50.0005 44.9327 50.6838 45.5924 51.5002 45.5806ZM29.4239 23.5008C29.4122 24.321 30.068 25.0042 30.8747 25.0101C31.6695 25.016 32.3685 24.3191 32.3646 23.5223C32.3606 22.7412 31.7224 22.0952 30.9334 22.0717C30.0974 22.0463 29.4376 22.6727 29.4259 23.5027L29.4239 23.5008ZM23.5603 45.5787C24.3747 45.563 25.0404 44.87 25.0071 44.0694C24.9738 43.2922 24.3082 42.6462 23.5348 42.6423C22.7262 42.6384 22.0626 43.3118 22.0684 44.132C22.0743 44.962 22.7282 45.5963 23.5603 45.5806V45.5787Z" fill="var(--fill-0, #2A9D8F)"/>
<path id="Vector_3" d="M35.9435 5.88432C36.1726 6.14468 36.3233 6.29542 36.4506 6.46573C36.9126 7.08042 36.8559 7.85955 36.3175 8.39397C35.8202 8.88925 34.9822 9.00866 34.4536 8.5173C33.3279 7.4739 32.2354 6.38742 31.1939 5.25788C30.6614 4.68039 30.7906 3.92279 31.4092 3.28853C32.3118 2.36062 33.2241 1.44446 34.1521 0.542004C34.8511 -0.139244 35.6812 -0.174481 36.2999 0.41476C36.9205 1.00596 36.9127 1.80466 36.2724 2.56617C36.198 2.65426 36.1178 2.73648 35.9337 2.93812C36.4095 2.93812 36.7599 2.94203 37.1104 2.93812C40.654 2.8833 44.1996 2.88918 47.6708 3.70354C58.9909 6.3561 67.1452 12.9611 72.0339 23.5087C74.0484 27.8526 74.9686 32.4765 74.9999 37.2687C75.0058 38.1907 74.5575 38.8035 73.7978 38.9483C72.8718 39.1265 72.0867 38.4217 72.073 37.3548C72.0378 34.7336 71.7872 32.1339 71.053 29.6164C67.4213 17.1719 59.2611 9.45891 46.6508 6.49901C43.1816 5.68464 39.6262 5.84517 35.9416 5.88628L35.9435 5.88432Z" fill="var(--fill-0, #2A9D8F)"/>
<path id="Vector_4" d="M56.4378 24.3484C56.4378 24.8672 56.4496 25.2509 56.4359 25.6326C56.4006 26.5488 55.8329 27.1459 55.0047 27.1556C54.1785 27.1654 53.5501 26.5801 53.5207 25.6737C53.4815 24.4541 53.5089 23.2346 53.5089 22.013C53.5089 19.4427 53.6949 19.2528 56.2381 19.2547C57.4833 19.2547 58.7265 19.2508 59.9717 19.2802C60.6178 19.2958 61.072 19.6404 61.2952 20.2551C61.4988 20.8169 61.3559 21.3102 60.9663 21.7409C60.606 22.1403 60.1264 22.197 59.6252 22.1872C59.3334 22.1814 59.0437 22.1872 58.6972 22.1872C58.8225 22.612 59.1396 22.8117 59.3883 23.0466C62.6461 26.1299 65.2323 29.6927 66.5989 33.9799C69.8567 44.1947 67.8245 53.2936 60.5532 61.1985C59.8405 61.9717 58.9399 62.05 58.3017 61.4471C57.6615 60.8402 57.6928 59.9476 58.427 59.188C61.6065 55.9012 63.7522 52.0525 64.6352 47.5578C66.176 39.7117 64.2397 32.7877 58.9438 26.8072C58.2488 26.0222 57.4755 25.3096 56.7354 24.5657C56.6865 24.5168 56.6219 24.4816 56.4378 24.3484Z" fill="var(--fill-0, #2A9D8F)"/>
<path id="Vector_5" d="M21.1072 54.4252C21.1072 53.7929 21.0896 53.3837 21.1111 52.9765C21.1562 52.0917 21.7807 51.4751 22.5952 51.4848C23.4135 51.4946 24.0224 52.1191 24.0302 53.0118C24.0459 54.6229 24.0459 56.234 24.0302 57.8451C24.0204 58.7926 23.486 59.3427 22.5286 59.3603C20.9173 59.3877 19.306 59.3897 17.6948 59.3681C16.7902 59.3564 16.1814 58.7378 16.1814 57.9195C16.1814 57.1032 16.7805 56.51 17.6928 56.4532C18.0765 56.4298 18.4603 56.4493 19.0946 56.4493C18.4074 55.7857 17.869 55.2767 17.3423 54.756C14.4937 51.9312 12.2755 48.6639 11.0421 44.8525C7.71774 34.5731 9.68142 25.3919 17.0448 17.4244C17.728 16.6844 18.611 16.612 19.2414 17.1875C19.911 17.7983 19.8953 18.6832 19.1533 19.4447C15.9249 22.7628 13.7556 26.6682 12.9079 31.2177C11.3749 39.4455 13.552 46.6026 19.3667 52.6398C19.8914 53.184 20.42 53.7224 21.1053 54.4271L21.1072 54.4252Z" fill="var(--fill-0, #2A9D8F)"/>
<path id="Vector_6" d="M41.9012 37.5114C41.8972 39.9506 39.9198 41.9121 37.4726 41.9024C35.0371 41.8926 33.0851 39.9056 33.1027 37.4547C33.1184 35.0507 35.0821 33.1049 37.4941 33.1029C39.9394 33.1009 41.9051 35.0683 41.9012 37.5114ZM38.9703 37.5232C38.9821 36.701 38.3281 36.0374 37.5059 36.0354C36.711 36.0354 36.0649 36.654 36.0355 37.4449C36.0062 38.2671 36.6444 38.9503 37.4628 38.9699C38.2831 38.9894 38.9586 38.3434 38.9703 37.5232Z" fill="var(--fill-0, #2A9D8F)"/>
</g>
</svg>
