<svg preserveAspectRatio="none" width="100%" height="100%" overflow="visible" style="display: block;" viewBox="0 0 76 81.6532" fill="none" xmlns="http://www.w3.org/2000/svg">
<g id="Group 111">
<path id="Vector" d="M15.4414 14.9762C18.066 14.9601 20.4027 15.2087 22.7142 15.6738C23.444 15.8211 23.7755 15.7106 24.0495 14.9302C25.4147 11.044 27.1897 7.36273 29.9547 4.24551C31.7021 2.2748 33.7419 0.718492 36.3848 0.188979C40.0223 -0.538526 42.9577 0.900368 45.4786 3.37297C48.6419 6.47407 50.5182 10.3602 52.0722 14.4283C52.6086 15.8326 52.581 15.805 54.059 15.5656C58.6819 14.8174 63.3117 14.4812 67.8425 16.0375C71.457 17.2784 73.9319 19.6359 74.5765 23.5612C74.8298 25.1083 74.687 26.6531 74.3026 28.168C74.1967 28.5847 74.2105 28.8702 74.542 29.227C76.1328 30.9376 76.4321 33.2582 75.3892 35.2842C74.3371 37.3286 72.2559 38.4129 69.8846 38.0975C69.4126 38.0354 69.1525 38.1597 68.8877 38.5326C68.4733 39.1151 68.0267 39.6838 67.5294 40.1972C67.0897 40.6507 67.0805 40.9592 67.5133 41.4542C69.5554 43.7932 71.3419 46.3188 72.7186 49.1137C73.6994 51.1028 74.4752 53.1725 74.6433 55.4011C75.0209 60.3946 72.5575 64.0368 67.7965 65.6529C64.6079 66.735 61.3295 66.8271 58.0166 66.5853C56.3544 66.4633 54.7083 66.2377 53.076 65.9108C52.6639 65.8279 52.5281 65.9361 52.4014 66.3068C52.1252 67.1195 51.819 67.9229 51.4782 68.708C51.3102 69.0948 51.4184 69.3158 51.6762 69.6059C53.3799 71.5328 53.5986 74.0354 52.2702 76.112C50.9787 78.131 48.5728 79.0312 46.1831 78.3037C45.6444 78.1402 45.3935 78.3451 45.0688 78.6421C43.2409 80.3043 41.1712 81.4762 38.6548 81.635C35.9566 81.8054 33.6705 80.7648 31.6514 79.0634C28.9854 76.8165 27.2127 73.9156 25.7163 70.8214C25.0187 69.3779 24.4086 67.8953 23.8998 66.3758C23.7479 65.9223 23.5683 65.8417 23.1009 65.9292C19.5049 66.5969 15.8857 66.9468 12.2298 66.5025C10.5998 66.3045 9.01589 65.9292 7.50793 65.2731C2.79296 63.2172 0.700227 58.9327 1.87436 53.7803C2.74691 49.954 4.70381 46.6756 7.02446 43.586C7.62764 42.7849 8.26076 42.0021 8.9238 41.2493C9.21848 40.9132 9.22769 40.6875 8.90078 40.3975C8.73041 40.2478 8.59458 40.0567 8.45875 39.8702C7.63685 38.7352 6.87942 37.9341 5.11821 38.0883C2.89886 38.284 1.21362 36.8912 0.398634 34.7524C-0.414053 32.6228 0.0256728 30.6728 1.62803 29.059C2.07466 28.6077 1.97566 28.2279 1.86976 27.7559C0.723249 22.6841 2.81137 18.4342 7.45267 16.3967C8.61069 15.8879 9.82858 15.5633 11.0718 15.3354C12.6005 15.0545 14.1407 14.9302 15.4322 14.9693L15.4414 14.9762ZM53.9025 40.8003C53.8588 38.0469 53.7989 35.2934 53.5134 32.5491C53.472 32.1417 53.3408 31.8884 53.0023 31.649C48.4738 28.4581 43.7013 25.6931 38.6709 23.3678C38.3003 23.1975 38.0079 23.1791 37.6303 23.354C32.6069 25.6908 27.8228 28.4351 23.3012 31.6352C22.9697 31.87 22.8086 32.1025 22.7694 32.5215C22.2606 37.9939 22.2583 43.464 22.7487 48.9364C22.797 49.4775 22.9766 49.8067 23.4163 50.1129C27.8919 53.2278 32.5838 55.9605 37.5336 58.2513C37.9595 58.4493 38.2911 58.4631 38.7285 58.2628C43.7312 55.949 48.4784 53.1979 52.9816 50.0208C53.3154 49.786 53.4697 49.5488 53.5134 49.1344C53.7989 46.3625 53.8634 43.5814 53.9048 40.798L53.9025 40.8003ZM15.4598 64.2762C17.9739 64.2739 20.1311 64.0045 22.2836 63.6431C22.8477 63.5487 22.9605 63.3991 22.804 62.8557C21.7288 59.133 21.0289 55.3366 20.5869 51.4896C20.5524 51.188 20.4879 50.9578 20.2255 50.7644C17.0277 48.4207 14.0371 45.8353 11.2813 42.9829C10.9705 42.6605 10.8024 42.7089 10.5561 43.0358C10.0358 43.7196 9.46482 44.3642 8.95143 45.0549C6.88632 47.8245 5.09058 50.7368 4.2871 54.1533C3.21657 58.7071 5.07216 61.9901 9.51547 63.4313C11.5576 64.0943 13.6572 64.2923 15.4621 64.2739L15.4598 64.2762ZM38.5581 2.41524C36.1132 2.42214 33.9813 3.48808 32.1487 5.44037C29.3239 8.44478 27.6386 12.0961 26.2274 15.9086C26.0041 16.5095 26.4254 16.445 26.6993 16.5164C30.422 17.4672 34.0411 18.715 37.5659 20.2414C37.8813 20.3772 38.1598 20.497 38.5305 20.3335C42.1496 18.7381 45.8769 17.4488 49.717 16.4957C50.1015 16.4013 50.2005 16.2793 50.044 15.8672C49.5144 14.4766 48.9757 13.0907 48.3196 11.7531C46.9221 8.90293 45.2968 6.21392 42.7597 4.20407C41.4014 3.12893 39.8888 2.43365 38.5581 2.41984V2.41524ZM53.3338 63.5188C57.494 64.2762 61.6104 64.6883 65.7498 63.7375C70.246 62.7061 72.4539 60.0079 72.2444 55.8017C72.2029 54.9706 72.0234 54.1579 71.7862 53.359C70.642 49.4867 68.3674 46.2751 65.8649 43.1901C65.4781 42.7135 65.2709 42.6951 64.8404 43.1417C62.1882 45.8929 59.3012 48.3793 56.2231 50.6424C55.864 50.9071 55.7305 51.1926 55.6798 51.6277C55.5187 52.993 55.3115 54.3536 55.0928 55.7096C54.6691 58.3364 54.0314 60.9173 53.3315 63.5188H53.3338ZM38.0401 79.2522C40.0569 79.2154 41.65 78.3843 43.1188 77.2055C43.5954 76.8234 43.6276 76.5839 43.2869 76.0498C42.1818 74.3116 42.1358 72.4721 43.1304 70.6672C44.1088 68.8922 45.6789 68.0334 47.6865 67.8792C48.2068 67.8401 48.8077 68.3281 49.2059 67.8493C49.5375 67.451 49.6365 66.8639 49.8368 66.3574C49.8989 66.1986 49.9381 66.0259 50.0163 65.8763C50.2419 65.4411 50.1153 65.2547 49.6365 65.1372C45.8746 64.2187 42.2325 62.9478 38.6871 61.3938C38.2773 61.2142 37.9503 61.2534 37.559 61.4145C36.1845 61.9832 34.8055 62.538 33.4126 63.0583C31.214 63.8825 28.9693 64.5617 26.697 65.1557C26.4944 65.2086 25.9902 65.082 26.2043 65.6691C27.6248 69.5713 29.3377 73.3125 32.273 76.3422C33.8662 77.9883 35.7241 79.1832 38.0355 79.2476L38.0401 79.2522ZM22.9513 18.1717C21.3466 17.808 19.7558 17.6008 18.158 17.4833C15.1974 17.2669 12.2551 17.3153 9.39345 18.2615C5.40138 19.5807 3.46751 22.6219 4.0776 26.5426C4.19732 27.3116 4.3884 27.597 5.27937 27.5694C9.40496 27.4474 12.0157 31.8424 10.0427 35.4523C9.76872 35.9518 9.01589 36.3018 9.21618 36.8958C9.40727 37.4575 9.9621 37.8949 10.3558 38.3853C10.4087 38.4521 10.4755 38.5119 10.5192 38.5856C10.7955 39.0437 11.0257 38.9401 11.3573 38.5994C14.0601 35.816 16.977 33.2744 20.1149 30.9905C20.4142 30.7741 20.5547 30.5301 20.5938 30.1479C20.6951 29.1211 20.8494 28.1012 21.0036 27.0813C21.4571 24.0792 22.1363 21.1232 22.9513 18.1786V18.1717ZM53.3454 18.1326C53.3937 18.3559 53.4213 18.524 53.4674 18.6874C54.4758 22.3065 55.2148 25.9809 55.6269 29.7128C55.7098 30.4541 56.0182 30.8777 56.5777 31.2898C59.1884 33.2145 61.638 35.3325 63.9494 37.6095C65.439 39.076 65.4275 39.0622 66.742 37.4022C67.0459 37.0178 67.0782 36.8152 66.7167 36.4261C65.4574 35.0701 65.0499 33.4378 65.4712 31.6467C66.1066 28.9369 68.3881 27.3691 71.312 27.5625C71.6274 27.5832 71.9865 27.772 72.0786 27.2011C72.2651 26.0615 72.3733 24.9196 72.1661 23.7799C71.6228 20.7824 69.606 19.1456 66.8756 18.2661C62.3954 16.8226 57.8854 17.3498 53.3454 18.1303V18.1326ZM56.0574 47.7232C58.2836 46.0195 60.2682 44.2928 62.1399 42.4372C62.6625 41.9192 63.6041 41.4358 63.5489 40.8257C63.4982 40.2455 62.6487 39.7206 62.1215 39.2026C60.2428 37.3608 58.2767 35.6226 56.062 33.9535C56.3889 38.581 56.3889 43.0726 56.0597 47.7255L56.0574 47.7232ZM20.2232 33.942C17.5249 35.9979 15.1651 38.162 12.9044 40.4435C12.5475 40.8026 12.6764 40.9753 12.9573 41.2608C14.433 42.748 15.9364 44.2053 17.5457 45.5452C18.3952 46.252 19.2493 46.9496 20.2208 47.7485C19.8962 43.0773 19.8916 38.5833 20.2208 33.9397L20.2232 33.942ZM35.1554 21.8599C32.0106 20.5614 28.9716 19.6037 25.882 18.7841C25.364 18.646 25.2765 18.8785 25.1568 19.2975C24.2797 22.3411 23.7064 25.4445 23.1608 28.7873C27.0355 26.1858 30.9147 23.9204 35.1554 21.8599ZM35.1508 59.7961C30.9078 57.7494 27.0401 55.4656 23.124 52.8617C23.2322 53.3913 23.3012 53.6836 23.3473 53.976C23.8008 56.8032 24.3718 59.6027 25.1545 62.3561C25.2719 62.7682 25.3479 63.0169 25.8751 62.8764C28.9624 62.0546 32.0037 61.1014 35.1485 59.7938L35.1508 59.7961ZM53.0553 28.7367C52.634 25.3501 51.9272 22.2029 51.0754 19.0834C50.9349 18.5677 50.6333 18.7381 50.3571 18.814C49.0632 19.1709 47.7671 19.5323 46.4824 19.9237C44.7281 20.4601 42.9991 21.0679 41.1527 21.876C45.3474 23.8997 49.2082 26.1535 53.0553 28.7367ZM41.1366 59.8053C44.2792 61.0991 47.302 62.0546 50.3732 62.8672C50.8428 62.9916 51.0178 62.8718 51.1214 62.393C51.3332 61.4145 51.6417 60.4591 51.8673 59.4853C52.3508 57.3764 52.7859 55.2561 53.0484 52.9239C49.1967 55.5277 45.3221 57.7563 41.1389 59.8053H41.1366ZM47.7509 76.1557C49.3625 76.1649 50.6817 74.8987 50.7116 73.3148C50.7415 71.6917 49.4316 70.3288 47.8108 70.3034C46.2038 70.2781 44.8524 71.6272 44.857 73.2503C44.8639 74.855 46.1486 76.1465 47.7486 76.1557H47.7509ZM2.45683 32.8323C2.45222 34.4393 3.72996 35.7654 5.30469 35.7861C6.91395 35.8091 8.29068 34.4646 8.3022 32.8599C8.31601 31.2415 6.97841 29.9223 5.33692 29.9338C3.71845 29.9453 2.46143 31.2115 2.45683 32.83V32.8323ZM70.6835 29.9499C69.0558 29.9384 67.7757 31.1724 67.7481 32.7817C67.7205 34.4255 69.0028 35.7677 70.6259 35.7884C72.2237 35.8091 73.5935 34.4439 73.5866 32.8415C73.5797 31.253 72.2812 29.9614 70.6835 29.9499Z" fill="var(--fill-0, #2A9D8F)"/>
<path id="Vector_2" d="M38.1461 50.3039C32.8832 50.2924 28.654 46.0402 28.6656 40.775C28.6771 35.6157 32.9339 31.3612 38.0886 31.3566C43.3837 31.352 47.6405 35.6295 47.6152 40.9316C47.5899 46.0793 43.3123 50.3155 38.1484 50.3039H38.1461ZM38.153 47.8935C42.0784 47.8751 45.2301 44.6704 45.2002 40.7267C45.1702 36.9026 41.9771 33.7624 38.1231 33.7693C34.2346 33.7785 31.0737 36.9556 31.0783 40.8441C31.0852 44.7302 34.2761 47.9096 38.153 47.8912V47.8935Z" fill="var(--fill-0, #2A9D8F)"/>
<path id="Vector_3" d="M43.4643 41.2815C43.3077 42.9207 42.5042 44.3711 40.941 45.3588C40.2803 45.7755 39.5712 45.6442 39.2144 45.0503C38.823 44.401 38.9703 43.8163 39.5758 43.4019C40.5197 42.7572 41.0216 41.9031 41.0861 40.752C41.1252 40.0406 41.7123 39.5825 42.3615 39.6308C43.0683 39.6838 43.4988 40.2524 43.4666 41.2815H43.4643Z" fill="var(--fill-0, #2A9D8F)"/>
</g>
</svg>
