<svg preserveAspectRatio="none" width="100%" height="100%" overflow="visible" style="display: block;" viewBox="0 0 75 74.8309" fill="none" xmlns="http://www.w3.org/2000/svg">
<g id="Group 109">
<path id="Vector" d="M0.0418814 53.2983C0.355992 52.691 0.230348 52.0209 0.29317 51.3927C0.711985 46.2832 2.09407 41.4668 4.41849 36.9017C5.298 35.1846 6.17751 33.4675 6.91044 31.6875C8.2297 28.4626 8.18782 25.154 7.64336 21.8035C6.93138 17.5106 6.19845 13.2178 5.50741 8.92494C5.44459 8.50613 5.298 8.12919 5.06765 7.7732C3.91591 5.93042 3.32957 3.89917 3.30863 1.72133C3.28769 0.75806 3.91591 0.0670162 4.77448 0.00419403C5.63305 -0.0586281 6.3241 0.590534 6.4288 1.53287C6.44974 1.78416 6.44974 2.0145 6.47068 2.26579C6.61727 4.2761 7.39207 6.01418 8.77416 7.45909C11.6012 10.4327 15.9778 11.04 19.5168 8.88306C21.4433 7.68944 23.4955 7.04028 25.778 7.16592C27.6418 7.27062 29.2751 7.94073 30.8457 8.904C33.9449 10.8096 37.7771 10.5793 40.6041 8.35954C42.5515 6.83087 43.6405 4.82056 43.8708 2.34955C43.8918 2.07733 43.9127 1.8051 43.9336 1.55381C44.0383 0.653356 44.6875 0.0251348 45.5251 0.0460755C46.3837 0.0460755 47.0538 0.75806 47.0538 1.67945C47.0538 3.41753 46.7816 5.13467 45.8811 6.62146C44.9597 8.12919 44.7084 9.76257 44.4362 11.4169C43.8289 15.1653 43.2216 18.8927 42.5934 22.6411C41.9861 26.3267 42.4259 29.8447 44.0802 33.2162C45.232 35.5615 46.4675 37.865 47.4517 40.2941C48.7709 43.54 49.5667 46.8905 49.9436 50.3666C49.9855 50.8064 50.174 50.9948 50.5718 51.1205C60.4349 54.2616 70.9053 47.2674 71.7639 36.9855C72.5177 28.0857 66.4449 20.4423 57.587 19.1859C54.9066 18.809 52.268 19.1231 49.7133 20.0863C49.5039 20.1701 49.3154 20.2539 49.106 20.3167C48.2055 20.6099 47.3679 20.2329 47.0538 19.4162C46.7397 18.5786 47.1166 17.7619 47.9961 17.385C50.7603 16.2542 53.6292 15.6679 56.6028 15.961C65 16.7568 70.8634 21.0496 73.816 28.9443C77.9204 39.9172 70.9262 52.2304 59.4298 54.5548C56.5818 55.1411 53.7548 55.1202 50.9278 54.4291C50.4462 54.3244 50.1949 54.2616 50.2158 54.9526C50.3415 60.5229 49.6714 66.0303 48.6034 71.4958C48.4568 72.2706 48.3521 73.0454 48.1846 73.7993C48.059 74.4694 47.7658 74.951 46.9491 74.8045C46.7606 74.7626 46.5512 74.8045 46.3628 74.8045C45.3157 74.8045 44.9178 74.3647 45.1063 73.2967C45.4623 71.1189 45.8811 68.962 46.2371 66.7842C46.8653 62.9101 47.1585 59.0151 47.0747 55.0783C47.0747 54.7851 47.1376 54.5129 46.635 54.5757C40.4575 55.3715 34.7616 57.3608 29.9034 61.3814C28.8773 62.2191 27.9768 63.1823 27.1182 64.2084C26.846 64.5226 26.7413 64.8576 26.7413 65.2764C26.7413 67.894 26.7413 70.5116 26.7413 73.1292C26.7413 73.4642 26.7413 73.8202 26.5947 74.1343C26.4272 74.5532 26.1759 74.8463 25.6524 74.7626C25.4639 74.7416 25.2545 74.7626 25.066 74.7626C23.8934 74.7626 23.5793 74.4694 23.5583 73.2548C23.5583 70.6163 23.5583 67.9568 23.5583 65.3183C23.5583 64.8367 23.4117 64.4807 23.1186 64.1247C19.6005 59.8737 14.9936 57.4027 9.8212 55.8322C7.85277 55.2249 5.84246 54.827 3.81121 54.5757C3.24581 54.5129 3.22487 54.6804 3.22487 55.1202C3.14111 60.1041 3.66463 65.0461 4.6279 69.9253C4.83731 70.9932 5.06765 72.0822 5.25612 73.1711C5.46553 74.26 5.02577 74.7626 3.93686 74.7626C2.34536 74.7626 2.3663 74.7626 2.05219 73.1292C1.38209 69.653 0.691044 66.1769 0.376933 62.6379C0.29317 61.6327 0.230348 60.6276 0.146585 59.6434C0.146585 59.434 0.251289 59.2036 0 59.057V58.1775C0.355992 57.1095 0.0418814 56.0206 0.146585 54.9526C0.167526 54.7223 0.29317 54.4082 0 54.2197V53.3402L0.0418814 53.2983ZM41.1904 11.7519C41.0019 11.8357 40.8972 11.8776 40.7925 11.9404C36.7719 13.9298 32.8141 13.7622 28.982 11.4378C26.4062 9.86727 23.8724 9.86727 21.3177 11.4588C18.9932 12.9037 16.4803 13.511 13.7581 13.2178C12.1456 13.0503 10.6379 12.5267 9.13015 11.731C9.65367 14.893 10.1562 17.9923 10.6798 21.0706C11.2452 24.3583 11.3918 27.625 10.4704 30.8918C9.71649 33.5093 8.43911 35.8966 7.20361 38.3257C5.1933 42.2835 3.91591 46.4717 3.47616 50.8901C3.43428 51.288 3.51804 51.3718 3.89497 51.4137C5.0886 51.5602 6.28222 51.7278 7.43396 51.9791C14.0931 53.424 20.1031 56.1253 24.7938 61.2349C25.1707 61.6327 25.3173 61.4443 25.5686 61.172C27.4952 59.057 29.7358 57.3189 32.2068 55.9159C36.6044 53.424 41.3579 52.0209 46.3418 51.4137C46.7188 51.3718 46.8863 51.309 46.8235 50.8692C46.5093 48.2516 46.0068 45.655 45.1482 43.1421C44.143 40.1894 42.6144 37.4881 41.2951 34.682C40.1852 32.3576 39.3895 29.9285 39.201 27.3318C38.9707 24.0441 39.6617 20.8612 40.1643 17.6572C40.4784 15.7097 40.8135 13.7622 41.1485 11.7519H41.1904Z" fill="var(--fill-0, #2A9D8F)"/>
<path id="Vector_2" d="M0.0419367 54.1778C0.314166 54.3872 0.209462 54.6804 0.188522 54.9107C0.0838181 55.9787 0.397929 57.0676 0.0419367 58.1356V54.1778Z" fill="var(--fill-0, #2A9D8F)"/>
<path id="Vector_3" d="M53.8802 29.9912C53.8802 28.2322 53.8592 26.4732 53.8802 24.7142C53.9011 23.374 55.1366 22.6201 56.2046 23.2483C56.8119 23.6043 57.0213 24.1697 57.0213 24.8608C57.0213 27.5831 57.0422 30.2844 57.0003 33.0067C57.0003 33.7187 57.2098 33.8443 57.8589 33.8234C59.3457 33.7815 60.8325 33.8025 62.3402 33.8234C63.492 33.8234 64.2249 34.4726 64.2249 35.4149C64.2249 36.3782 63.471 36.9645 62.2983 36.9645C60.0786 36.9645 57.838 36.9645 55.6183 36.9855C54.5503 36.9855 53.8383 36.2525 53.8383 35.2055C53.8383 33.4674 53.8383 31.7293 53.8383 29.9912H53.8802Z" fill="var(--fill-0, #2A9D8F)"/>
</g>
</svg>
