<svg preserveAspectRatio="none" width="100%" height="100%" overflow="visible" style="display: block;" viewBox="0 0 76 75" fill="none" xmlns="http://www.w3.org/2000/svg">
<path id="Vector" d="M32.1846 57.6511C30.6956 59.1214 29.3252 60.4747 27.9547 61.8447C27.464 62.3292 26.9903 62.8137 26.4996 63.2815C25.6874 64.0668 25.1122 64.0501 24.2662 63.2648C23.8094 62.8472 23.4202 62.0285 22.8957 62.0953C22.405 62.1454 21.9821 62.8806 21.5252 63.315C20.8315 64 20.1547 64.685 19.4441 65.3533C18.835 65.9213 18.209 65.9714 17.6168 65.4201C17.2277 65.0525 17.0415 65.1862 16.7539 65.4869C14.3344 68.0097 11.6949 70.2819 8.56482 71.936C6.38219 73.0888 4.06421 73.9242 1.78006 74.8765C1.22171 75.1104 0.731045 75.0101 0.341895 74.5925C-0.0303363 74.2082 -0.0810951 73.7404 0.10502 73.2224C2.13537 67.6756 4.89327 62.5798 9.44464 58.6035C9.85071 58.2526 10.1214 57.9853 9.57999 57.4674C9.08933 56.9996 9.2416 56.3146 9.81687 55.7298C10.7813 54.7608 11.7288 53.775 12.727 52.8728C13.1839 52.4551 13.15 52.2045 12.7101 51.8537C12.3379 51.5529 12.0333 51.2021 11.7119 50.8512C11.1197 50.2164 11.1197 49.6149 11.7119 48.98C11.8472 48.8296 11.9995 48.6793 12.1518 48.5289C23.0988 37.7192 34.0457 26.9095 44.9927 16.0998C45.1788 15.9161 45.3988 15.7824 45.7372 15.5151C45.3142 15.1642 44.9927 14.947 44.722 14.663C44.1636 14.0783 44.1467 13.4267 44.722 12.8586C46.2278 11.3382 47.7675 9.81787 49.3072 8.33091C49.9163 7.74615 50.5762 7.81298 51.253 8.46457C52.6911 9.86799 54.1462 11.2881 55.5505 12.725C55.9397 13.1259 56.1596 13.0925 56.5319 12.725C57.9193 11.3048 59.3405 9.9014 60.7787 8.5314C61.1002 8.23066 61.134 8.04688 60.7787 7.74615C60.3049 7.32846 59.865 6.87736 59.4251 6.42626C58.7991 5.79138 58.7653 5.12308 59.3913 4.50491C60.7449 3.15161 62.0984 1.79831 63.4689 0.478428C64.1288 -0.173161 64.8056 -0.156453 65.4823 0.511843C68.8324 3.8032 72.1656 7.09456 75.4987 10.4026C76.1755 11.0709 76.1586 11.6891 75.4987 12.3741C74.1621 13.7107 72.8254 15.0306 71.4719 16.3505C70.812 16.9853 70.1352 16.9686 69.4584 16.317C69.0016 15.8827 68.5448 15.4483 68.1218 14.9805C67.8511 14.6797 67.6819 14.663 67.3773 14.9805C65.9223 16.4507 64.4502 17.9042 62.9613 19.3411C62.6398 19.6585 62.7244 19.8089 62.9952 20.0762C64.4164 21.4629 65.8377 22.8663 67.242 24.2698C68.1556 25.1887 68.1556 25.7233 67.242 26.6422C65.9053 27.9788 64.5518 29.2987 63.2151 30.6186C62.3184 31.5041 61.7262 31.5208 60.8802 30.6186C60.4065 30.1006 60.1358 30.1006 59.6282 30.6186C57.7501 32.5399 55.8043 34.4112 53.8247 36.3659C54.8061 36.5831 55.7028 36.7502 56.5826 36.9674C56.9041 37.0509 57.0733 36.8671 57.2933 36.7502C59.0867 35.8146 60.8971 35.7812 62.6399 36.817C64.3995 37.8696 65.2624 39.4735 65.1778 41.5285C65.1778 41.8627 65.2793 42.0464 65.4993 42.2636C69.4415 46.4572 71.2012 51.4193 70.7613 57.1165C70.5582 59.7396 69.7799 62.2123 68.494 64.5179C68.2741 64.9189 68.291 65.0859 68.6801 65.37C70.4736 66.7066 71.1673 68.5277 70.7105 70.6662C70.2368 72.8215 68.8155 74.2082 66.6329 74.6426C64.4502 75.077 62.6229 74.3418 61.3032 72.5542C61.0156 72.1699 60.8295 72.1699 60.4403 72.3704C53.351 75.762 46.5493 75.2273 40.0691 70.8166C39.7138 70.566 39.4431 70.5827 39.0539 70.6495C36.8882 71.0672 35.0778 70.4323 33.7412 68.6947C32.4214 66.9572 32.3199 65.0525 33.3182 63.1145C33.4705 62.8304 33.572 62.5965 33.4197 62.2624C32.8275 60.8757 32.4722 59.4054 32.2353 57.718L32.1846 57.6511ZM28.3777 42.5477C28.3777 43.1658 28.1408 43.5501 27.667 43.7673C27.1256 44.0179 26.6349 43.901 26.212 43.5C25.4337 42.7481 24.6554 42.013 23.9278 41.2278C23.6063 40.8936 23.4202 40.8602 23.0649 41.2278C20.307 43.9845 17.5322 46.7245 14.7236 49.4478C14.3344 49.8154 14.4021 50.0159 14.7405 50.35C18.1413 53.6915 21.5421 57.033 24.9091 60.4079C25.3321 60.8423 25.5352 60.7253 25.8905 60.3578C27.7347 58.5032 29.5959 56.6654 31.474 54.8276C31.8969 54.4266 32.1169 54.0256 32.1677 53.4242C32.2523 52.4719 32.4214 51.5195 32.6752 50.5839C34.7564 42.7314 41.3719 37.1512 49.561 36.3158C49.9502 36.2824 50.3055 36.2323 50.6269 35.9148C53.0972 33.4588 55.5675 31.0028 58.0716 28.5636C58.3423 28.2962 58.41 28.1459 58.0885 27.8284C54.603 24.4201 51.1345 20.9951 47.6829 17.5534C47.4122 17.2694 47.2599 17.3028 47.0061 17.5534C45.7879 18.773 44.5528 19.9927 43.3177 21.1956C43.03 21.4796 42.9962 21.6467 43.3177 21.9307C44.0791 22.6491 44.8235 23.3843 45.5511 24.1361C46.194 24.7877 46.2278 25.5228 45.6695 26.0575C45.1281 26.5587 44.4005 26.5253 43.7745 25.9071C43.03 25.2054 42.3025 24.487 41.5919 23.7518C41.2873 23.4344 41.1012 23.3342 40.729 23.7184C38.6648 25.8068 36.5668 27.8619 34.4687 29.9002C34.1303 30.2343 34.198 30.4014 34.5026 30.6854C35.247 31.3871 35.9746 32.1055 36.6852 32.8407C37.3281 33.4923 37.3789 34.2441 36.8544 34.762C36.313 35.2966 35.5685 35.2465 34.9086 34.6116C34.1472 33.8765 33.4028 33.1581 32.6752 32.4063C32.3876 32.1055 32.2184 32.139 31.9308 32.4063C29.8328 34.4947 27.7347 36.5831 25.6029 38.6381C25.2983 38.9222 25.3152 39.0892 25.6029 39.3733C26.3642 40.0917 27.0918 40.8435 27.8532 41.5786C28.1408 41.8627 28.3607 42.1801 28.3438 42.4975L28.3777 42.5477ZM34.5702 55.3121C34.5702 56.9829 34.824 58.6202 35.2978 60.2408C35.4162 60.6585 35.5347 60.9258 36.093 60.6585C36.7867 60.3243 37.565 60.2074 38.3264 60.3243C38.8001 60.3912 38.9524 60.2074 39.1216 59.8231C40.0183 57.8015 40.932 55.7966 41.8626 53.7917C42.0318 53.4242 41.981 53.2237 41.6765 52.9397C40.6275 51.9706 40.086 50.751 40.0183 49.3476C39.9168 46.9918 41.4227 44.9201 43.7068 44.185C45.9402 43.4666 48.3597 44.3019 49.6964 46.2233C51.033 48.1613 50.9315 50.7176 49.358 52.522C48.9857 52.9397 48.9857 53.207 49.2564 53.6414C49.8994 54.7106 50.4916 55.8133 51.1007 56.8993C51.2699 57.1833 51.3883 57.3671 51.8113 57.3003C55.5675 56.7155 58.5453 59.6393 57.9193 63.2983C57.8516 63.6658 57.9193 63.8663 58.2577 64.0501C58.8837 64.3675 59.5266 64.685 60.1019 65.0859C61.0325 65.7375 61.8615 66.0383 62.7752 65.0525C63.029 64.7852 63.2151 64.6683 63.1305 64.2673C61.9631 58.5032 60.8125 52.7392 59.6789 46.9751C59.6112 46.5909 59.4928 46.4405 59.0529 46.3737C56.2273 45.9727 54.2985 43.5 54.5523 40.7098C54.603 40.1585 55.1614 39.4902 54.7384 39.1561C54.3492 38.8219 53.5879 38.9222 52.9957 38.8386C52.7419 38.8052 52.4712 38.7718 52.2174 38.7551C42.5563 38.3541 34.621 45.7889 34.5364 55.3288L34.5702 55.3121ZM51.2868 72.0028C54.3323 71.9527 57.0902 71.2343 59.6958 69.8476C60.4234 69.4633 60.2034 68.8284 60.3388 68.3105C60.4572 67.8928 59.9666 67.8761 59.7297 67.7257C58.8837 67.2078 57.987 66.7567 57.141 66.2388C56.7688 66.0216 56.5319 66.0216 56.1766 66.3223C55.0091 67.3247 53.6217 67.7758 52.082 67.5419C50.0347 67.2412 48.5797 66.1385 47.8352 64.2339C47.0738 62.2958 47.463 60.4914 48.8165 58.9209C49.1042 58.6035 49.1042 58.3863 48.9011 58.0521C48.3766 57.1833 47.8521 56.3146 47.4122 55.3957C47.0231 54.577 46.6001 53.9755 45.5511 54.3431C45.348 54.4099 45.0773 54.3765 44.8404 54.3431C44.4513 54.2595 44.2821 54.46 44.1467 54.7775C43.2331 56.8158 42.3194 58.8541 41.3888 60.8924C41.2196 61.26 41.2704 61.4604 41.558 61.7445C43.5207 63.6658 43.7745 66.3557 42.1671 68.5444C41.8457 68.9788 41.9472 69.1124 42.3363 69.3463C45.0942 71.0672 48.1228 71.9193 51.2699 71.9694L51.2868 72.0028ZM50.1024 11.0542C50.1024 11.0542 49.9332 11.2046 49.8486 11.2881C49.138 11.9898 48.4443 12.6915 47.7168 13.3765C47.4122 13.6606 47.4122 13.8109 47.7168 14.1117C52.3697 18.6728 57.0056 23.2673 61.6247 27.8451C61.8954 28.1125 62.0646 28.196 62.3691 27.8786C63.0459 27.1601 63.7565 26.4584 64.4841 25.7734C64.7379 25.5228 64.7717 25.3725 64.4841 25.0884C59.8143 20.4939 55.1614 15.8994 50.5085 11.3048C50.407 11.2046 50.3224 11.0375 50.0855 11.0542H50.1024ZM65.7192 64.1002C67.3773 61.3769 68.2064 58.6035 68.2402 55.5961C68.291 51.5697 67.0051 47.9943 64.4672 44.8366C64.1626 44.469 63.9934 44.3855 63.655 44.8032C63.3843 45.1373 63.0121 45.438 62.6229 45.6218C62.183 45.8557 62.1153 46.123 62.1999 46.5574C63.3674 52.3382 64.5179 58.1357 65.7192 64.0835V64.1002ZM3.65814 71.3512C8.32794 69.7473 11.9487 66.9238 15.1804 63.5154C15.4342 63.2481 15.2819 63.1312 15.1127 62.9474C14.1483 61.9951 13.1669 61.0428 12.2025 60.0737C11.9318 59.8064 11.7795 59.7897 11.5088 60.0737C10.3752 61.2265 9.17392 62.3292 8.14183 63.5823C6.22991 65.8879 4.74099 68.4274 3.65814 71.3512ZM64.4164 3.06807C64.4164 3.06807 64.298 3.15161 64.2303 3.20173C63.5535 3.87003 62.8936 4.53833 62.2169 5.18991C61.98 5.42382 62.1153 5.54077 62.2845 5.69114C64.9071 8.28078 67.5465 10.8871 70.1691 13.4935C70.3721 13.694 70.5075 13.7441 70.7274 13.4935C71.3365 12.8586 71.9795 12.2237 72.6224 11.6223C72.91 11.3549 72.7916 11.2046 72.5717 11.0041C69.983 8.44786 67.3943 5.89163 64.7886 3.33539C64.6871 3.23515 64.6025 3.06807 64.3995 3.08478L64.4164 3.06807ZM21.0684 60.1907C21.0007 60.1071 20.9669 60.0236 20.9161 59.9735C19.0211 58.1022 17.1092 56.2143 15.2142 54.3431C14.9943 54.1259 14.8589 54.2428 14.7066 54.4099C14.0298 55.0949 13.3361 55.7799 12.6424 56.4482C12.3548 56.7155 12.4732 56.8659 12.6932 57.0664C14.5036 58.8374 16.314 60.6251 18.1075 62.4128C18.3443 62.6467 18.5135 62.7636 18.8012 62.4629C19.461 61.7779 20.1378 61.143 20.8146 60.4747C20.8992 60.3912 20.9838 60.2909 21.0684 60.1907ZM65.8715 12.8419C65.7869 12.7417 65.7192 12.6581 65.6515 12.5746C64.8394 11.7559 64.0103 10.9707 63.1982 10.1353C62.8936 9.83457 62.7583 10.0518 62.5722 10.2355C61.1002 11.6891 59.6451 13.1426 58.1562 14.5795C57.8516 14.8802 57.8685 15.0306 58.1562 15.3146C58.9175 16.033 59.662 16.7681 60.3895 17.52C60.6603 17.804 60.8295 17.8541 61.134 17.5367C62.5891 16.0664 64.0611 14.6296 65.5331 13.1761C65.6346 13.0758 65.7361 12.9589 65.8546 12.8252L65.8715 12.8419ZM65.5162 72.2033C67.0389 72.2367 68.291 71.0338 68.3248 69.5301C68.3587 68.0432 67.1235 66.8068 65.5839 66.7734C64.0442 66.74 62.7921 67.8928 62.7583 69.4132C62.7075 70.9502 63.9088 72.1699 65.5162 72.2033ZM45.3142 51.8871C46.8539 51.8871 48.089 50.7009 48.1059 49.1972C48.1059 47.7102 46.8877 46.4739 45.3649 46.4572C43.8422 46.4572 42.607 47.6434 42.5901 49.1471C42.5732 50.634 43.8083 51.8704 45.3311 51.8704L45.3142 51.8871ZM40.6782 65.4869C40.6782 63.9833 39.4262 62.7803 37.9034 62.797C36.3976 62.797 35.1455 64.0501 35.1624 65.537C35.1624 67.0073 36.4652 68.2603 37.9542 68.2436C39.4769 68.2269 40.6782 66.9906 40.6782 65.4869ZM52.7588 59.6727C51.2868 59.6727 50.0517 60.8757 50.0178 62.3292C49.984 63.8496 51.253 65.1361 52.7926 65.1194C54.2985 65.1194 55.5505 63.8663 55.5336 62.3793C55.5336 60.8924 54.2816 59.6727 52.7588 59.6727ZM59.865 38.5212C58.3084 38.5212 57.1071 39.7241 57.1071 41.2445C57.1071 42.7314 58.3084 43.9177 59.8143 43.9344C61.354 43.9344 62.606 42.7481 62.6229 41.2445C62.6398 39.7575 61.3878 38.5212 59.865 38.5212Z" fill="var(--fill-0, #2A9D8F)"/>
</svg>
