<svg preserveAspectRatio="none" width="100%" height="100%" overflow="visible" style="display: block;" viewBox="0 0 75.0098 75.0098" fill="none" xmlns="http://www.w3.org/2000/svg">
<g id="Group 105">
<path id="Vector" d="M0.00195783 30.916V27.2527C0.278012 27.0256 0.215361 26.683 0.272138 26.3932C1.46837 20.2415 6.89156 15.6463 13.1488 15.5386C13.744 15.5288 13.8027 15.3272 13.7988 14.8279C13.7772 12.265 13.7753 9.70214 13.7909 7.13729C13.8184 3.03941 16.8315 0.00858607 20.9135 0.00662817C37.05 -0.00316131 53.1864 -0.00120342 69.3228 0.00662817C72.6296 0.00662817 74.9888 2.37568 75.0044 5.68257C75.0142 7.80689 75.0064 9.93121 75.0064 12.0536C75.0064 17.6434 75.0162 23.2351 75.0025 28.8249C74.9946 31.7167 73.0368 34.0075 70.198 34.3716C69.1407 34.5067 68.0502 34.4695 66.9812 34.4108C66.3156 34.3756 66.202 34.5851 66.202 35.2077C66.2236 45.0696 66.2196 54.9335 66.2157 64.7954C66.2157 68.2883 63.88 70.6084 60.3794 70.6143C57.6933 70.6182 55.0091 70.6241 52.323 70.6065C51.902 70.6045 51.5966 70.7259 51.2853 71.0078C49.1983 72.8992 46.7451 74.0837 44.0042 74.6965C43.499 74.8101 42.9548 74.7376 42.4849 75.0098H38.8218C38.7278 74.7572 38.489 74.8512 38.3186 74.8218C35.2448 74.2795 32.5215 73.0068 30.2152 70.8923C29.9215 70.6221 29.622 70.6143 29.2813 70.6143C25.9628 70.6162 22.6423 70.63 19.3238 70.6104C16.5358 70.5928 14.3333 68.6897 13.879 65.9467C13.8223 65.6001 13.7831 65.2516 13.7303 64.8737C10.6839 65.9564 7.614 66.3089 4.45993 65.9349C3.45753 65.8155 3.18735 65.5296 3.06009 64.5037C2.85843 62.8708 2.88388 61.2399 3.08554 59.6129C3.38313 57.2184 4.09186 54.955 5.28418 52.8503C5.57394 52.3393 5.94984 52.0103 6.58026 52.1259C7.3536 52.2688 7.68839 53.0656 7.2518 53.8351C6.41189 55.3094 5.82063 56.8738 5.49954 58.5341C5.26852 59.7362 5.08644 60.9481 5.14909 62.3108C7.68839 59.7675 10.1181 57.3339 12.5477 54.9002C13.0137 54.4342 13.462 53.9487 13.9554 53.514C14.4214 53.1029 14.9402 53.1224 15.412 53.5297C15.8604 53.9173 15.8878 54.5458 15.4943 55.0412C15.3592 55.2115 15.1928 55.3603 15.0381 55.515C12.4498 58.1033 9.85963 60.6917 7.27529 63.2859C7.11671 63.4445 6.87394 63.5561 6.84653 63.8419C7.57288 63.9144 8.27183 63.8125 8.96881 63.7284C13.0607 63.2291 16.5554 61.606 19.0575 58.2169C21.3775 55.0745 22.0902 51.47 21.9531 47.6423C21.9355 47.1411 21.6438 47.0529 21.2268 47.0412C17.3718 46.9316 13.7694 47.701 10.6134 50.0524C9.92619 50.5635 9.28011 50.5204 8.87288 49.9761C8.45978 49.4259 8.61249 48.8229 9.29773 48.2923C10.5214 47.3466 11.8664 46.6144 13.3132 46.0838C13.6676 45.9546 13.8027 45.7979 13.7968 45.4122C13.7733 44.0711 13.789 42.728 13.7851 41.3848C13.7851 41.1969 13.8321 41.003 13.6715 40.8327C12.7592 39.8675 12.4244 38.589 11.8742 37.4299C11.6745 37.007 11.5199 36.8641 11.0187 37.0383C9.33101 37.6218 7.59833 38.031 5.79126 37.9272C3.82364 37.8156 2.28087 37.0422 1.439 35.1372C1.0259 34.1994 0.646084 33.2596 0.383734 32.2669C0.264307 31.8146 0.326957 31.3056 0 30.912L0.00195783 30.916ZM65.0919 2.22688C64.9255 2.21122 64.8766 2.20339 64.8296 2.20339C50.1557 2.20339 35.4817 2.19752 20.8078 2.20731C18.1021 2.20731 16.0268 4.26506 15.9935 6.97283C15.9602 9.70801 15.9935 12.4412 15.9778 15.1764C15.9759 15.5837 16.0718 15.7501 16.5104 15.8519C19.8778 16.6233 22.5405 18.45 24.6217 21.2146C26.1311 23.2195 26.0939 25.195 24.8546 27.2625C24.0304 28.637 22.9634 29.8078 21.7515 30.8435C21.3854 31.1548 21.2953 31.3584 21.6281 31.7657C22.1509 32.4059 22.6208 33.0951 23.0848 33.7804C24.467 35.8185 23.9227 38.3305 21.8161 39.6129C20.7765 40.2453 19.7173 40.8464 18.6581 41.4494C17.969 41.841 17.2289 42.0877 16.4281 42.0349C16.0601 42.0114 15.97 42.1367 15.9798 42.4832C16.0013 43.2644 16.0111 44.0476 15.9778 44.8268C15.9583 45.2713 16.1149 45.2869 16.4869 45.2106C18.1452 44.8738 19.823 44.7642 21.5126 44.866C23.0417 44.958 24.0774 45.9037 24.1283 47.3936C24.3613 54.1464 22.331 59.8321 16.34 63.607C16.1854 63.7049 16.0268 63.7773 15.9818 64.022C15.5158 66.4518 17.1232 68.4195 19.6018 68.4214C22.19 68.4254 24.7783 68.4254 27.3665 68.4175C27.5388 68.4175 27.7503 68.5213 27.9069 68.304C27.7973 68.1395 27.6896 67.9809 27.5858 67.8184C25.7474 64.9325 24.9584 61.7822 25.0661 58.3637C25.1738 54.9159 28.273 53.4102 30.9454 54.4675C35.0158 56.0769 39.1644 57.4925 43.2778 58.9902C46.1362 60.0299 49.0025 61.046 51.8472 62.1209C54.2984 63.047 55.2108 65.6745 53.9382 67.9574C53.8657 68.0866 53.666 68.2002 53.8148 68.4214C55.9254 68.4214 58.0496 68.4214 60.1739 68.4214C62.7641 68.4214 64.021 67.1586 64.021 64.5546C64.021 50.2952 64.021 36.0359 64.021 21.7765C64.021 21.5572 64.0073 21.336 64.0269 21.1167C64.0797 20.4882 64.5261 20.0555 65.1193 20.0692C65.7517 20.0849 66.1002 20.4451 66.2059 21.0462C66.2392 21.2361 66.2196 21.4358 66.2196 21.6316C66.2196 24.9522 66.2294 28.2728 66.2079 31.5934C66.204 32.077 66.2784 32.2826 66.8246 32.2493C67.6763 32.1984 68.5338 32.2415 69.3874 32.2336C71.3903 32.214 72.8038 30.8239 72.8058 28.823C72.8136 21.0834 72.8077 13.3438 72.8117 5.6023C72.8117 5.05409 72.704 4.53525 72.4651 4.04773C71.8092 2.71048 70.2763 1.95669 68.8666 2.268C67.3239 2.60867 66.2353 3.87935 66.2275 5.43979C66.2079 8.85828 66.2216 12.2768 66.2177 15.6953C66.2177 16.6057 65.8105 17.1284 65.1193 17.1304C64.4282 17.1304 64.023 16.6096 64.021 15.6992C64.019 12.5744 64.0465 9.44761 64.0093 6.32281C63.9916 4.87788 64.1776 3.51322 65.0959 2.2308L65.0919 2.22688ZM22.1568 27.2136C22.5796 26.7985 22.8009 26.3971 23.0339 26.0056C23.7387 24.823 23.7328 23.752 22.889 22.5577C19.4432 17.6864 12.8022 16.2513 7.6786 19.3428C2.55888 22.4324 0.716565 29.0031 3.48689 34.2933C4.1643 35.5875 6.13975 36.1964 7.52002 35.4994C6.05948 34.6614 5.31159 33.3261 4.82409 31.8029C4.28765 30.1308 4.2387 28.4373 4.70662 26.7554C5.5524 23.7148 7.44562 21.5905 10.4176 20.4686C11.1205 20.2023 11.7196 20.4197 11.9643 20.9933C12.2266 21.6081 11.9428 22.1837 11.2144 22.5068C11.1479 22.5362 11.0774 22.5557 11.0089 22.5831C7.81565 23.9047 6.10647 27.0511 6.73885 30.45C7.14999 32.6585 8.51851 34.0838 10.398 34.2366C10.0985 33.5376 9.76957 32.8621 9.51505 32.1612C8.22092 28.5919 11.0872 24.9307 14.8599 25.3125C16.4673 25.475 17.687 26.2738 18.6248 27.5621C18.9537 28.0144 19.2239 28.5234 19.6821 28.9013C20.4064 26.773 19.6821 25.1676 18.1275 23.8186C17.4188 23.2018 16.6024 22.7828 15.737 22.4363C15.1399 22.1974 14.8599 21.7491 15.0459 21.0991C15.2221 20.4843 15.7781 20.1808 16.436 20.3805C19.1182 21.2009 22.2057 24.0281 22.1548 27.2136H22.1568ZM40.8325 68.4136C44.0042 68.4136 47.0995 66.6417 48.6736 63.9437C48.8889 63.5756 49.0005 63.3857 48.4484 63.188C43.1114 61.2771 37.7841 59.3388 32.4647 57.3848C31.9694 57.2027 31.8558 57.2928 31.7775 57.792C30.8985 63.3759 35.1841 68.4116 40.8344 68.4156L40.8325 68.4136ZM40.8149 72.813C41.7722 72.8326 42.7179 72.719 43.6478 72.5115C47.1034 71.742 49.8679 69.9153 51.9118 67.0196C52.5286 66.1464 52.4189 65.1537 51.6808 64.5174C51.3323 64.2178 51.0974 64.0612 50.7783 64.6505C48.5111 68.8346 44.0355 71.0979 39.3367 70.4949C32.8347 69.6608 28.3611 63.4327 29.6787 57.0519C29.8119 56.4039 29.6572 56.2316 28.9915 56.2962C27.9637 56.3941 27.3587 57.1342 27.2726 58.399C26.742 66.1464 33.0149 72.8248 40.8149 72.813ZM11.4063 30.4989C11.3965 30.7809 11.4376 31.1196 11.5786 31.4348C12.6848 33.8959 13.7733 36.3648 14.9187 38.8102C15.3846 39.8048 16.4184 40.1259 17.3914 39.609C18.5504 38.9942 19.6918 38.3344 20.8039 37.6394C21.6732 37.0951 21.9473 36.0457 21.3717 35.2135C19.7897 32.9326 18.1745 30.6693 16.5006 28.4549C15.7566 27.4701 14.3724 27.2332 13.2369 27.6952C12.1092 28.1534 11.4004 29.2126 11.4063 30.5009V30.4989Z" fill="var(--fill-0, #2A9D8F)"/>
<path id="Vector_2" d="M44.2061 27.4498C47.2498 27.4498 50.2955 27.4498 53.3392 27.4498C53.5597 27.4498 53.7901 27.4217 53.9988 27.4779C54.5638 27.6316 54.8985 28.0449 54.8847 28.692C54.8729 29.3001 54.5481 29.6982 54.0145 29.8411C53.7822 29.9038 53.5263 29.8757 53.2821 29.8757C47.2419 29.8757 41.2037 29.8757 35.1635 29.8757C35.0415 29.8757 34.9174 29.88 34.7954 29.8757C34.0098 29.8497 33.5255 29.3671 33.5413 28.6292C33.557 27.9302 34.0315 27.4584 34.7776 27.4498C35.955 27.4368 37.1343 27.4455 38.3136 27.4455C40.2784 27.4455 42.2413 27.4455 44.2061 27.4455V27.4498Z" fill="var(--fill-0, #2A9D8F)"/>
<path id="Vector_3" d="M44.2144 33.5427C47.3308 33.5427 50.4452 33.5379 53.5615 33.5444C54.5924 33.546 55.1827 34.2387 54.7321 34.8956C54.435 35.3298 53.9393 35.3721 53.3982 35.3704C48.1964 35.3639 42.9966 35.3672 37.7948 35.3672C36.8131 35.3672 35.8314 35.3721 34.8516 35.3656C34.045 35.3607 33.5591 35.0241 33.5413 34.4777C33.5236 33.9037 34.0194 33.5444 34.8674 33.5444C37.9837 33.5395 41.0981 33.5427 44.2144 33.5427Z" fill="var(--fill-0, #2A9D8F)"/>
<path id="Vector_4" d="M44.1438 41.4637C41.15 41.4637 38.1543 41.4637 35.1606 41.4637C34.9638 41.4637 34.7669 41.4788 34.5721 41.455C33.9501 41.3836 33.5092 40.8644 33.5427 40.2176C33.5781 39.5276 33.9422 39.1404 34.5544 39.0473C34.7709 39.0149 34.9953 39.0365 35.2157 39.0365C41.2052 39.0365 47.1926 39.0365 53.1821 39.0365C53.3533 39.0365 53.5265 39.03 53.6978 39.0365C54.4182 39.0733 54.9024 39.5838 54.8847 40.2804C54.8669 40.9488 54.4005 41.442 53.7155 41.4572C52.7825 41.4788 51.8496 41.4637 50.9166 41.4637C48.659 41.4637 46.4014 41.4637 44.1418 41.4637H44.1438Z" fill="var(--fill-0, #2A9D8F)"/>
<path id="Vector_5" d="M44.2144 45.1296C47.3308 45.1296 50.4452 45.1247 53.5615 45.1312C54.5924 45.1328 55.1827 45.8255 54.7321 46.4825C54.435 46.9166 53.9393 46.9589 53.3982 46.9573C48.1964 46.9508 42.9966 46.954 37.7948 46.954C36.8131 46.954 35.8314 46.9589 34.8516 46.9524C34.045 46.9475 33.5591 46.6109 33.5413 46.0646C33.5236 45.4906 34.0194 45.1312 34.8674 45.1312C37.9837 45.1263 41.0981 45.1296 44.2144 45.1296Z" fill="var(--fill-0, #2A9D8F)"/>
<path id="Vector_6" d="M41.9944 14.0259C41.4332 14.0337 40.893 13.9072 40.4405 13.5823C40.0817 13.3255 39.8335 13.343 39.4536 13.5726C37.4244 14.7983 34.8149 13.3566 34.7614 11.0064C34.7442 10.2807 35.0783 9.83324 35.6834 9.7671C36.3077 9.699 36.7696 10.0356 36.8708 10.7438C36.9624 11.3799 37.2144 11.8235 37.8787 11.8274C38.5545 11.8313 38.8141 11.3566 38.8905 10.7379C38.9668 10.1153 39.3219 9.77293 39.9328 9.76515C40.5513 9.75737 40.9121 10.1153 40.9922 10.7224C41.0743 11.3449 41.3129 11.8177 41.9868 11.8274C42.7084 11.8371 42.9222 11.3235 43.031 10.6873C43.1493 10.0006 43.6266 9.67566 44.2546 9.77488C44.8235 9.86437 45.148 10.3177 45.127 10.9928C45.0755 12.6679 43.6686 14.0298 41.9925 14.0259H41.9944Z" fill="var(--fill-0, #2A9D8F)"/>
<path id="Vector_7" d="M31.1176 6.09836C32.6782 6.10628 33.9941 7.35531 34.1433 8.97252C34.2083 9.68116 33.8392 10.2394 33.231 10.3482C32.6342 10.4551 32.1312 10.0434 32.0165 9.30309C31.9304 8.74884 31.6913 8.349 31.1233 8.33712C30.5094 8.32326 30.2741 8.75478 30.1804 9.33278C30.0675 10.0355 29.5875 10.4334 29.0118 10.3581C28.4036 10.277 28.0019 9.71284 28.0574 9.01607C28.1875 7.36917 29.5282 6.09243 31.1176 6.09836Z" fill="var(--fill-0, #2A9D8F)"/>
<path id="Vector_8" d="M48.7792 6.09834C50.3691 6.09834 51.7311 7.40463 51.8326 9.02759C51.8767 9.73615 51.4763 10.2844 50.8653 10.3596C50.2925 10.4289 49.8002 10.0192 49.7006 9.32447C49.6163 8.73466 49.3634 8.32694 48.7562 8.33684C48.1815 8.34674 47.9593 8.76831 47.8655 9.31062C47.7352 10.0607 47.241 10.4605 46.6433 10.3477C46.0361 10.2329 45.674 9.67281 45.7468 8.96227C45.9154 7.32546 47.2161 6.10032 48.783 6.09834H48.7792Z" fill="var(--fill-0, #2A9D8F)"/>
<path id="Vector_9" d="M28.9371 29.8818C28.4272 29.8688 28.0349 29.3096 28.0529 28.6155C28.0692 27.9605 28.4599 27.4492 28.9469 27.4427C29.4487 27.4362 29.8851 28.0084 29.8818 28.6677C29.8785 29.327 29.4372 29.8927 28.9387 29.8818H28.9371Z" fill="var(--fill-0, #2A9D8F)"/>
<path id="Vector_10" d="M28.0523 34.4621C28.0491 33.947 28.4577 33.5361 28.9677 33.541C29.4711 33.5475 29.8977 33.9845 29.8814 34.4784C29.8666 34.9496 29.4564 35.3571 28.9807 35.3702C28.474 35.3832 28.0556 34.9757 28.0523 34.4621Z" fill="var(--fill-0, #2A9D8F)"/>
<path id="Vector_11" d="M28.9612 41.4666C28.4529 41.471 28.0474 40.9184 28.0523 40.231C28.0573 39.5762 28.4381 39.052 28.9253 39.0302C29.4255 39.0063 29.8701 39.561 29.8816 40.2245C29.893 40.8858 29.4647 41.4645 28.9612 41.4688V41.4666Z" fill="var(--fill-0, #2A9D8F)"/>
<path id="Vector_12" d="M29.8814 46.0184C29.8962 46.5148 29.4694 46.9507 28.9659 46.9573C28.4803 46.9622 28.0781 46.5817 28.0536 46.0951C28.0274 45.5759 28.41 45.1481 28.9201 45.1285C29.422 45.1089 29.8667 45.5204 29.8814 46.02V46.0184Z" fill="var(--fill-0, #2A9D8F)"/>
<path id="Vector_13" d="M35.3211 60.3741C35.9785 60.3577 36.5922 60.8026 36.59 61.2966C36.59 61.7791 36.0506 62.188 35.3976 62.2027C34.7271 62.2175 34.1898 61.8527 34.1527 61.3555C34.1134 60.8354 34.6397 60.3937 35.3211 60.3757V60.3741Z" fill="var(--fill-0, #2A9D8F)"/>
<path id="Vector_14" d="M38.9914 65.862C38.3222 65.8489 37.8143 65.3337 37.81 64.6656C37.8056 63.9779 38.3767 63.4059 39.0503 63.4233C39.6803 63.4408 40.2427 64.0128 40.2492 64.6416C40.2579 65.3162 39.6803 65.8751 38.9914 65.862Z" fill="var(--fill-0, #2A9D8F)"/>
<path id="Vector_15" d="M43.637 62.8137C44.1581 62.8357 44.5444 63.409 44.5165 64.1163C44.4885 64.7885 44.0923 65.2695 43.5811 65.252C43.083 65.2344 42.6884 64.7006 42.6884 64.0438C42.6884 63.3607 43.1257 62.7917 43.637 62.8137Z" fill="var(--fill-0, #2A9D8F)"/>
</g>
</svg>
